<?xml version="1.0" encoding="UTF-8"?>
<svg id="Layer_1" xmlns="http://www.w3.org/2000/svg" version="1.1" viewBox="0 0 118.42 18.2">
  <!-- Generator: Adobe Illustrator 29.1.0, SVG Export Plug-In . SVG Version: 2.1.0 Build 142)  -->
  <defs>
    <style>
      .st0 {
        fill: none;
      }

      .st1 {
        fill: #8c8e90;
      }
    </style>
  </defs>
  <path class="st1" d="M4.34,3.85c-.64.5-.96,1.35-.96,2.54,0,1.01.2,1.76.62,2.27.41.5,1.04.76,1.89.76.46,0,.89-.13,1.3-.4.76-.48,1.14-1.32,1.14-2.52,0-.96-.22-1.72-.67-2.28-.45-.56-1.06-.84-1.84-.84-.57,0-1.06.16-1.46.48M5.52,18.2c-1.27,0-2.42-.38-3.43-1.13-1.02-.75-1.6-1.85-1.75-3.3h3.33c.08.5.29.91.63,1.22.34.31.8.47,1.37.47,1.1,0,1.87-.61,2.32-1.83.24-.67.39-1.65.46-2.94-.31.38-.63.68-.97.88-.62.38-1.39.56-2.31.56-1.35,0-2.55-.47-3.6-1.4C.52,9.8,0,8.45,0,6.7S.53,3.41,1.58,2.28C2.63,1.15,3.99.59,5.67.59c2.58,0,4.36,1.14,5.32,3.43.55,1.3.82,3,.82,5.12s-.26,3.77-.78,5.14c-1,2.62-2.83,3.92-5.5,3.92"/>
  <path class="st1" d="M17.85,3.85c-.64.5-.96,1.35-.96,2.54,0,1.01.2,1.76.61,2.27.41.5,1.04.76,1.89.76.46,0,.89-.13,1.3-.4.76-.48,1.14-1.32,1.14-2.52,0-.96-.22-1.72-.67-2.28-.45-.56-1.06-.84-1.84-.84-.57,0-1.06.16-1.46.48M19.02,18.2c-1.27,0-2.42-.38-3.43-1.13-1.02-.75-1.6-1.85-1.75-3.3h3.33c.08.5.29.91.63,1.22.34.31.8.47,1.37.47,1.1,0,1.87-.61,2.32-1.83.24-.67.39-1.65.46-2.94-.3.38-.63.68-.97.88-.62.38-1.39.56-2.31.56-1.35,0-2.55-.47-3.6-1.4-1.05-.93-1.57-2.28-1.57-4.03s.52-3.29,1.57-4.42c1.05-1.13,2.41-1.69,4.09-1.69,2.58,0,4.36,1.14,5.32,3.43.55,1.3.82,3,.82,5.12s-.26,3.77-.78,5.14c-1,2.62-2.83,3.92-5.5,3.92"/>
  <path class="st1" d="M45.2,17.28c-.95.58-2.12.88-3.51.88-2.29,0-4.16-.79-5.62-2.38-1.52-1.59-2.28-3.77-2.28-6.53s.77-5.03,2.31-6.72c1.54-1.69,3.57-2.53,6.1-2.53,2.19,0,3.96.56,5.29,1.67,1.33,1.11,2.09,2.5,2.29,4.16h-3.55c-.27-1.18-.94-2-2-2.47-.59-.26-1.25-.39-1.98-.39-1.39,0-2.53.52-3.42,1.57-.89,1.05-1.34,2.63-1.34,4.74s.48,3.63,1.45,4.51c.97.88,2.07,1.32,3.3,1.32s2.2-.35,2.97-1.05c.77-.7,1.25-1.61,1.43-2.74h-3.99v-2.88h7.19v9.26h-2.39l-.36-2.15c-.69.82-1.32,1.4-1.87,1.73"/>
  <path class="st1" d="M60.7,10.05c-.06-.88-.32-1.55-.8-2.01-.48-.46-1.08-.68-1.79-.68-.77,0-1.37.24-1.8.72-.43.48-.69,1.14-.8,1.97h5.19ZM64,13.96c-.09.76-.48,1.53-1.18,2.31-1.09,1.24-2.62,1.86-4.59,1.86-1.62,0-3.06-.52-4.3-1.57-1.24-1.05-1.86-2.75-1.86-5.11,0-2.21.56-3.9,1.68-5.08s2.57-1.77,4.36-1.77c1.06,0,2.02.2,2.87.6.85.4,1.55,1.03,2.11,1.89.5.76.82,1.64.97,2.64.09.59.12,1.43.1,2.53h-8.74c.05,1.28.45,2.18,1.21,2.69.46.32,1.01.48,1.66.48.69,0,1.25-.19,1.67-.59.23-.21.44-.5.62-.88h3.41Z"/>
  <path class="st1" d="M72.73,8.02c-1.34,0-2.24.44-2.71,1.31-.26.49-.39,1.25-.39,2.27v6.1h-3.36V4.94h3.19v2.23c.51-.85.96-1.43,1.35-1.74.62-.52,1.44-.78,2.43-.78.06,0,.11,0,.16,0,.04,0,.14.01.29.02v3.42c-.21-.02-.4-.04-.56-.05-.16,0-.3-.01-.4-.01"/>
  <path class="st1" d="M81.73,8.02c-1.34,0-2.24.44-2.71,1.31-.26.49-.39,1.25-.39,2.27v6.1h-3.36V4.94h3.19v2.23c.51-.85.96-1.43,1.35-1.74.62-.52,1.44-.78,2.43-.78.06,0,.11,0,.16,0,.04,0,.14.01.29.02v3.42c-.21-.02-.4-.04-.56-.05-.16,0-.3-.01-.4-.01"/>
  <path class="st1" d="M87.45,15.29c.31.26.69.39,1.15.39.72,0,1.38-.21,1.99-.63.61-.42.92-1.19.94-2.31v-1.24c-.21.13-.42.24-.64.32-.21.08-.51.16-.88.23l-.75.14c-.7.12-1.21.28-1.51.46-.51.3-.77.78-.77,1.42,0,.57.16.98.48,1.23M84.97,6.32c.88-1.12,2.4-1.69,4.54-1.69,1.4,0,2.64.28,3.72.83,1.08.55,1.63,1.6,1.63,3.14v5.85c0,.41,0,.9.02,1.48.02.44.09.73.2.89.11.16.27.29.49.39v.49h-3.63c-.1-.26-.17-.5-.21-.73-.04-.22-.07-.48-.09-.77-.46.5-.99.92-1.59,1.28-.72.41-1.53.62-2.43.62-1.16,0-2.11-.33-2.86-.99-.75-.66-1.13-1.6-1.13-2.81,0-1.57.61-2.7,1.82-3.41.66-.38,1.64-.66,2.93-.82l1.14-.14c.62-.08,1.06-.18,1.32-.29.48-.2.71-.52.71-.95,0-.52-.18-.89-.54-1.08-.36-.2-.9-.3-1.6-.3-.79,0-1.35.2-1.68.59-.23.29-.39.68-.47,1.17h-3.22c.07-1.12.38-2.03.94-2.75"/>
  <path class="st1" d="M104.06,8.02c-1.34,0-2.24.44-2.71,1.31-.26.49-.39,1.25-.39,2.27v6.1h-3.36V4.94h3.19v2.23c.51-.85.96-1.43,1.35-1.74.62-.52,1.44-.78,2.44-.78.06,0,.11,0,.16,0,.04,0,.14.01.29.02v3.42c-.21-.02-.4-.04-.56-.05-.16,0-.3-.01-.4-.01"/>
  <path class="st1" d="M109.42,11.41c0,1.18.23,2.12.7,2.82.46.71,1.16,1.07,2.11,1.07s1.66-.35,2.15-1.05c.49-.7.74-1.61.74-2.73,0-1.56-.39-2.68-1.18-3.35-.48-.4-1.05-.61-1.69-.61-.98,0-1.69.37-2.15,1.11-.46.74-.68,1.65-.68,2.75M118.42.47v17.24h-3.24v-1.77c-.48.76-1.02,1.31-1.63,1.65-.61.34-1.37.51-2.27.51-1.49,0-2.75-.6-3.76-1.81-1.02-1.21-1.53-2.75-1.53-4.64,0-2.18.5-3.89,1.5-5.14,1-1.25,2.35-1.87,4.02-1.87.77,0,1.46.17,2.06.51.6.34,1.09.81,1.46,1.41V.47h3.38Z"/>
  <rect class="st0" x="0" y="0" width="118.42" height="18.2"/>
</svg>