<?xml version="1.0" encoding="UTF-8"?>
<svg id="Layer_1" data-name="Layer 1" xmlns="http://www.w3.org/2000/svg" xmlns:xlink="http://www.w3.org/1999/xlink" viewBox="0 0 1228.31 410.9">
  <defs>
    <style>
      .cls-1 {
        fill: none;
      }

      .cls-2 {
        clip-path: url(#clippath-1);
      }

      .cls-3 {
        clip-path: url(#clippath-2);
      }

      .cls-4 {
        fill: #8c8e90;
      }

      .cls-5 {
        clip-path: url(#clippath);
      }
    </style>
    <clipPath id="clippath">
      <rect class="cls-1" width="1228.31" height="410.9"/>
    </clipPath>
    <clipPath id="clippath-1">
      <rect class="cls-1" width="1228.31" height="410.9"/>
    </clipPath>
    <clipPath id="clippath-2">
      <rect class="cls-1" width="1228.31" height="410.9"/>
    </clipPath>
  </defs>
  <g class="cls-5">
    <path class="cls-4" d="M895.45,195.91c-.36-.04-.58-.13-.73-.06-11.99,4.78-23.99,9.55-35.93,14.46-.75.32-1.46,1.72-1.49,2.63-.17,3.72-.07,7.44-.07,11.15v12.97h38.23v-41.16Z"/>
    <path class="cls-4" d="M307.72,195.91c-.35-.04-.58-.13-.75-.06-11.99,4.78-23.99,9.55-35.95,14.46-.75.32-1.46,1.72-1.49,2.63-.17,3.72-.07,7.44-.07,11.15v12.97h38.26v-41.16Z"/>
    <path class="cls-4" d="M56.56,300.4c-7.77,0-18.68-.21-18.68-.21v-74.3s11.6.43,22.08.43c26.42,0,42.52,12.37,42.52,35.39,0,24.49-17.39,38.69-45.92,38.69M119.93,214.09c-13.3-11.23-33.65-17.1-61.51-17.1C32.78,196.99,0,197.87,0,197.87v209.63h37.87v-77.35s11.55-.02,18.68-.02c27.05,0,50.67-7.29,66.03-22.49,11.62-11.21,17.81-27.52,17.81-47.31s-8-36.04-20.46-46.24"/>
    <path class="cls-4" d="M784.5,287.43h-1.08l.07-28.17-31.89,12.98c-1.27.52-2.09,1.76-2.07,3.12l.69,132.15h38.17v-76.88c0-4.04.34-8,.97-11.3,3.42-17,16.03-28.36,34.19-28.36,4.61,0,7.94.39,11.19,1.06v-35.31c-3.05-.67-5.23-.8-8.95-.8-16.27,0-33.85,10.63-41.29,31.52"/>
    <path class="cls-4" d="M193.7,287.43h-1.06l.06-28.17-31.87,12.98c-1.27.52-2.11,1.76-2.09,3.12l.69,132.15h38.17v-76.88c0-4.04.34-8,.97-11.3,3.42-17,16.03-28.36,34.21-28.36,4.6,0,7.92.39,11.19,1.06v-35.31c-3.06-.67-5.23-.8-8.95-.8-16.29,0-33.87,10.63-41.31,31.52"/>
  </g>
  <rect class="cls-4" x="269.8" y="256.61" width="38.17" height="150.87"/>
  <g class="cls-2">
    <path class="cls-4" d="M516.59,253.21c-12.57,0-22.08,3.08-30.66,8.87-6.84,4.37-13.19,10.69-18.46,18.96h-.62c-6.48-16.72-21.88-27.84-41.87-27.84-25.45,0-39.16,13.86-46.45,25.58h-.88l.09-22.18-33.56,13.47.36,137.42h37.22v-89.19c0-4.28.54-8.78,1.89-12.61,3.61-10.33,13.15-21.56,27.46-21.56,17.54,0,26.03,14.87,26.03,36.11v87.25h37.2v-90.54c0-4.26.73-9.08,1.94-12.74,3.92-10.87,13.47-20.08,26.53-20.08,18.2,0,26.92,14.76,26.92,39.91v83.46h37.2v-88.82c0-48.39-25.41-65.47-50.35-65.47"/>
    <path class="cls-4" d="M679.76,354.45c0,2.65-.24,5.66-1.08,8.3-3.64,11.06-14.61,20.89-29.84,20.89-12.07,0-21.77-6.97-21.77-21.75,0-22.96,25.76-28.64,52.69-28.29v20.85ZM654.66,253.21c-23.75,0-43.29,6.46-54.69,13.4l7.57,24.76c10.28-6.48,25.78-11.25,40.54-11.25,26.72-.11,30.66,16.39,30.66,26.29v2.5c-55.58-.22-89.51,19.06-89.51,57.13,0,23,16.96,44.86,47.57,44.86,19.52,0,35.33-8.3,44.47-20.2h.92l-.36,16.8h34.99l.04-90.67c0-33.11-13.81-63.62-62.2-63.62"/>
  </g>
  <rect class="cls-4" x="857.47" y="256.61" width="38.19" height="150.87"/>
  <g class="cls-3">
    <path class="cls-4" d="M991.16,317.44c-19.06-6.95-26.34-11.56-26.34-21.13s7.57-15.99,21.13-15.99,25.56,5.08,31.91,8.69l7.57-26.77c-8.86-4.86-23.39-9.01-40.02-9.01-35.2,0-57.25,20.68-57.25,47.19-.15,17.88,12.16,33.95,41.7,44.07,18.55,6.6,24.77,11.77,24.77,21.99s-7.49,16.93-24.29,16.93c-13.66,0-30.08-5.79-38.49-11l-7.68,27.78c11.12,6.18,27.71,10.56,45.96,10.56,39.85,0,61.28-19.84,61.28-47.36-.13-22.23-12.82-36.25-40.26-45.94"/>
    <path class="cls-4" d="M1049.97,171.76v35.89c0,10.24,9.79,17.64,19.64,14.85l31.99-9.04.64-.19-15.73-34.43-36.53-7.08Z"/>
    <path class="cls-4" d="M1216.89,40.35L1069.43.54c-9.81-2.65-19.47,4.75-19.47,14.91v98.29l102.72-40.28c2.19-.84,4.47-1.27,6.78-1.27,5.4,0,10.52,2.35,14.07,6.48,3.51,4.09,5.06,9.51,4.22,14.87l-15.81,102.83.69-.19,54.44-15.39c6.63-1.87,11.23-7.96,11.23-14.85V55.26c0-6.99-4.67-13.1-11.42-14.91"/>
    <path class="cls-4" d="M1159.47,81.4c-1.12,0-2.28.21-3.42.65l-106.08,41.61-38.26,15c-8.09,3.18-7.02,14.95,1.51,16.59l36.75,7.12,40.45,7.85c1.57.3,2.88,1.33,3.53,2.77l17.24,37.76,17.3,37.83c1.57,3.46,4.71,5.08,7.83,5.08,3.96,0,7.9-2.6,8.63-7.36l7.25-47.14,16.46-107.02c.9-5.89-3.77-10.74-9.19-10.74"/>
  </g>
</svg>