<?xml version="1.0" encoding="UTF-8"?>
<svg id="Layer_1" data-name="Layer 1" xmlns="http://www.w3.org/2000/svg" xmlns:xlink="http://www.w3.org/1999/xlink" viewBox="0 0 1122.29 410.9">
  <defs>
    <style>
      .cls-1 {
        fill: none;
      }

      .cls-2 {
        clip-path: url(#clippath-1);
      }

      .cls-3 {
        clip-path: url(#clippath-2);
      }

      .cls-4 {
        fill: #8c8e90;
      }

      .cls-5 {
        clip-path: url(#clippath);
      }
    </style>
    <clipPath id="clippath">
      <rect class="cls-1" width="1122.29" height="410.9"/>
    </clipPath>
    <clipPath id="clippath-1">
      <rect class="cls-1" width="1122.29" height="410.9"/>
    </clipPath>
    <clipPath id="clippath-2">
      <rect class="cls-1" width="1122.29" height="410.9"/>
    </clipPath>
  </defs>
  <g class="cls-5">
    <path class="cls-4" d="M568.97,126.39c15.05.41,26.22-2.35,32.57-5.66l1.37-18.63-3.03-.28-4.41,12.01c-5.39,4.55-15.46,7.32-20.85,7.03-19.61-.96-28.16-19.72-26.92-41.53,1.25-21.67,10.89-37.27,24.97-37.95,11.74-.57,19.47,3.86,22.36,6.07,0,0,2.48,11.58,2.48,11.46l3.05.27,1.79-17.53s-8.83-6.21-31.06-5.94c-29.4.96-41.27,22.22-41.82,44.03-.82,31.88,17.26,46.24,39.48,46.65"/>
    <path class="cls-4" d="M655.93,106.92c-1.26,10.23-8.85,12.98-12.98,12.98-5.39,0-8.28-3.16-8.98-9.66-1.09-10.91,5.66-13.8,9.39-14.76,5.78-1.52,12.98-1.11,12.98-1.11,0-.7.14,8-.41,12.55M640.6,90.64c-11.32,1.8-23.19,8.42-21.95,20.85.98,9.8,9.4,15.03,18.63,14.76,9.96-.27,16.85-5.8,18.92-11.58l1.11,10.76s18.21-1.53,23.88-1.53v-2.61l-10.08-3.18v-31.88c0-6.35,0-10.91-3.87-15.47-6.07-7.16-20.28-6.21-22.63-6.21-7.03,0-15.73,2.62-23.04,9.26l7.46,9.93c2.89-5.25,7.3-14.62,15.87-14.49,5.78.14,11.32,3.6,11.46,11.46v8.83c-6.21,0-11.46.41-15.74,1.11"/>
    <path class="cls-4" d="M698.84,118.38l-8.96,3.18v2.48h32.7v-2.48l-8.57-3.18v-26.09c0-6.76.43-8.96,1.8-12.83,2.35-6.62,8.16-10.34,12.01-10.34,5.66,0,7.87,1.93,9.67,6.2,1.38,3.46,1.22,8.3,1.22,18.36v24.7l-9.37,3.18v2.48h35.05v-2.48l-10.21-3.18v-29.13c0-15.31.96-25.52-19.6-25.81-13.24-.13-18.63,7.6-20.85,10.62l-1.23-9.23-23.06,2.34v2.48l9.39,2.62v46.1Z"/>
    <path class="cls-4" d="M813.82,106.92c-1.25,10.23-8.83,12.98-12.98,12.98-5.39,0-8.28-3.16-8.98-9.66-1.11-10.91,5.66-13.8,9.39-14.76,5.78-1.52,12.98-1.11,12.98-1.11,0-.7.14,8-.41,12.55M798.49,90.64c-11.32,1.8-23.19,8.42-21.95,20.85.98,9.8,9.4,15.03,18.63,14.76,9.96-.27,16.85-5.8,18.92-11.58l1.11,10.76s18.22-1.53,23.88-1.53v-2.61l-10.08-3.18v-31.88c0-6.35,0-10.91-3.87-15.47-6.05-7.16-20.28-6.21-22.62-6.21-7.05,0-15.74,2.62-23.06,9.26l7.44,9.93c2.91-5.25,7.33-14.62,15.88-14.49,5.8.14,11.32,3.6,11.46,11.46v8.83c-6.21,0-11.46.41-15.74,1.11"/>
    <path class="cls-4" d="M880.75,68.7c9.67.55,13.94,9.66,13.94,25.81,0,19.74-10.21,26.77-15.33,26.77-10.34,0-14.07-11.32-13.66-26.36.41-14.49,4.55-26.77,15.05-26.22M877.16,126.53c9.39-.55,15.6-8.28,17.12-12.56l.96,11.46s18.36-1.37,23.88-1.25v-2.47l-10.08-3.6V28.26l-24.56,2.07v2.48l10.07,2.62v37.96c-3.3-5.94-8.83-8.83-16.01-9.25-17.38-.41-29.11,9.39-29.81,29.52-.7,18.36,7.46,33.95,28.43,32.86"/>
    <path class="cls-4" d="M945.48,50.76c4.57,0,8.55-4.28,8.55-8.55s-3.98-8.57-8.55-8.57-8.55,4.28-8.55,8.57,4,8.55,8.55,8.55"/>
  </g>
  <polygon class="cls-4" points="939.4 118.25 930.3 121.55 930.3 124.05 963.14 124.05 963.14 121.55 954.04 118.25 954.04 64.83 929.34 66.9 929.34 69.4 939.4 72.02 939.4 118.25"/>
  <g class="cls-2">
    <path class="cls-4" d="M1013.81,106.92c-1.25,10.23-8.85,12.98-12.98,12.98-5.39,0-8.28-3.16-8.98-9.66-1.11-10.91,5.66-13.8,9.39-14.76,5.78-1.53,12.96-1.11,12.96-1.11,0-.7.16,8-.4,12.55M1028.98,86.23c0-6.35,0-10.91-3.86-15.47-6.08-7.16-20.29-6.21-22.63-6.21-7.05,0-15.74,2.62-23.04,9.26l7.43,9.93c2.91-5.25,7.33-14.62,15.87-14.49,5.8.14,11.33,3.6,11.46,11.46v8.83c-6.21,0-11.46.41-15.73,1.11-11.32,1.8-23.19,8.42-21.95,20.85.98,9.78,9.4,15.03,18.63,14.76,9.94-.27,16.85-5.8,18.92-11.6l1.11,10.78s18.22-1.53,23.88-1.53v-2.62l-10.08-3.16v-31.88Z"/>
    <path class="cls-4" d="M1112.06,118.38v-29.13c0-15.31.98-25.52-19.6-25.81-13.26-.13-18.62,7.6-20.83,10.62l-1.25-9.23-23.04,2.34v2.48l9.39,2.62v46.1l-8.98,3.18v2.48h32.72v-2.48l-8.57-3.18v-26.09c0-6.76.41-8.96,1.8-12.83,2.34-6.62,8.14-10.34,12.01-10.34,5.66,0,7.85,1.93,9.66,6.2,1.37,3.46,1.23,8.3,1.23,18.36v24.7l-9.37,3.18v2.48h35.05v-2.48l-10.23-3.18Z"/>
    <path class="cls-4" d="M599.88,222.59l-4.41,12c-5.39,4.57-15.46,7.32-20.85,7.05-19.6-.98-28.15-19.74-26.91-41.55,1.25-21.67,10.91-37.27,24.99-37.95,11.73-.57,19.46,3.87,22.35,6.07,0,0,2.5,11.58,2.5,11.46l3.03.27,1.8-17.53s-8.85-6.21-31.07-5.94c-29.4.98-41.25,22.24-41.82,44.03-.82,31.89,17.26,46.24,39.48,46.65,15.05.41,26.22-2.35,32.57-5.66l1.38-18.63-3.03-.27Z"/>
    <path class="cls-4" d="M643.36,216.25c5.8-1.52,12.98-1.11,12.98-1.11,0-.7.14,8-.41,12.55-1.25,10.21-8.83,12.98-12.98,12.98-5.37,0-8.27-3.18-8.98-9.66-1.09-10.91,5.66-13.8,9.39-14.76M637.29,247.02c9.94-.28,16.83-5.8,18.92-11.6l1.09,10.76s18.22-1.52,23.88-1.52v-2.62l-10.08-3.18v-31.86c0-6.35,0-10.92-3.86-15.47-6.07-7.18-20.29-6.21-22.63-6.21-7.03,0-15.74,2.62-23.06,9.25l7.46,9.94c2.89-5.25,7.32-14.63,15.87-14.49,5.8.14,11.33,3.59,11.46,11.46v8.83c-6.21,0-11.46.41-15.73,1.11-11.32,1.79-23.19,8.41-21.95,20.83.96,9.8,9.39,15.05,18.63,14.78"/>
    <path class="cls-4" d="M698.84,239.15l-8.96,3.18v2.48h32.7v-2.48l-8.57-3.18v-26.09c0-6.76.43-8.96,1.8-12.83,2.35-6.62,8.16-10.34,12.01-10.34,5.66,0,7.87,1.93,9.67,6.2,1.38,3.46,1.22,8.3,1.22,18.36v24.7l-9.37,3.18v2.48h35.05v-2.48l-10.21-3.18v-29.13c0-15.31.96-25.52-19.6-25.81-13.24-.13-18.63,7.6-20.85,10.64l-1.23-9.25-23.06,2.34v2.48l9.39,2.62v46.1Z"/>
    <path class="cls-4" d="M827.89,235.7l-2.77-3.32c-7.03,6.5-11.44,9.66-18.35,9.53-11.6-.14-15.05-14.49-14.49-27.33.27-7.87,3.73-24.15,15.05-24.84,4.96-.27,8,1.52,10.49,4.69l2.89,9.39,3.18.27,1.5-14.62s-4.27-4.43-17.94-4.57c-16.97-.14-30.63,11.46-31.47,28.99-.96,20.83,10.08,33.54,31.06,33.54,6.91,0,14.22-2.62,20.85-11.73"/>
    <path class="cls-4" d="M870.8,189.18c7.33.55,10.08,10.91,9.94,20.44h-24.42c1.11-9.25,4.55-21.26,14.48-20.44M894.41,235.29l-2.77-3.45c-8.96,8.55-15.17,10.21-19.17,10.07-16.01-.55-16.71-16.01-16.44-27.04h39.07c.96-14.92-7.18-29.13-24.02-29.95-17.67-.84-30.5,10.62-31.45,29.25-.84,22.77,12,33.54,31.74,33.27,10.76-.14,17.38-5.39,23.04-12.15"/>
    <path class="cls-4" d="M943.82,193.33c3.46.27,6.07,2.62,9.25,8l4.98-13.53c-4.43-3.18-10.49-3.02-14.78-2.2-3.03.55-8.42,3.3-12.28,9.25l-1.37-9.25-22.36,2.34v2.48l9.39,2.62v45.55l-8.98,3.73v2.48h35.61v-2.48l-12.01-3.45v-26.09c0-14.08,3.73-20.15,12.56-19.46"/>
    <path class="cls-4" d="M561.24,310.38c-7.59-2.21-16.15-3.73-16.42-12.98-.28-9.1,6.07-13.39,14.22-14.08,8.41-.68,14.48,4.43,17.94,7.73l2.62,9.66,2.75.14,1.11-17.67c-3.73-2.05-14.78-5.1-23.33-4.69-17.53.84-27.33,7.18-28.56,20.7-1.94,20.29,14.48,24.84,22.21,27.2,4.28,1.37,20.29,4.27,19.33,19.6-.68,10.48-7.03,16.28-15.87,16.28-7.18,0-16.42-3.87-20.29-10.21l-3.59-13.53-2.48-.28-1.11,21.54c8.69,5.37,15.46,7.46,25.54,7.73,20.28.54,30.77-9.94,31.88-25.4,1.52-22.49-12.83-27.88-25.95-31.74"/>
    <path class="cls-4" d="M633.71,363.5c-11.33,0-14.92-12.42-14.92-27.33,0-13.81,3.59-25.95,14.92-25.95s14.76,11.46,14.89,25.95c.14,15.6-3.59,27.33-14.89,27.33M633.42,305.67c-18.36,0-31.2,8.42-31.75,29.54-.68,20.15,12.98,32.84,32.04,32.84s32.84-12.69,32.15-32.84c-.55-21.11-13.53-29.54-32.43-29.54"/>
    <path class="cls-4" d="M710.43,362.68c-11.58-.14-15.03-14.49-14.48-27.34.27-7.84,3.71-24.13,15.03-24.83,4.98-.27,8.01,1.53,10.49,4.69l2.89,9.39,3.18.27,1.52-14.62s-4.27-4.43-17.94-4.55c-16.97-.14-30.64,11.44-31.47,28.97-.96,20.85,10.08,33.55,31.06,33.55,6.89,0,14.21-2.64,20.83-11.74l-2.75-3.32c-7.03,6.5-11.46,9.67-18.36,9.53"/>
  </g>
  <polygon class="cls-4" points="767.57 306.37 742.87 308.44 742.87 310.92 752.94 313.55 752.94 359.77 743.83 363.09 743.83 365.57 776.67 365.57 776.67 363.09 767.57 359.77 767.57 306.37"/>
  <g class="cls-3">
    <path class="cls-4" d="M750.47,283.73c0,4.28,4,8.55,8.55,8.55s8.55-4.27,8.55-8.55-4-8.55-8.55-8.55-8.55,4.27-8.55,8.55"/>
    <path class="cls-4" d="M820.16,309.96c7.3.54,10.08,10.89,9.94,20.44h-24.42c1.09-9.26,4.54-21.26,14.48-20.44M844.45,335.62c.96-14.9-7.18-29.13-24.02-29.95-17.65-.82-30.49,10.62-31.47,29.25-.82,22.79,12.01,33.55,31.75,33.27,10.78-.14,17.38-5.37,23.04-12.14l-2.75-3.46c-8.98,8.57-15.19,10.23-19.19,10.07-16.01-.54-16.71-15.99-16.42-27.04h39.05Z"/>
    <path class="cls-4" d="M885.44,360.33c-3.45-2.61-3.32-8.16-3.32-16.83v-30.5h14.35v-5.12h-14.35v-17.1l-14.9,3.86v13.24h-10.21v5.12h10.21v25.11c.13,11.74-.82,19.33,2.89,24.43,5.26,7.18,22.22,5.52,28.72.7l-1.11-3.73c-4,1.93-9.25,3.16-12.28.82"/>
    <path class="cls-4" d="M952.93,310.09l7.44,2.48c-8.27,20.15-14.76,34.93-14.76,34.93,0,0-14.63-33.82-14.48-33.95l7.18-3.46v-2.2h-32.3v2.2l8.55,3.59c0,.28,23.06,51.89,23.06,51.89,0,0-7.46,15.33-18.51,33.84l11.33,1.37s39.32-87.37,39.32-87.65l8.3-3.03v-2.2h-25.13v2.2Z"/>
    <path class="cls-4" d="M13.32,160.97c2.81-.27,5.63-.52,8.79-.63,30.27-.96,80.22,16.15,106.54,22.6-22.74-5.74-71.37-23.03-76.46-28.73-28.87-17.78-36.18-45.42-36.18-45.42-.96-2.23-1.85-5.26-2.69-8.6l.02-64.92c4.82.46,10.84.52,18.41-.63,13.67-2.04,34.14-2.43,49.59-.6,53.86,6.67,83.64,75.25,83.64,75.25,0,0,1.96,3.03,4.24,6.89-1.75.08-3.62.22-5.67.49-3.6.44-12.23,1.15-21.3,12.83,0,0-11.06,13.94,4.69,35.83,4.38,8.36.38,14.81-3.59,20.17-7.97,9.2-24.78,6.75-26.05,32.35-.33,5.86,3.1,17.05,16.69,20.21,5.66,1.93,9.96,6.23,11.22,9.56,2.1,7.76-.21,12.33-1.19,18.35-.98,6.02-.16,12.63,9.58,21.83,12.45,11.79,35.51-13.1,54.43,1.58,6.81,6.32,7.02,11.25,23.93,11.25,0,0,14.33,1.25,19.66-17.15,1.37-3.68,3.35-6.21,6.2-8.34,2.88-2.17,6.13-3.26,12.64-3.76,19.39-1.47,26.68-7.19,29.14-31.31,2.15-20.67-20.67-21.15-16.66-33.47,4.98-12.64,15.55-1.52,19.25-33.95,1.75-17.21-16.25-25.52-26.79-24.43-5.25.22-11.35,2.86-15.63-8.85-4.77-14.16.17-30.99-23.71-32.62-19.39-1.36-21.11,12.56-35.96,17.21-6.89,2.15-8.76-3.32-17.21-6.21l-8.17-42.21c-2.67-26.61,5.29-46.42,17.73-62.19h127.26c11.24,56.72-27.2,97.48-35.07,105.13,21.76-13.13,49.12-25.08,74.44-22.58,14.05,1.42,27.04,3.86,38.48,6.56v112.53c-36.62,30.87-63.85,29.48-83.4,24.07,41.14,14.1,47.9,26.55,47.9,26.55,17.7,19.42,29,44.82,35.5,63.27v52.17c-7.85.33-19.14.51-35.29,1.26-49.18,2.43-65.89-2.04-65.89-2.04-54.26-9.96-72.57-76.89-72.57-76.89,0,0-1.31-2.72-.85,0,7.82,52.64,2.56,67.47-10.34,84.08-2.89,3.76-5.85,7.06-8.82,10.15h-109.71c-13.47-38.99-11.25-55.54-11.25-55.54,1.75-42.06,25.79-65.49,25.79-65.49l28.45-29.08c-26.08,16.18-60.04,32.72-77,40.25-25.4,11.44-46.37,5.33-46.37,5.33-.13-.02-.25-.05-.4-.06v-132.01ZM227.43,193.94s2.26-1.68,2.34-1.71l.82-.7s4.43-3.1,7.11-4.39c2.21-1.06,6.67-.9,8.72,1.01,1.5,1.36,2.05,3.4,1.5,5.36-.77,2.81-1.71,4.93-4.03,6.7l-5.67,3.9s-2.12,1.37-2.2,1.39l-2.04,1.06s-2.07,1.12-2.99,1.52l4.9,3.67s6.81,5.15,8.39,6.61c1.56,1.45,1.96,4.82.33,6.97-1.96,2.62-5.9,3.76-8.77,2.56-3.71-1.63-10.27-5.96-13.07-9.17-1.42-1.58-3.37-3.73-4.11-3.81-.55.68-.36,3.95-.28,5.18l.08,1.71c0,8.95-1.83,13.83-4.66,15.09-2.58,1.15-4.22,1.37-5.52.95-2.42-.81-3.37-2.29-4.43-5.2-1.49-4.08.47-15.46.95-16.69,0,0-1.71.47-1.66.46l-4.66,1.41s-7.51,2.13-7.59,2.17c-5.88,1.9-8.61,3.86-12.37-.6-.66-1.2-1.75-1.75-1.72-5.52.03-3.24,5.63-6.87,7.9-7.81l10.75-4.12,1.36-.46.55-.25s-.76-.9-.76-.92l-3.03-3.21-3-3.27-.84-.89c-2.32-2.39-5.25-5.36-5.47-9.83-.05-2.54.82-4.66,2.48-5.93,1.63-1.23,3.86-1.55,6.24-.85,4.41,1.3,7.24,4.96,10.53,9.23l2.61,3.65s2.54,3.54,3.33,4.11c.82.57,1.85,1.15,2.23,1.01.38-.16,1.15-2.48,1.15-2.48l3.89-10.26c1.15-3.11,4.55-8.71,8.76-9.89,1.58-.3,3.21.24,4.5,1.49,1.58,1.47,2.4,3.78,2.4,6.5,0,.71.03,1.3-.21,2.23-.19.79-4.16,9.23-4.16,9.23,0,0-1.25,2.39-1.55,3.11,0,0-.4.6-.41.63.66-.46,1.36-.95,1.36-.95M0,410.9h410.9V0H.02l-.02,410.9Z"/>
  </g>
</svg>