<?xml version="1.0" encoding="UTF-8"?>
<svg id="Layer_1" xmlns="http://www.w3.org/2000/svg" xmlns:xlink="http://www.w3.org/1999/xlink" version="1.1" viewBox="0 0 73 73">
  <!-- Generator: Adobe Illustrator 29.1.0, SVG Export Plug-In . SVG Version: 2.1.0 Build 142)  -->
  <defs>
    <style>
      .st0, .st1 {
        fill: none;
      }

      .st2 {
        fill: #9d9fa2;
      }

      .st1 {
        stroke: #9d9fa2;
        stroke-width: .9px;
      }

      .st3 {
        clip-path: url(#clippath-1);
      }

      .st4 {
        clip-path: url(#clippath);
      }
    </style>
    <clipPath id="clippath">
      <rect class="st0" x="13.24" y="13.24" width="46.52" height="46.52"/>
    </clipPath>
    <clipPath id="clippath-1">
      <rect class="st0" x="0" width="73" height="73"/>
    </clipPath>
  </defs>
  <g class="st4">
    <path class="st2" d="M59.76,36.57c0-3.2-2.56-5.73-5.66-5.73s-5.66,2.53-5.66,5.73c0,2.93,2.43,5.6,5.66,5.6s5.66-2.67,5.66-5.6"/>
    <path class="st2" d="M59.76,18.84c0-3.07-2.5-5.6-5.66-5.6s-5.66,2.53-5.66,5.6,2.63,5.73,5.66,5.73,5.66-2.53,5.66-5.73"/>
    <path class="st2" d="M42.17,54.16c0-3.07-2.67-5.73-5.73-5.73s-5.6,2.67-5.6,5.73,2.4,5.6,5.6,5.6,5.73-2.53,5.73-5.6"/>
    <path class="st2" d="M42.17,36.43c0-3.07-2.63-5.6-5.8-5.6s-5.53,2.53-5.53,5.6,2.5,5.73,5.53,5.73,5.8-2.53,5.8-5.73"/>
    <path class="st2" d="M42.17,18.97c0-3.07-2.67-5.73-5.73-5.73s-5.6,2.67-5.6,5.73,2.4,5.6,5.6,5.6,5.73-2.53,5.73-5.6"/>
    <path class="st2" d="M24.57,54.03c0-2.93-2.43-5.6-5.66-5.6s-5.66,2.67-5.66,5.6c0,3.2,2.56,5.73,5.66,5.73s5.66-2.53,5.66-5.73"/>
    <path class="st2" d="M24.57,36.43c0-3.07-2.63-5.6-5.8-5.6s-5.53,2.53-5.53,5.6,2.5,5.73,5.53,5.73,5.8-2.53,5.8-5.73"/>
    <path class="st2" d="M24.57,18.97c0-3.2-2.56-5.73-5.66-5.73s-5.66,2.53-5.66,5.73c0,2.93,2.43,5.6,5.66,5.6s5.66-2.67,5.66-5.6"/>
    <path class="st2" d="M48.43,54.1c0,3.1,2.63,5.66,5.66,5.66s5.66-2.56,5.66-5.66-2.5-5.66-5.66-5.66-5.66,2.56-5.66,5.66"/>
  </g>
  <g class="st3">
    <path class="st1" d="M16.92.45h39.16c9.09,0,16.47,7.38,16.47,16.47v39.16c0,9.09-7.38,16.47-16.47,16.47H16.92C7.83,72.55.45,65.17.45,56.08V16.92C.45,7.83,7.83.45,16.92.45Z"/>
  </g>
</svg>