<?xml version="1.0" encoding="UTF-8"?>
<svg id="Layer_1" xmlns="http://www.w3.org/2000/svg" xmlns:xlink="http://www.w3.org/1999/xlink" version="1.1" viewBox="0 0 17.62 17.62">
  <!-- Generator: Adobe Illustrator 29.1.0, SVG Export Plug-In . SVG Version: 2.1.0 Build 142)  -->
  <defs>
    <style>
      .st0 {
        fill: none;
      }

      .st1 {
        fill: #4c5847;
      }

      .st2 {
        clip-path: url(#clippath);
      }
    </style>
    <clipPath id="clippath">
      <rect class="st0" x="0" y="0" width="17.62" height="17.62"/>
    </clipPath>
  </defs>
  <g class="st2">
    <path class="st1" d="M13.36,9.36c-.67.67-1.57,1.04-2.52,1.04h0s-.01,0-.02,0c-.18,0-.35-.04-.52-.1.06.17.1.34.1.52,0,0,0,.01,0,.02h0c0,.95-.37,1.84-1.04,2.52l-.55.55-.55-.55c-.67-.67-1.04-1.57-1.04-2.52h0s0-.01,0-.02c0-.18.04-.35.1-.52-.17.06-.34.1-.52.1,0,0-.01,0-.02,0h0c-.95,0-1.85-.37-2.52-1.04l-.55-.55.55-.55c.67-.67,1.57-1.04,2.52-1.04h0s.01,0,.02,0c.18,0,.35.04.52.1-.06-.17-.1-.34-.1-.52,0,0,0-.01,0-.02h0c0-.95.37-1.85,1.04-2.52l.55-.55.55.55c.67.67,1.04,1.57,1.04,2.52h0s0,.01,0,.02c0,.18-.04.35-.1.52.17-.06.34-.1.52-.1,0,0,.01,0,.02,0h0c.95,0,1.84.37,2.52,1.04l.55.55-.55.55ZM15.76,6.95l-.55-.55c-.71-.71-1.56-1.22-2.48-1.52-.3-.93-.81-1.78-1.52-2.48l-.55-.55L8.81,0l-1.86,1.85-.55.55c-.71.71-1.22,1.56-1.52,2.48-.93.3-1.78.81-2.48,1.52l-.55.55L0,8.81l1.86,1.86.55.55c.71.71,1.56,1.22,2.48,1.52.3.93.81,1.78,1.52,2.48l.55.55,1.86,1.86,1.86-1.86.55-.55c.71-.71,1.22-1.56,1.52-2.48.93-.3,1.78-.81,2.48-1.52l.55-.55,1.86-1.86-1.86-1.86Z"/>
  </g>
</svg>