<svg width="14" height="15" viewBox="0 0 14 15" fill="none" xmlns="http://www.w3.org/2000/svg">
<mask id="mask0_755_41913" style="mask-type:luminance" maskUnits="userSpaceOnUse" x="0" y="0" width="14" height="15">
<path d="M13.07 0H0V14.33H13.07V0Z" fill="white"/>
</mask>
<g mask="url(#mask0_755_41913)">
<path d="M9.89 9.98C9.89 10.85 10.63 11.57 11.48 11.57C12.33 11.57 13.07 10.85 13.07 9.98C13.07 9.11 12.37 8.39 11.48 8.39C10.59 8.39 9.89 9.11 9.89 9.98ZM3.18 4.37C3.18 3.51 2.43 2.76 1.57 2.76C0.71 2.76 0 3.51 0 4.37C0 5.23 0.67 5.94 1.57 5.94C2.47 5.94 3.18 5.23 3.18 4.37ZM3.18 9.96C3.18 9.1 2.44 8.39 1.55 8.39C0.66 8.39 0 9.1 0 9.96C0 10.82 0.7 11.57 1.55 11.57C2.4 11.57 3.18 10.86 3.18 9.96ZM8.13 1.61C8.13 0.71 7.41 0 6.54 0C5.67 0 4.95 0.71 4.95 1.61C4.95 2.43 5.63 3.18 6.54 3.18C7.45 3.18 8.13 2.43 8.13 1.61ZM8.13 7.18C8.13 6.28 7.41 5.57 6.54 5.57C5.67 5.57 4.95 6.28 4.95 7.18C4.95 8 5.63 8.75 6.54 8.75C7.45 8.75 8.13 8 8.13 7.18ZM8.13 12.72C8.13 11.9 7.45 11.15 6.54 11.15C5.63 11.15 4.95 11.9 4.95 12.72C4.95 13.62 5.67 14.33 6.54 14.33C7.41 14.33 8.13 13.62 8.13 12.72ZM13.07 4.33C13.07 3.47 12.37 2.76 11.48 2.76C10.59 2.76 9.89 3.47 9.89 4.33C9.89 5.19 10.63 5.94 11.48 5.94C12.33 5.94 13.07 5.23 13.07 4.33Z" fill="#4C5847"/>
</g>
</svg>
