<?xml version="1.0" encoding="UTF-8"?>
<svg id="Layer_1" data-name="Layer 1" xmlns="http://www.w3.org/2000/svg" xmlns:xlink="http://www.w3.org/1999/xlink" viewBox="0 0 14.07 14.07">
  <defs>
    <style>
      .cls-1 {
        fill: none;
      }

      .cls-2 {
        fill: #4c5847;
      }

      .cls-3 {
        clip-path: url(#clippath);
      }
    </style>
    <clipPath id="clippath">
      <rect class="cls-1" width="14.07" height="14.07"/>
    </clipPath>
  </defs>
  <g class="cls-3">
    <path class="cls-2" d="M0,7.03C0,2.86,3.65-.47,7.92.06c2.71.33,5.01,2.27,5.82,4.87,1.26,4.06-1.32,8.12-5.19,8.98-.5.11-1.01.17-1.52.17v-2.57c.33,0,.65-.03.97-.11,2.48-.55,4.13-3.18,3.26-5.78-.51-1.53-1.86-2.7-3.45-2.97-2.76-.47-5.16,1.62-5.23,4.27-.02.81.53,1.57,1.33,1.69.99.16,1.84-.61,1.84-1.57v-.51c0-.71.57-1.29,1.28-1.29h0c.71,0,1.29.58,1.29,1.29v.36c0,2.21-1.67,4.15-3.88,4.3-2.42.16-4.45-1.76-4.45-4.15"/>
  </g>
</svg>