<?xml version="1.0" encoding="UTF-8" standalone="no"?>
<svg
   id="Layer_1"
   data-name="Layer 1"
   viewBox="0 0 479.77999 164.99001"
   version="1.1"
   sodipodi:docname="timeline.svg"
   width="479.78"
   height="164.99001"
   inkscape:version="1.4.2 (f4327f4, 2025-05-13)"
   xmlns:inkscape="http://www.inkscape.org/namespaces/inkscape"
   xmlns:sodipodi="http://sodipodi.sourceforge.net/DTD/sodipodi-0.dtd"
   xmlns="http://www.w3.org/2000/svg"
   xmlns:svg="http://www.w3.org/2000/svg">
  <sodipodi:namedview
     id="namedview23"
     pagecolor="#ffffff"
     bordercolor="#000000"
     borderopacity="0.25"
     inkscape:showpageshadow="2"
     inkscape:pageopacity="0.0"
     inkscape:pagecheckerboard="true"
     inkscape:deskcolor="#d1d1d1"
     inkscape:zoom="6.829708"
     inkscape:cx="268.23987"
     inkscape:cy="96.856263"
     inkscape:window-width="3840"
     inkscape:window-height="2054"
     inkscape:window-x="-11"
     inkscape:window-y="-11"
     inkscape:window-maximized="1"
     inkscape:current-layer="Layer_1" />
  <defs
     id="defs7">
    <style
       id="style1">
      .cls-1, .cls-2, .cls-3, .cls-4, .cls-5, .cls-6 {
        fill: none;
      }

      .cls-2 {
        stroke-dasharray: 56.76 1.26;
      }

      .cls-2, .cls-3, .cls-4 {
        stroke-width: 23px;
      }

      .cls-2, .cls-5, .cls-6 {
        stroke: #4b5846;
      }

      .cls-3 {
        stroke: #fff;
      }

      .cls-7 {
        clip-path: url(#clippath-1);
      }

      .cls-8 {
        clip-path: url(#clippath-2);
      }

      .cls-9 {
        clip-path: url(#clippath-7);
      }

      .cls-10 {
        clip-path: url(#clippath-6);
      }

      .cls-11 {
        clip-path: url(#clippath-8);
      }

      .cls-4 {
        stroke: #c9d2be;
        stroke-dasharray: 5.11 4.11;
      }

      .cls-12 {
        fill: #fff;
      }

      .cls-5 {
        stroke-width: 2px;
      }

      .cls-13 {
        fill: #4b5846;
      }

      .cls-6 {
        stroke-width: 6px;
      }

      .cls-14 {
        clip-path: url(#clippath);
      }
    </style>
    <clipPath
       id="clippath">
      <rect
         class="cls-1"
         x="-2.03"
         y="-465.16"
         width="612"
         height="792"
         id="rect1" />
    </clipPath>
    <clipPath
       id="clippath-1">
      <rect
         class="cls-1"
         x="-8.2399998"
         y="-437.57999"
         width="612"
         height="792"
         id="rect2" />
    </clipPath>
    <clipPath
       id="clippath-2">
      <rect
         class="cls-1"
         x="-8.2399998"
         y="-437.57999"
         width="612"
         height="792"
         id="rect3" />
    </clipPath>
    <clipPath
       id="clippath-6">
      <rect
         class="cls-1"
         x="-8.2399998"
         y="-437.57999"
         width="612"
         height="792"
         id="rect4" />
    </clipPath>
    <clipPath
       id="clippath-7">
      <rect
         class="cls-1"
         x="-8.2399998"
         y="-437.57999"
         width="612"
         height="792"
         id="rect5" />
    </clipPath>
    <clipPath
       id="clippath-8">
      <rect
         class="cls-1"
         x="-8.2399998"
         y="-437.57999"
         width="612"
         height="792"
         id="rect6" />
    </clipPath>
    <clipPath
       id="clippath-9">
      <rect
         class="cls-1"
         x="318.51999"
         y="-61.549999"
         width="612"
         height="792"
         id="rect7" />
    </clipPath>
  </defs>
  <g
     id="timeline"
     transform="translate(2.03,-26.15)">
    <g
       class="cls-14"
       clip-path="url(#clippath)"
       id="g23">
      <g
         class="cls-7"
         clip-path="url(#clippath-1)"
         id="g22">
        <g
           class="cls-8"
           clip-path="url(#clippath-2)"
           id="g7">
          <line
             class="cls-2"
             x1="-471.79001"
             y1="108.64"
             x2="455.31"
             y2="108.64"
             id="line7" />
        </g>
        <line
           class="cls-3"
           x1="275.04001"
           y1="108.64"
           x2="455.31"
           y2="108.64"
           id="line8" />
        <line
           class="cls-4"
           x1="275.04001"
           y1="108.64"
           x2="455.31"
           y2="108.64"
           id="line9" />
        <line
           class="cls-5"
           x1="395.22"
           y1="30.15"
           x2="395.22"
           y2="102.65"
           id="line10" />
        <g
           class="cls-10"
           clip-path="url(#clippath-6)"
           id="g13">
          <path
             class="cls-13"
             d="m 395.22,26.15 c -2.21,0 -4,1.79 -4,4 0,2.21 1.79,4 4,4 2.21,0 4,-1.79 4,-4 0,-2.21 -1.79,-4 -4,-4"
             id="path10" />
          <path
             class="cls-12"
             d="m 414.66,108.64 c 0,-10.72 -8.72,-19.44 -19.44,-19.44 -10.72,0 -19.44,8.72 -19.44,19.44 0,10.72 8.72,19.44 19.44,19.44 10.72,0 19.44,-8.72 19.44,-19.44"
             id="path11" />
          <path
             class="cls-6"
             d="m 414.66,108.64 c 0,-10.72 -8.72,-19.44 -19.44,-19.44 -10.72,0 -19.44,8.72 -19.44,19.44 0,10.72 8.72,19.44 19.44,19.44 10.72,0 19.44,-8.72 19.44,-19.44 z"
             id="path12" />
          <path
             class="cls-12"
             d="m 402.7,108.64 c 0,-4.13 -3.36,-7.49 -7.48,-7.49 -4.12,0 -7.49,3.36 -7.49,7.49 0,4.13 3.36,7.49 7.49,7.49 4.13,0 7.48,-3.36 7.48,-7.49"
             id="path13" />
          <circle
             class="cls-6"
             cx="395.22"
             cy="108.64"
             r="7.4899998"
             id="circle13" />
        </g>
        <line
           class="cls-5"
           x1="455.31"
           y1="114.64"
           x2="455.31"
           y2="187.14"
           id="line13" />
        <g
           class="cls-9"
           clip-path="url(#clippath-7)"
           id="g17">
          <path
             class="cls-13"
             d="m 455.31,183.14 c -2.21,0 -4,1.79 -4,4 0,2.21 1.79,4 4,4 2.21,0 4,-1.79 4,-4 0,-2.21 -1.79,-4 -4,-4"
             id="path14" />
          <path
             class="cls-12"
             d="m 474.75,108.64 c 0,-10.72 -8.72,-19.44 -19.44,-19.44 -10.72,0 -19.44,8.72 -19.44,19.44 0,10.72 8.72,19.44 19.44,19.44 10.72,0 19.44,-8.72 19.44,-19.44"
             id="path15" />
          <path
             class="cls-6"
             d="m 474.75,108.64 c 0,-10.72 -8.72,-19.44 -19.44,-19.44 -10.72,0 -19.44,8.72 -19.44,19.44 0,10.72 8.72,19.44 19.44,19.44 10.72,0 19.44,-8.72 19.44,-19.44 z"
             id="path16" />
          <path
             class="cls-12"
             d="m 462.79,108.64 c 0,-4.13 -3.36,-7.49 -7.48,-7.49 -4.12,0 -7.49,3.36 -7.49,7.49 0,4.13 3.36,7.49 7.49,7.49 4.13,0 7.48,-3.36 7.48,-7.49"
             id="path17" />
          <circle
             class="cls-6"
             cx="455.31"
             cy="108.64"
             r="7.4899998"
             id="circle17" />
        </g>
        <line
           class="cls-5"
           x1="275.04001"
           y1="114.64"
           x2="275.04001"
           y2="187.14"
           id="line17" />
        <g
           class="cls-11"
           clip-path="url(#clippath-8)"
           id="g21">
          <path
             class="cls-13"
             d="m 275.04,183.14 c -2.21,0 -4,1.79 -4,4 0,2.21 1.79,4 4,4 2.21,0 4,-1.79 4,-4 0,-2.21 -1.79,-4 -4,-4"
             id="path18" />
          <path
             class="cls-12"
             d="m 294.48,108.64 c 0,-10.72 -8.72,-19.44 -19.44,-19.44 -10.72,0 -19.44,8.72 -19.44,19.44 0,10.72 8.72,19.44 19.44,19.44 10.72,0 19.44,-8.72 19.44,-19.44"
             id="path19" />
          <path
             class="cls-6"
             d="m 294.48,108.64 c 0,-10.72 -8.72,-19.44 -19.44,-19.44 -10.72,0 -19.44,8.72 -19.44,19.44 0,10.72 8.72,19.44 19.44,19.44 10.72,0 19.44,-8.72 19.44,-19.44 z"
             id="path20" />
          <path
             class="cls-12"
             d="m 282.52,108.64 c 0,-4.13 -3.36,-7.49 -7.48,-7.49 -4.12,0 -7.49,3.36 -7.49,7.49 0,4.13 3.36,7.49 7.49,7.49 4.13,0 7.48,-3.36 7.48,-7.49"
             id="path21" />
          <circle
             class="cls-6"
             cx="275.04001"
             cy="108.64"
             r="7.4899998"
             id="circle21" />
        </g>
      </g>
    </g>
  </g>
</svg>
