<?xml version="1.0" encoding="UTF-8"?>
<svg id="Layer_1" xmlns="http://www.w3.org/2000/svg" xmlns:xlink="http://www.w3.org/1999/xlink" version="1.1" viewBox="0 0 1056.85 410.9">
  <!-- Generator: Adobe Illustrator 29.1.0, SVG Export Plug-In . SVG Version: 2.1.0 Build 142)  -->
  <defs>
    <style>
      .st0 {
        fill: none;
      }

      .st1 {
        clip-path: url(#clippath-1);
      }

      .st2 {
        fill: #d5d7d8;
      }

      .st3 {
        fill: #8c8e90;
      }

      .st4 {
        clip-path: url(#clippath);
      }
    </style>
    <clipPath id="clippath">
      <rect class="st0" x="0" width="1056.85" height="410.9"/>
    </clipPath>
    <clipPath id="clippath-1">
      <rect class="st0" x="536.39" y="612.29" width="334.47" height="57.17"/>
    </clipPath>
  </defs>
  <polygon class="st3" points="84.46 120.19 66.19 191.7 47.77 120.19 0 120.19 0 237.71 29.74 237.71 29.74 148.1 52.61 237.71 79.55 237.71 102.45 148.1 102.45 237.71 132.19 237.71 132.19 120.19 84.46 120.19"/>
  <g class="st4">
    <path class="st3" d="M226.02,206.61c-3.55,3.9-8.8,5.86-15.74,5.86s-12.72-2.41-16.67-7.25c-3.97-4.83-5.94-13.75-5.94-26.78,0-10.51,1.64-18.22,4.96-23.14,4.38-6.61,10.7-9.93,18.93-9.93,3.63,0,6.91.76,9.85,2.24,2.95,1.5,5.43,3.64,7.46,6.42,1.23,1.66,2.41,4.28,3.52,7.85l32.08-7.14c-4.12-12.39-10.41-21.59-18.89-27.58-8.47-5.99-20.1-8.97-34.91-8.97-18.91,0-33.55,5.22-43.88,15.67-10.34,10.44-15.51,25.37-15.51,44.82,0,14.57,2.93,26.53,8.82,35.89,5.87,9.34,12.86,15.88,20.96,19.58,8.09,3.72,18.52,5.57,31.29,5.57,10.53,0,19.2-1.53,26.01-4.57,6.82-3.05,12.52-7.57,17.11-13.55,4.6-5.97,7.97-13.44,10.11-22.36l-31.83-9.63c-1.6,7.44-4.19,13.1-7.74,17"/>
    <path class="st3" d="M351.85,209.15c-2.57,2.2-6.98,3.31-13.23,3.31h-18.52v-23.81h18.44c6.35,0,10.8,1.06,13.34,3.17,2.53,2.11,3.81,4.9,3.81,8.37,0,3.74-1.29,6.73-3.85,8.95M320.1,144h16.03c5.5,0,9.37.97,11.58,2.9,2.22,1.92,3.33,4.59,3.33,8.01,0,3.69-1.11,6.51-3.33,8.47-2.22,1.94-6.16,2.92-11.82,2.92h-15.8v-22.29ZM367.47,175.19c5.56-1.92,9.78-4.54,12.67-7.85,4.33-4.97,6.5-10.93,6.5-17.88,0-8.28-3.04-15.22-9.11-20.83-6.07-5.62-14.77-8.43-26.09-8.43h-67.97v117.52h62.69c2.66,0,8.09-.53,16.27-1.6,6.14-.8,10.74-2.07,13.79-3.85,4.92-2.83,8.79-6.68,11.62-11.53,2.83-4.87,4.25-10.34,4.25-16.44,0-7.49-2-13.7-5.97-18.64-3.99-4.94-10.2-8.43-18.64-10.46"/>
    <path class="st3" d="M481.09,206.61c-3.55,3.9-8.8,5.86-15.74,5.86s-12.72-2.41-16.67-7.25c-3.97-4.83-5.94-13.75-5.94-26.78,0-10.51,1.64-18.22,4.96-23.14,4.38-6.61,10.7-9.93,18.93-9.93,3.63,0,6.91.76,9.85,2.24,2.95,1.5,5.43,3.64,7.46,6.42,1.23,1.66,2.41,4.28,3.52,7.85l32.08-7.14c-4.12-12.39-10.41-21.59-18.89-27.58-8.47-5.99-20.1-8.97-34.91-8.97-18.91,0-33.55,5.22-43.88,15.67-10.34,10.44-15.51,25.37-15.51,44.82,0,14.57,2.93,26.53,8.82,35.89,5.87,9.34,12.86,15.88,20.96,19.58,8.09,3.72,18.52,5.57,31.29,5.57,10.53,0,19.2-1.53,26.01-4.57,6.82-3.05,12.52-7.57,17.11-13.55,4.6-5.97,7.97-13.44,10.1-22.36l-31.82-9.63c-1.6,7.44-4.19,13.1-7.74,17"/>
    <path class="st3" d="M1048.67,301.3l-30.81-28.92-80.75-13.28,5.86-11.71-6.77-3.39-37.84,75.68c-3.95-6.4-6.81-11.06-7.84-12.77l-6.48,3.89c1.7,2.83,8.41,13.72,16.83,27.35l-.05.12c.05.01.12.05.17.07,2.65,4.28,5.45,8.83,8.32,13.47,6.31,10.23,12.95,20.99,18.84,30.52l-74.81-31.68c-3.33-6.74-19.06-38.62-24.58-50.57l19.04-48.15,20.83,3.47,1.24-7.46-141.92-23.61-35.26-147.94,356.56,155.95-.57,68.97ZM962.26,355.89c-1.04-.43-2.09-.87-3.13-1.32-22.14-9.29-44.46-18.65-52.99-22.25-1.23-2-2.4-3.91-3.53-5.75l.61.31,15.48-30.97,43.56,59.98ZM791.05,315.97l-6-18.95,36.79,6.12c2.78,6.03,8.07,16.96,13.11,27.26-13.33-4.54-37.02-12.21-43.89-14.43M944.81,14.12c6.56,7.42,13.46,15.21,20.51,23.15,16.34,18.44,33.22,37.49,48.13,54.71-7.93,15.67-15.93,31.29-23.94,46.93-8.22,16.07-16.45,32.15-24.59,48.26l-77.65-33.95,57.54-139.11ZM971.86,190.22c8.07-15.98,16.23-31.92,24.38-47.86,8.4-16.4,16.79-32.79,25.1-49.23l1.13-2.27-1.66-1.92c-15.33-17.74-32.87-37.54-49.84-56.69-8.49-9.57-16.78-18.93-24.5-27.69L942.46,0l-62.13,150.19-198.54-86.82,39.96,167.58,118.42,19.71-17.77,44.9-48.29-8.02,10.91,34.44,1.87.6c.44.14,43.56,14.05,52.8,17.51,4.03,8.2,7.16,14.52,7.49,15.17l.61,1.27,87.2,36.94c5.41,8.79,9.43,15.35,10.67,17.44l6.51-3.84c-.77-1.3-2.61-4.34-5.18-8.52l24.48,10.36,2.95-6.97-34.25-14.51c-7-11.39-16.01-25.96-24.43-39.6-.91-1.49-1.83-2.96-2.73-4.42,10.93,4.6,27.11,11.39,43.19,18.14,4.96,2.07,9.87,4.15,14.64,6.14l12.59,17.32,6.12-4.45-5.26-7.23c11.3,4.75,20.35,8.54,24.24,10.2l2.95-6.97c-5.14-2.19-19.29-8.13-35.75-15.04l-53.2-73.24,11.06-22.11,80.78,13.28,41.73,39.17.77-91.23-85-37.18Z"/>
  </g>
  <g class="st1">
    <path class="st2" d="M559.3,633.36c-1.88.91-5.95.81-7.77-.26-2.4-1.4-3.51-5.56-1.66-7.74,2.05-2.4,8.48-2.15,10.65.05,2.05,2.08,1.49,6.63-1.22,7.94M546.73,617.66c-7.3,4.18-8.49,14.09-2.34,19.82,12.45,11.61,33.33-3.93,21.09-17.81-4.92-5.59-12.61-5.54-18.75-2.01"/>
    <path class="st2" d="M553.91,624.57c-3.77.78-3.72,7.27.53,7.99,3.31.56,5.26-.27,5.5-3.81.22-3.17-3.26-4.75-6.03-4.18"/>
    <path class="st2" d="M857.37,631.66c-2.02,3.1-10,3.29-11.34-.36-1.37-3.71.31-7.03,4.32-7.33,1.11-.44,3.13-.43,4.19,0,3.89.43,4.71,4.81,2.84,7.68M854.07,615.42c-12.38-1.97-21.73,13.5-11.73,22.06,2.23,1.91,5.71,3.76,8.67,4.04,17.74,1.64,22.99-22.92,3.06-26.1"/>
    <path class="st2" d="M852.97,624.51c-.39-.06-1.16-.04-1.57,0-3.38.36-5.01,3.67-3.41,6.69,1.17,2.22,5.71,1.77,7.2.1,1.99-2.22.87-6.32-2.21-6.79"/>
    <path class="st3" d="M819.37,664.82c-.19.18-.28.41-.28.67,0,.13.02.26.07.37.05.12.12.22.21.3.09.09.19.15.3.2.12.05.24.07.38.07.25,0,.47-.09.67-.27.19-.19.28-.41.28-.67s-.09-.49-.28-.67c-.18-.19-.4-.29-.66-.29-.27,0-.5.09-.69.28M812.82,659.64c-.36.64-.55,1.64-.55,2.98,0,2.53.77,3.82,2.27,3.82.38,0,.76-.1,1.14-.29l.04-.02v-1.45l-.11.08c-.24.18-.46.27-.66.27-.7,0-1.06-.85-1.06-2.54,0-1.59.36-2.39,1.07-2.39.25,0,.46.11.64.33l.12.14v-1.62l-.04-.02c-.36-.18-.73-.27-1.11-.27-.78,0-1.37.33-1.75.98M779.17,655.13h-1.62v11.2h1.62v-11.2ZM725.28,658.78h-1.5v7.55h1.5v-4.86c0-.28.02-.52.05-.71.03-.19.08-.34.14-.45.06-.11.14-.19.24-.24.1-.05.22-.07.37-.07.27,0,.45.09.56.28.11.2.17.55.17,1.04v5.03h1.51v-5.34c0-.79-.07-1.31-.22-1.59-.27-.49-.72-.74-1.35-.74-.58,0-1.07.28-1.46.82v-.7ZM709.4,658.78h-1.51v7.55h1.51v-7.55ZM691.83,658.78h-.76v1.22h.76v6.33h1.5v-6.33h.75v-1.22h-.75v-2.08h-1.5v2.08ZM658.33,658.78h-1.5v4.97c0,.96.17,1.65.52,2.07.35.42.93.63,1.74.63,1.03,0,1.73-.36,2.06-1.06.16-.36.24-1.05.24-2.11v-4.5h-1.5v5.1c0,.43-.06.74-.17.91-.11.15-.31.23-.6.23s-.47-.09-.58-.26c-.12-.19-.18-.5-.19-.95v-5.03ZM622.13,658.78h-1.5v7.55h1.5v-4.86c0-.28.02-.52.05-.71.03-.19.08-.34.14-.45.06-.11.14-.19.24-.24s.22-.07.37-.07c.27,0,.45.09.56.28.12.2.17.55.17,1.04v5.03h1.51v-5.34c0-.79-.07-1.31-.22-1.59-.27-.49-.72-.74-1.35-.74-.58,0-1.07.28-1.45.82v-.7ZM584.13,656.46c-.55.97-.83,2.47-.83,4.45,0,3.69,1.15,5.56,3.43,5.56.45,0,.87-.1,1.24-.31l.03-.02v-1.51l-.09.04c-.33.15-.62.22-.85.22-1.35,0-2.04-1.36-2.04-4.03,0-.76.04-1.42.12-1.97.08-.55.2-1.01.36-1.36.16-.35.36-.61.61-.78.24-.17.53-.25.87-.25.25,0,.56.09.93.27l.09.05v-1.49l-.03-.02c-.42-.23-.84-.34-1.27-.34-1.15,0-2.01.5-2.57,1.48M559.94,628.75c-.25,3.54-2.19,4.38-5.51,3.81-4.24-.72-4.29-7.22-.52-7.99,2.77-.57,6.25,1.01,6.03,4.18M560.52,625.43c-2.17-2.2-8.6-2.46-10.65-.05-1.85,2.18-.74,6.34,1.66,7.74,1.82,1.06,5.89,1.16,7.77.26,2.72-1.31,3.27-5.86,1.22-7.94M544.4,637.48c-6.15-5.73-4.97-15.64,2.33-19.82,6.14-3.52,13.83-3.57,18.75,2.01,12.24,13.88-8.64,29.41-21.09,17.81M572.71,625.8c-4.37-21.62-42.09-16.12-35.56,8.07,1.32,4.89,3.93,7.21,8.46,9.08,1.4.57,3.14.67,4.35,1.8,1.99,1.85,2.04,5.63,1.92,8.15.13,2.2.26,5.84-.44,7.95-1.1,3.31-8.08,2.12-8.47,4.37-.25,1.47.8,1.7,2.03,1.89,4.26.65,9.2.28,13.56.32,1.79.01,7.06,1.15,6.4-2.21-.26-1.35-4.37-1.59-5.77-2.35-.8-.43-1.53-1.16-1.97-1.97.25-3.25-.99-12.17.55-14.66,1.38-2.24,6.15-3.27,8.32-4.51,5.25-3,7.77-10.18,6.61-15.94M597.15,636.04c0,1.05-.29,1.78-.87,2.21s-1.58.64-3,.64h-6.71v-5.71h6.71c1.42,0,2.42.21,3,.64.58.43.87,1.17.87,2.22M596.2,626.14c0,.47-.07.85-.2,1.14-.13.29-.36.51-.67.67-.32.16-.75.26-1.3.31-.55.05-1.25.07-2.09.07h-5.37v-4.38h5.37c.84,0,1.54.02,2.09.07.55.05.99.15,1.3.31.31.16.54.38.67.67.13.28.2.66.2,1.14M598.18,630.81v-.09c1.1-.28,2.01-.87,2.72-1.74.71-.87,1.07-2.02,1.07-3.45,0-1.18-.19-2.18-.55-3.03-.37-.84-.88-1.52-1.54-2.05-.66-.52-1.44-.91-2.33-1.16-.9-.26-1.88-.38-2.96-.38h-15.03v.57c.5.06.8.17.92.31.12.14.18.33.18.54v22.19c0,.22-.06.41-.18.55-.12.14-.43.25-.92.31v.57h15.22c1.4,0,2.6-.19,3.61-.57,1.01-.38,1.84-.89,2.49-1.52s1.12-1.38,1.42-2.24c.3-.86.45-1.76.45-2.72,0-1.78-.43-3.13-1.28-4.05-.85-.92-1.95-1.6-3.29-2.05M604.97,662.58c0,.94-.07,1.59-.2,1.94-.12.35-.32.52-.62.52s-.5-.17-.63-.53c-.13-.37-.19-1.03-.19-1.97s.06-1.61.19-1.98c.13-.36.33-.53.63-.53s.51.18.63.54c.13.38.19,1.05.19,2.01M606.52,662.62c0-.68-.05-1.27-.14-1.75-.09-.49-.24-.91-.44-1.23-.19-.33-.45-.57-.75-.73-.31-.16-.66-.24-1.07-.24-1.59,0-2.39,1.31-2.39,3.9s.8,3.89,2.39,3.89,2.4-1.29,2.4-3.83M625.32,636.28h-6.55l3.23-8.33,3.31,8.33ZM627.29,643.95h6.55v-.57c-.16,0-.32-.04-.47-.12-.16-.08-.26-.2-.31-.36-.29-.83-.67-1.85-1.14-3.07-.47-1.22-.98-2.52-1.52-3.88-.54-1.37-1.08-2.73-1.62-4.1-.54-1.37-1.03-2.61-1.48-3.74-.45-1.13-.81-2.06-1.09-2.81-.28-.75-.42-1.17-.42-1.26,0-.28.17-.45.52-.47v-.57h-8.24v.57c.34.03.51.19.51.47,0,.16-.21.82-.63,1.98s-.95,2.62-1.6,4.38c-.64,1.76-1.37,3.73-2.19,5.9-.82,2.18-1.62,4.38-2.41,6.6-.05.16-.16.28-.32.36-.16.08-.31.12-.47.12v.57h5.92v-.57c-.08,0-.19-.02-.32-.05-.13-.03-.19-.16-.19-.38,0-.12.05-.32.16-.59.1-.27.22-.56.36-.88.13-.32.26-.64.38-.95.12-.32.2-.59.26-.81h9.15c.08.22.18.49.31.81s.26.64.38.95.22.61.31.88c.09.27.14.47.14.59,0,.22-.07.35-.2.38-.13.03-.24.05-.31.05v.57ZM641.26,658.61c-.62,0-1.12.2-1.5.59-.38.39-.57.9-.57,1.52,0,.45.11.85.31,1.18.21.31.61.7,1.19,1.15.17.13.31.25.42.36.11.1.19.19.24.27.11.16.16.34.16.56,0,.58-.28.86-.88.86-.33,0-.7-.14-1.09-.43l-.1-.08v1.49l.03.02c.41.24.83.36,1.24.36.66,0,1.19-.21,1.59-.62.4-.41.6-.97.6-1.64,0-.47-.1-.87-.29-1.18-.09-.16-.23-.33-.4-.5-.17-.17-.39-.36-.65-.57-.62-.47-.94-.88-.94-1.21,0-.1.02-.21.06-.3.04-.09.1-.17.17-.24.07-.07.16-.12.26-.16.09-.04.2-.06.32-.06.36,0,.69.12,1.02.36l.1.07v-1.45l-.03-.02c-.4-.22-.83-.33-1.25-.33M670.92,623.99c.1-.22.34-.36.71-.43v-.57h-6.55v.57c.26,0,.51.05.75.17.24.11.36.34.36.69,0,.19-.07.57-.2,1.14-.13.57-.3,1.25-.51,2.02-.21.78-.43,1.61-.67,2.48-.24.88-.47,1.72-.69,2.55-.22.83-.42,1.58-.59,2.26-.17.69-.28,1.2-.33,1.55h-.08c-.05-.22-.18-.66-.38-1.31-.2-.65-.43-1.4-.71-2.26-.28-.86-.56-1.76-.85-2.72-.29-.95-.56-1.83-.81-2.64-.25-.81-.46-1.5-.63-2.07-.17-.57-.26-.9-.26-1,0-.35.12-.58.36-.69.24-.11.49-.17.75-.17v-.57h-8.01v.57c.24,0,.47.05.71.17.24.11.35.34.35.69,0,.19-.08.57-.24,1.14-.16.57-.36,1.24-.61,2-.25.76-.52,1.59-.81,2.5s-.57,1.77-.83,2.6c-.26.83-.49,1.57-.69,2.24-.2.66-.32,1.18-.38,1.52h-.08c-.05-.32-.16-.82-.33-1.5-.17-.69-.37-1.44-.59-2.29s-.45-1.71-.69-2.62c-.24-.91-.46-1.75-.67-2.53-.21-.78-.38-1.45-.51-2.02-.13-.57-.2-.92-.2-1.05,0-.35.12-.58.36-.69.24-.11.47-.17.71-.17v-.57h-6.94v.57c.13,0,.26.04.38.12.12.08.2.25.26.5.03.16.17.71.42,1.64.25.93.56,2.07.92,3.4s.76,2.77,1.18,4.31.81,2.97,1.16,4.29c.36,1.32.65,2.44.89,3.36.24.92.36,1.44.36,1.57,0,.32-.36.52-1.07.62v.57h8.17v-.57c-.29-.06-.53-.13-.73-.21-.2-.08-.3-.21-.3-.4,0-.16.08-.52.24-1.09.16-.57.36-1.25.59-2.05s.49-1.65.77-2.57c.28-.92.54-1.79.81-2.62.26-.83.49-1.56.67-2.19.18-.64.3-1.08.36-1.33h.08c.05.26.17.7.36,1.33.18.64.4,1.37.67,2.19.26.83.53,1.7.81,2.62.28.92.53,1.78.77,2.57.24.79.43,1.47.59,2.05.16.57.24.94.24,1.09,0,.32-.38.52-1.14.62v.57h8.32v-.57c-.73-.09-1.1-.3-1.1-.62,0-.09.1-.55.31-1.38.21-.83.49-1.85.83-3.07.34-1.22.7-2.55,1.08-3.98.38-1.43.76-2.79,1.13-4.1.37-1.3.68-2.44.95-3.43s.43-1.63.51-1.95c.11-.35.21-.64.32-.86M675.77,666.33h1.5v-12.31h-1.5v12.31ZM692.53,636.28h-6.55l3.23-8.33,3.31,8.33ZM694.5,643.95h6.55v-.57c-.16,0-.31-.04-.47-.12-.16-.08-.26-.2-.31-.36-.29-.83-.67-1.85-1.14-3.07-.47-1.22-.98-2.52-1.52-3.88-.54-1.37-1.08-2.73-1.62-4.1-.54-1.37-1.03-2.61-1.48-3.74-.45-1.13-.81-2.06-1.09-2.81-.28-.75-.41-1.17-.41-1.26,0-.28.17-.45.51-.47v-.57h-8.24v.57c.34.03.51.19.51.47,0,.16-.21.82-.63,1.98-.42,1.16-.95,2.62-1.6,4.38-.64,1.76-1.37,3.73-2.19,5.9-.82,2.18-1.62,4.38-2.41,6.6-.05.16-.16.28-.31.36-.16.08-.32.12-.47.12v.57h5.92v-.57c-.08,0-.18-.02-.31-.05-.13-.03-.2-.16-.2-.38,0-.12.05-.32.16-.59.11-.27.22-.56.36-.88.13-.32.26-.64.38-.95.12-.32.2-.59.26-.81h9.15c.08.22.19.49.31.81.13.32.26.64.38.95.12.32.22.61.32.88.09.27.14.47.14.59,0,.22-.07.35-.2.38-.13.03-.24.05-.31.05v.57ZM709.58,656.62c0-.27-.1-.5-.29-.7-.19-.19-.43-.29-.69-.29s-.5.1-.71.29c-.19.19-.29.43-.29.69,0,.28.09.52.28.71.19.19.43.29.71.29s.51-.1.71-.29c.19-.19.29-.43.29-.71M723.81,636.28h-6.55l3.24-8.33,3.31,8.33ZM725.78,643.95h6.55v-.57c-.16,0-.31-.04-.47-.12-.16-.08-.26-.2-.32-.36-.29-.83-.67-1.85-1.14-3.07-.47-1.22-.98-2.52-1.52-3.88-.54-1.37-1.08-2.73-1.61-4.1-.54-1.37-1.03-2.61-1.48-3.74-.45-1.13-.81-2.06-1.09-2.81-.27-.75-.41-1.17-.41-1.26,0-.28.17-.45.51-.47v-.57h-8.24v.57c.34.03.52.19.52.47,0,.16-.21.82-.63,1.98-.42,1.16-.95,2.62-1.6,4.38-.65,1.76-1.37,3.73-2.19,5.9-.81,2.18-1.61,4.38-2.41,6.6-.05.16-.16.28-.31.36-.16.08-.31.12-.47.12v.57h5.92v-.57c-.08,0-.19-.02-.32-.05-.13-.03-.2-.16-.2-.38,0-.12.05-.32.16-.59.1-.27.22-.56.36-.88.13-.32.26-.64.37-.95.12-.32.21-.59.26-.81h9.15c.08.22.19.49.32.81.13.32.26.64.38.95.12.32.22.61.31.88.09.27.14.47.14.59,0,.22-.07.35-.2.38-.13.03-.24.05-.32.05v.57ZM743.96,662.48c0-.87.07-1.51.2-1.9.12-.37.31-.55.57-.55.57,0,.85.88.85,2.6,0,.97-.06,1.63-.18,1.96-.11.34-.3.5-.59.5-.31,0-.52-.18-.65-.56-.14-.43-.21-1.12-.21-2.04M742.84,659.62c-.28.65-.43,1.67-.43,3.03,0,1.28.15,2.25.45,2.85.31.62.78.94,1.43.94.54,0,.97-.27,1.28-.8v1.15c0,.55-.06.92-.17,1.11-.1.18-.3.27-.59.27-.55,0-.82-.36-.82-1.11v-.07h-1.45v.29c-.01.66.19,1.2.58,1.59.39.39.93.59,1.61.59,1.03,0,1.73-.34,2.07-1.01.19-.37.28-1,.28-1.94v-7.72h-1.51v.71c-.17-.28-.34-.48-.5-.6-.2-.16-.47-.24-.78-.24-.67,0-1.16.33-1.44.97M757.81,633.47c0,2.19-.45,3.72-1.34,4.59-.89.88-2.37,1.31-4.42,1.31h-2.84v-11.81h2.84c2.05,0,3.53.43,4.42,1.31.9.87,1.34,2.4,1.34,4.59M762.49,637.47c.3-1.27.45-2.6.45-4s-.15-2.73-.45-4c-.31-1.27-.79-2.38-1.46-3.33-.67-.95-1.52-1.72-2.54-2.29-1.03-.57-2.27-.86-3.75-.86h-11.84v.57c.29.03.53.09.73.19.2.09.3.32.3.66v18.09c0,.35-.1.57-.3.67-.2.09-.44.16-.73.19v.57h11.84c1.47,0,2.72-.29,3.75-.86,1.02-.57,1.87-1.33,2.54-2.29.67-.95,1.16-2.06,1.46-3.33M784.92,636.28h-6.55l3.23-8.33,3.31,8.33ZM786.89,643.95h6.55v-.57c-.16,0-.32-.04-.47-.12-.16-.08-.26-.2-.31-.36-.29-.83-.67-1.85-1.14-3.07-.47-1.22-.98-2.52-1.52-3.88-.54-1.37-1.08-2.73-1.62-4.1-.54-1.37-1.03-2.61-1.48-3.74-.45-1.13-.81-2.06-1.09-2.81-.28-.75-.42-1.17-.42-1.26,0-.28.17-.45.52-.47v-.57h-8.24v.57c.34.03.51.19.51.47,0,.16-.21.82-.63,1.98s-.95,2.62-1.6,4.38c-.64,1.76-1.37,3.73-2.19,5.9-.82,2.18-1.62,4.38-2.41,6.6-.05.16-.16.28-.32.36-.16.08-.31.12-.47.12v.57h5.92v-.57c-.08,0-.19-.02-.32-.05-.13-.03-.19-.16-.19-.38,0-.12.05-.32.16-.59.1-.27.22-.56.36-.88s.26-.64.38-.95c.12-.32.2-.59.26-.81h9.15c.08.22.18.49.31.81s.26.64.38.95.22.61.31.88c.09.27.14.47.14.59,0,.22-.07.35-.2.38-.13.03-.24.05-.31.05v.57ZM796.66,666.33h1.5v-5.34c0-.79-.07-1.31-.22-1.59-.27-.49-.72-.74-1.35-.74-.58,0-1.07.28-1.46.82v-.7h-1.5v7.55h1.5v-4.86c0-.28.02-.52.05-.71.03-.19.08-.34.14-.45.06-.11.14-.19.24-.24.1-.05.22-.07.37-.07.27,0,.45.09.56.28.11.2.17.55.17,1.04v5.03ZM817.46,643.95h7.3v-.57c-.32-.03-.58-.09-.79-.19-.21-.09-.32-.32-.32-.67v-18.09c0-.35.11-.57.32-.66s.47-.16.79-.19v-.57h-6.94v.57c.31.03.58.09.79.19s.32.32.32.66v9.38c-.84-1.08-1.68-2.16-2.53-3.24-.84-1.08-1.61-2.06-2.29-2.95-.69-.89-1.24-1.63-1.68-2.21-.43-.59-.65-.91-.65-.98,0-.35.09-.57.28-.66.18-.09.37-.16.55-.19v-.57h-9.39v.57c.29.03.54.09.75.19s.31.32.31.66v18.09c0,.35-.09.57-.29.67-.2.09-.43.16-.69.19v.57h6.74v-.57c-.29-.03-.53-.09-.73-.19-.2-.09-.3-.32-.3-.67v-12.48l.08-.09c1.11,1.59,2.22,3.09,3.35,4.5,1.13,1.42,2.15,2.69,3.06,3.84.91,1.14,1.65,2.1,2.23,2.88.58.78.87,1.31.87,1.59s-.14.46-.41.52c-.28.07-.52.09-.73.09v.57ZM855.18,631.3c-1.49,1.66-6.02,2.11-7.2-.11-1.59-3.01.03-6.33,3.41-6.69.4-.04,1.18-.06,1.57,0,3.08.47,4.19,4.57,2.21,6.79M857.37,631.66c1.56-2.39,1.25-5.82-1.13-7.15-.48-.27-2.08-.92-3.96-.85-1.54.08-3.09.27-4.47,1.07-2.11,1.23-2.81,3.8-1.78,6.59,1.34,3.65,9.32,3.45,11.34.36M851.01,641.52c-2.96-.28-6.44-2.13-8.67-4.04-10-8.56-.64-24.03,11.73-22.06,19.93,3.18,14.68,27.75-3.06,26.1M870.76,626.48c-1.07-11.97-16.31-16.96-26.27-12.67-10.04,4.33-13.82,17.31-6.06,25.62,3.55,3.8,8.86,3.36,11.6,7.78-.29,4.02,1.22,10.2-.06,13.96-.91,2.65-6.25,2.3-7.41,3.46-.54.54-.22,2.04.26,2.49.97.9,3.9.32,5.03.32,3.6-.02,7.45.21,11.01,0,1.09-.07,4.37-.32,5.1-.92,1.04-.86.15-1.91-.76-2.37-2.43-1.22-6.86-.43-7.55-3.98-.53-2.73-.65-9.77.08-12.37,1.37-4.86,4.77-3.94,8.42-5.98,5.5-3.08,7.16-9.35,6.63-15.36"/>
  </g>
</svg>