<?xml version="1.0" encoding="UTF-8"?>
<svg id="Layer_1" data-name="Layer 1" xmlns="http://www.w3.org/2000/svg" xmlns:xlink="http://www.w3.org/1999/xlink" viewBox="0 0 1056.85 180.64">
  <defs>
    <style>
      .cls-1 {
        fill: none;
      }

      .cls-2 {
        fill: #d5d7d8;
      }

      .cls-3 {
        fill: #8c8e90;
      }

      .cls-4 {
        clip-path: url(#clippath);
      }
    </style>
    <clipPath id="clippath">
      <rect class="cls-1" width="1056.85" height="180.63"/>
    </clipPath>
  </defs>
  <g class="cls-4">
    <path class="cls-2" d="M72.39,66.6c-5.95,2.87-18.8,2.56-24.55-.81-7.58-4.41-11.1-17.57-5.24-24.44,6.48-7.59,26.81-6.78,33.65.17,6.47,6.57,4.72,20.95-3.86,25.08M32.68,16.97c-23.06,13.21-26.82,44.52-7.38,62.64,39.34,36.68,105.3-12.4,66.64-56.27-15.55-17.65-39.85-17.49-59.26-6.37"/>
    <path class="cls-2" d="M55.35,38.81c-11.91,2.45-11.75,22.98,1.67,25.25,10.47,1.77,16.62-.86,17.39-12.05.69-10-10.29-15.01-19.06-13.2"/>
    <path class="cls-2" d="M1014.23,61.23c-6.39,9.78-31.59,10.4-35.85-1.12-4.32-11.73.99-22.21,13.64-23.15,3.52-1.4,9.89-1.37,13.24,0,12.3,1.36,14.87,15.21,8.96,24.27M1003.79,9.9c-39.11-6.24-68.65,42.65-37.06,69.71,7.03,6.03,18.03,11.9,27.38,12.77,56.05,5.19,72.66-72.43,9.68-82.48"/>
    <path class="cls-2" d="M1000.3,38.62c-1.23-.18-3.68-.13-4.97,0-10.68,1.12-15.82,11.61-10.79,21.13,3.7,7.02,18.05,5.58,22.74.33,6.27-7.02,2.74-19.98-6.98-21.46"/>
    <path class="cls-3" d="M894.13,165.99c-.59.57-.87,1.29-.87,2.11,0,.42.08.81.22,1.17.16.37.38.69.65.95.27.27.6.48.95.64.37.14.77.22,1.19.22.78,0,1.5-.27,2.11-.85.59-.59.87-1.29.87-2.11s-.29-1.54-.87-2.11c-.57-.6-1.28-.91-2.07-.91-.85,0-1.58.3-2.18.89M873.45,149.63c-1.15,2.02-1.75,5.19-1.75,9.43,0,8.01,2.43,12.08,7.19,12.08,1.21,0,2.41-.31,3.59-.93l.12-.07v-4.59l-.34.25c-.76.56-1.45.85-2.07.85-2.22,0-3.35-2.7-3.35-8.02,0-5.01,1.13-7.54,3.38-7.54.78,0,1.45.34,2.01,1.03l.38.44v-5.13l-.12-.05c-1.12-.57-2.31-.86-3.5-.86-2.48,0-4.34,1.04-5.53,3.1M767.12,135.37h-5.13v35.4h5.13v-35.4ZM596.83,146.92h-4.73v23.86h4.73v-15.37c0-.89.05-1.64.14-2.26.1-.59.25-1.07.44-1.43.2-.35.44-.6.74-.76.31-.16.7-.23,1.16-.23.85,0,1.43.29,1.77.89.35.64.53,1.73.53,3.27l.03,15.89h4.74v-16.88c0-2.49-.22-4.13-.7-5.02-.85-1.55-2.28-2.35-4.25-2.35-1.84,0-3.38.87-4.6,2.6v-2.2ZM546.67,146.92h-4.76v23.87h4.76v-23.87ZM491.14,146.92h-2.39v3.85h2.39v20.01h4.73v-20.01h2.36v-3.85h-2.36v-6.57h-4.73v6.57ZM385.3,146.92h-4.74v15.71c0,3.03.55,5.22,1.63,6.54,1.1,1.32,2.95,1.98,5.5,1.98,3.26,0,5.45-1.12,6.5-3.34.5-1.15.74-3.31.74-6.65v-14.23h-4.75v16.11c0,1.37-.18,2.33-.55,2.87-.35.48-.99.73-1.89.73s-1.47-.27-1.84-.83c-.37-.59-.57-1.59-.61-2.99v-15.89ZM270.93,146.92h-4.75v23.86h4.75v-15.37c0-.89.05-1.64.14-2.26.09-.59.25-1.07.44-1.43.2-.35.44-.6.74-.76s.69-.23,1.16-.23c.85,0,1.42.29,1.76.89.37.64.55,1.73.55,3.27l.03,15.89h4.74v-16.88c0-2.49-.23-4.13-.7-5.02-.85-1.55-2.28-2.35-4.27-2.35-1.83,0-3.38.87-4.59,2.6v-2.2ZM150.83,139.59c-1.75,3.07-2.62,7.8-2.62,14.06,0,11.65,3.64,17.56,10.83,17.56,1.43,0,2.75-.33,3.91-.98l.1-.05v-4.77l-.29.13c-1.06.47-1.97.7-2.7.7-4.28,0-6.44-4.29-6.44-12.74,0-2.39.13-4.47.38-6.22.25-1.73.63-3.18,1.13-4.3.51-1.11,1.15-1.93,1.92-2.47.76-.52,1.68-.78,2.75-.78.78,0,1.77.29,2.95.86l.3.14v-4.7l-.1-.05c-1.32-.72-2.66-1.07-4-1.07-3.63,0-6.35,1.58-8.11,4.68M74.41,52.01c-.78,11.19-6.93,13.83-17.4,12.05-13.41-2.27-13.57-22.8-1.66-25.25,8.77-1.81,19.75,3.2,19.06,13.2M76.25,41.52c-6.85-6.95-27.17-7.76-33.65-.17-5.86,6.87-2.33,20.02,5.24,24.44,5.75,3.35,18.6,3.68,24.55.81,8.58-4.13,10.33-18.51,3.86-25.08M25.31,79.61c-19.44-18.12-15.69-49.42,7.37-62.64,19.41-11.13,43.71-11.28,59.26,6.37,38.66,43.85-27.3,92.94-66.63,56.27M114.77,42.71C100.96-25.59-18.23-8.24,2.39,68.22c4.16,15.44,12.4,22.79,26.74,28.68,4.42,1.81,9.91,2.13,13.75,5.7,6.29,5.86,6.46,17.81,6.08,25.76.42,6.94.82,18.46-1.38,25.11-3.47,10.45-25.54,6.69-26.75,13.81-.8,4.64,2.52,5.36,6.42,5.96,13.47,2.06,29.08.89,42.84,1,5.65.04,22.31,3.63,20.23-6.98-.83-4.25-13.8-5.03-18.24-7.42-2.52-1.36-4.84-3.68-6.21-6.21.8-10.28-3.13-38.45,1.73-46.33,4.37-7.07,19.44-10.32,26.3-14.24,16.59-9.48,24.54-32.18,20.87-50.36M191.99,75.07c0,3.31-.91,5.64-2.74,6.99s-4.98,2.03-9.47,2.03h-21.2v-18.05h21.2c4.49,0,7.64.68,9.47,2.02,1.83,1.36,2.74,3.69,2.74,7M189,43.78c0,1.5-.21,2.7-.63,3.6-.42.91-1.12,1.6-2.11,2.11-1,.5-2.37.82-4.12.98-1.73.14-3.94.22-6.6.22h-16.96v-13.84h16.96c2.66,0,4.87.08,6.6.22,1.75.16,3.12.48,4.12.98.99.51,1.7,1.2,2.11,2.11.42.9.63,2.1.63,3.61M195.23,58.52v-.3c3.48-.9,6.35-2.74,8.6-5.49,2.24-2.75,3.37-6.39,3.37-10.9,0-3.72-.59-6.9-1.75-9.56-1.16-2.65-2.78-4.81-4.85-6.47-2.09-1.66-4.54-2.88-7.36-3.68-2.83-.81-5.95-1.21-9.35-1.21h-47.48v1.81c1.57.2,2.54.52,2.92.98.38.44.56,1.03.56,1.72v70.11c0,.7-.18,1.29-.56,1.73-.38.46-1.36.78-2.92.98v1.81h48.11c4.41,0,8.2-.61,11.4-1.81,3.2-1.2,5.82-2.8,7.85-4.81s3.53-4.37,4.49-7.07c.95-2.71,1.43-5.57,1.43-8.58,0-5.61-1.34-9.87-4.04-12.78-2.7-2.91-6.17-5.06-10.41-6.47M216.69,158.92c0,2.97-.21,5.03-.63,6.13-.38,1.11-1.02,1.64-1.96,1.64s-1.59-.55-2-1.67c-.4-1.17-.6-3.26-.6-6.24s.2-5.07.6-6.25c.4-1.13,1.06-1.68,2-1.68s1.6.56,1.98,1.7c.4,1.19.6,3.33.6,6.37M221.6,159.04c0-2.14-.16-4-.44-5.54-.3-1.55-.77-2.87-1.38-3.9-.61-1.04-1.42-1.81-2.37-2.32-.97-.5-2.1-.74-3.39-.74-5.01,0-7.55,4.15-7.55,12.33s2.54,12.29,7.57,12.29,7.58-4.07,7.58-12.1M280.99,75.81h-20.69l10.21-26.32,10.47,26.32ZM287.22,100.05h20.69v-1.81c-.51,0-1-.12-1.5-.38-.5-.25-.83-.63-.99-1.12-.93-2.61-2.13-5.84-3.61-9.7-1.5-3.86-3.1-7.96-4.8-12.26-1.71-4.32-3.42-8.64-5.11-12.94-1.71-4.32-3.26-8.26-4.67-11.82-1.42-3.56-2.56-6.52-3.43-8.87-.87-2.36-1.32-3.69-1.32-3.99,0-.9.55-1.41,1.63-1.5v-1.81h-26.05v1.81c1.07.09,1.62.6,1.62,1.5,0,.51-.67,2.58-2,6.25s-3.01,8.27-5.05,13.84c-2.03,5.57-4.34,11.79-6.91,18.65-2.58,6.87-5.11,13.83-7.6,20.84-.17.5-.51.87-1,1.12-.5.26-.99.38-1.49.38v1.81h18.69v-1.81c-.25,0-.59-.05-1-.14-.42-.1-.61-.51-.61-1.21,0-.39.16-1.02.5-1.88.33-.85.7-1.77,1.12-2.78.42-1,.81-2.01,1.19-3.01.37-1,.64-1.85.81-2.56h28.92c.25.7.57,1.55.99,2.56s.81,2.01,1.19,3.01.7,1.93.99,2.78c.3.86.44,1.49.44,1.88,0,.7-.21,1.11-.63,1.21-.42.09-.74.14-.99.14v1.81ZM331.35,146.37c-1.94,0-3.53.63-4.75,1.85-1.2,1.24-1.81,2.86-1.81,4.79,0,1.43.34,2.69.99,3.72.65.98,1.92,2.2,3.76,3.63.52.42.97.8,1.33,1.13.34.33.6.61.76.86.34.5.51,1.08.51,1.76,0,1.83-.9,2.71-2.77,2.71-1.06,0-2.22-.46-3.43-1.36l-.33-.25v4.72l.1.07c1.3.76,2.62,1.13,3.91,1.13,2.09,0,3.77-.65,5.01-1.94,1.27-1.3,1.9-3.05,1.9-5.19,0-1.49-.31-2.74-.91-3.72-.3-.5-.73-1.03-1.28-1.58-.55-.55-1.24-1.15-2.06-1.79-1.97-1.49-2.96-2.78-2.96-3.82,0-.33.07-.65.2-.95.13-.29.31-.55.55-.77.22-.21.5-.39.81-.51.3-.13.64-.2,1-.2,1.12,0,2.19.39,3.21,1.15l.33.23v-4.59l-.1-.05c-1.28-.69-2.61-1.04-3.97-1.04M425.07,37c.33-.69,1.08-1.15,2.24-1.34v-1.81h-20.69v1.81c.82,0,1.62.17,2.36.52.74.35,1.12,1.08,1.12,2.18,0,.6-.21,1.81-.63,3.61-.42,1.81-.95,3.94-1.62,6.39-.67,2.47-1.37,5.07-2.11,7.83-.76,2.77-1.47,5.44-2.19,8.05-.7,2.61-1.32,5-1.87,7.15-.53,2.17-.89,3.8-1.06,4.89h-.25c-.17-.7-.56-2.07-1.19-4.13-.63-2.06-1.37-4.43-2.24-7.15-.87-2.71-1.76-5.57-2.67-8.58-.93-3-1.77-5.79-2.56-8.35-.8-2.56-1.46-4.73-2-6.55-.55-1.8-.81-2.86-.81-3.16,0-1.1.37-1.83,1.12-2.18.74-.35,1.54-.52,2.36-.52v-1.81h-25.31v1.81c.76,0,1.5.17,2.26.52.74.35,1.11,1.08,1.11,2.18,0,.6-.25,1.81-.74,3.61-.5,1.81-1.13,3.91-1.93,6.33-.8,2.4-1.64,5.03-2.56,7.89s-1.79,5.6-2.62,8.2c-.82,2.61-1.55,4.96-2.18,7.07-.63,2.1-1.02,3.72-1.19,4.81h-.25c-.16-1-.51-2.58-1.06-4.73-.53-2.17-1.16-4.57-1.87-7.23s-1.43-5.41-2.18-8.27c-.76-2.87-1.46-5.52-2.13-7.98-.67-2.45-1.2-4.59-1.62-6.39-.42-1.8-.63-2.91-.63-3.31,0-1.1.38-1.83,1.12-2.18.76-.35,1.5-.52,2.24-.52v-1.81h-21.94v1.81c.42,0,.82.12,1.19.37.38.26.64.78.81,1.59.09.5.52,2.23,1.32,5.19.78,2.95,1.76,6.54,2.92,10.75,1.16,4.21,2.41,8.75,3.74,13.62s2.56,9.38,3.68,13.54c1.12,4.17,2.05,7.71,2.8,10.62.74,2.91,1.12,4.55,1.12,4.96,0,1-1.12,1.66-3.37,1.96v1.81h25.8v-1.81c-.91-.2-1.68-.42-2.31-.68-.63-.25-.94-.68-.94-1.28,0-.5.25-1.66.76-3.46.5-1.81,1.12-3.97,1.87-6.47s1.55-5.22,2.43-8.13c.87-2.91,1.72-5.66,2.56-8.27.83-2.61,1.54-4.92,2.13-6.93.57-2.01.95-3.4,1.12-4.21h.25c.16.81.53,2.2,1.12,4.21.57,2.01,1.28,4.32,2.11,6.93.83,2.61,1.68,5.36,2.56,8.27.87,2.91,1.68,5.62,2.43,8.13.76,2.5,1.37,4.66,1.88,6.47.5,1.8.74,2.96.74,3.46,0,1-1.2,1.66-3.61,1.96v1.81h26.3v-1.81c-2.32-.3-3.48-.95-3.48-1.96,0-.3.33-1.75.99-4.36.67-2.61,1.54-5.84,2.62-9.7,1.07-3.86,2.22-8.05,3.42-12.57,1.21-4.51,2.4-8.82,3.56-12.94,1.16-4.11,2.15-7.72,2.99-10.83s1.37-5.17,1.62-6.17c.34-1.1.67-2.01,1-2.71M440.4,170.78h4.73v-38.91h-4.73v38.91ZM493.37,75.81h-20.69l10.21-26.32,10.47,26.32ZM499.6,100.05h20.69v-1.81c-.5,0-.99-.12-1.5-.38-.5-.25-.82-.63-.99-1.12-.91-2.61-2.11-5.84-3.61-9.7-1.5-3.86-3.1-7.96-4.8-12.26-1.71-4.32-3.4-8.64-5.11-12.94-1.7-4.32-3.26-8.26-4.67-11.82-1.41-3.56-2.56-6.52-3.43-8.87-.87-2.36-1.3-3.69-1.3-3.99,0-.9.53-1.41,1.62-1.5v-1.81h-26.05v1.81c1.08.09,1.62.6,1.62,1.5,0,.51-.67,2.58-2,6.25-1.33,3.67-3.01,8.27-5.05,13.84-2.03,5.57-4.34,11.79-6.91,18.65-2.58,6.87-5.11,13.83-7.6,20.84-.17.5-.5.87-.99,1.12-.51.26-1,.38-1.5.38v1.81h18.69v-1.81c-.25,0-.57-.05-.99-.14-.42-.1-.63-.51-.63-1.21,0-.39.17-1.02.5-1.88.34-.85.7-1.77,1.12-2.78.42-1,.81-2.01,1.19-3.01.38-1,.64-1.85.81-2.56h28.92c.25.7.59,1.55.99,2.56.42,1,.82,2.01,1.19,3.01.38,1,.7,1.93,1,2.78.29.86.43,1.49.43,1.88,0,.7-.21,1.11-.63,1.21-.42.09-.74.14-.99.14v1.81ZM547.25,140.07c0-.85-.31-1.59-.93-2.2-.61-.61-1.34-.93-2.18-.93s-1.59.31-2.26.93c-.61.61-.93,1.34-.93,2.18,0,.9.3,1.66.9,2.26.61.61,1.37.93,2.23.93s1.62-.31,2.23-.93c.61-.61.93-1.36.93-2.23M592.2,75.81h-20.69l10.23-26.32,10.46,26.32ZM598.44,100.05h20.69v-1.81c-.5,0-.99-.12-1.49-.38-.5-.25-.83-.63-1-1.12-.91-2.61-2.11-5.84-3.61-9.7-1.49-3.86-3.09-7.96-4.8-12.26-1.7-4.32-3.4-8.64-5.1-12.94-1.71-4.32-3.26-8.26-4.68-11.82-1.41-3.56-2.56-6.52-3.43-8.87-.86-2.36-1.3-3.69-1.3-3.99,0-.9.55-1.41,1.62-1.5v-1.81h-26.05v1.81c1.08.09,1.63.6,1.63,1.5,0,.51-.68,2.58-2,6.25-1.33,3.67-3.01,8.27-5.05,13.84-2.05,5.57-4.34,11.79-6.93,18.65-2.57,6.87-5.1,13.83-7.6,20.84-.16.5-.5.87-.99,1.12-.5.26-.99.38-1.5.38v1.81h18.71v-1.81c-.25,0-.59-.05-1-.14-.42-.1-.63-.51-.63-1.21,0-.39.17-1.02.51-1.88.33-.85.7-1.77,1.12-2.78.4-1,.81-2.01,1.17-3.01.38-1,.65-1.85.81-2.56h28.92c.25.7.59,1.55,1,2.56.42,1,.81,2.01,1.19,3.01.37,1,.7,1.93.99,2.78.29.86.44,1.49.44,1.88,0,.7-.21,1.11-.63,1.21-.42.09-.76.14-1,.14v1.81ZM655.87,158.6c0-2.74.21-4.76.63-6,.39-1.17.99-1.75,1.81-1.75,1.79,0,2.7,2.77,2.7,8.2,0,3.05-.18,5.14-.56,6.18-.35,1.07-.95,1.58-1.87,1.58-.97,0-1.64-.57-2.06-1.77-.43-1.36-.65-3.53-.65-6.44M652.32,149.58c-.9,2.05-1.36,5.27-1.36,9.57,0,4.06.48,7.1,1.42,9.01.97,1.97,2.48,2.97,4.53,2.97,1.72,0,3.08-.85,4.03-2.54v3.63c0,1.75-.18,2.92-.55,3.5-.33.57-.94.85-1.88.85-1.73,0-2.58-1.15-2.58-3.52v-.21h-4.59l-.04.93c0,2.09.64,3.78,1.88,5.02,1.23,1.23,2.93,1.85,5.09,1.85,3.26,0,5.45-1.08,6.55-3.2.6-1.16.89-3.16.89-6.12v-24.41h-4.76v2.26c-.55-.87-1.07-1.51-1.58-1.9-.64-.5-1.47-.74-2.48-.74-2.13,0-3.65,1.03-4.57,3.05M699.65,66.94c0,6.93-1.41,11.77-4.24,14.52-2.82,2.77-7.47,4.13-13.96,4.13h-8.97v-37.31h8.97c6.48,0,11.14,1.37,13.96,4.13,2.83,2.75,4.24,7.59,4.24,14.52M714.43,79.58c.95-4.02,1.42-8.23,1.42-12.64s-.47-8.62-1.42-12.64c-.97-4.02-2.5-7.53-4.62-10.53-2.11-3.01-4.8-5.43-8.04-7.23-3.25-1.81-7.19-2.71-11.84-2.71h-37.4v1.81c.91.09,1.68.3,2.31.6.63.3.94,1,.94,2.1v57.17c0,1.11-.31,1.81-.94,2.11-.63.3-1.4.51-2.31.6v1.81h37.4c4.66,0,8.6-.91,11.84-2.71,3.23-1.81,5.92-4.21,8.04-7.23,2.11-3,3.65-6.52,4.62-10.53M785.28,75.81h-20.69l10.21-26.32,10.47,26.32ZM791.52,100.05h20.69v-1.81c-.5,0-1-.12-1.5-.38-.5-.25-.83-.63-.99-1.12-.93-2.61-2.13-5.84-3.61-9.7-1.5-3.86-3.1-7.96-4.8-12.26-1.71-4.32-3.42-8.64-5.11-12.94-1.71-4.32-3.26-8.26-4.67-11.82-1.42-3.56-2.56-6.52-3.43-8.87-.87-2.36-1.32-3.69-1.32-3.99,0-.9.55-1.41,1.63-1.5v-1.81h-26.05v1.81c1.07.09,1.62.6,1.62,1.5,0,.51-.67,2.58-2,6.25-1.33,3.67-3.01,8.27-5.05,13.84-2.03,5.57-4.34,11.79-6.91,18.65-2.58,6.87-5.11,13.83-7.6,20.84-.17.5-.51.87-1,1.12-.5.26-.99.38-1.49.38v1.81h18.69v-1.81c-.25,0-.59-.05-1-.14-.4-.1-.61-.51-.61-1.21,0-.39.16-1.02.5-1.88.33-.85.7-1.77,1.12-2.78s.81-2.01,1.19-3.01c.37-1,.64-1.85.81-2.56h28.92c.25.7.57,1.55.99,2.56s.81,2.01,1.19,3.01.7,1.93.99,2.78c.3.86.44,1.49.44,1.88,0,.7-.21,1.11-.63,1.21-.42.09-.74.14-.99.14v1.81ZM822.39,170.78h4.74v-16.88c0-2.49-.22-4.13-.7-5.02-.85-1.55-2.28-2.35-4.25-2.35-1.84,0-3.38.87-4.6,2.6v-2.2h-4.73v23.86h4.73v-15.37c0-.89.05-1.64.14-2.26.1-.59.25-1.07.44-1.43.2-.35.44-.6.74-.76.31-.16.7-.23,1.16-.23.85,0,1.42.29,1.77.89.35.64.53,1.73.53,3.27l.03,15.89ZM888.11,100.05h23.06v-1.81c-1-.09-1.83-.3-2.49-.6-.67-.3-1-1-1-2.11v-57.17c0-1.1.34-1.8,1-2.1s1.49-.51,2.49-.6v-1.81h-21.94v1.81c.99.09,1.83.3,2.49.6s1,1,1,2.1v29.65c-2.66-3.42-5.32-6.82-7.98-10.24-2.66-3.4-5.07-6.51-7.23-9.33-2.17-2.8-3.93-5.14-5.3-6.99-1.37-1.85-2.06-2.88-2.06-3.09,0-1.1.29-1.8.87-2.1.57-.3,1.16-.51,1.75-.6v-1.81h-29.68v1.81c.91.09,1.71.3,2.37.6s.99,1,.99,2.1v57.17c0,1.11-.3,1.81-.93,2.11-.63.3-1.36.51-2.18.6v1.81h21.3v-1.81c-.91-.09-1.67-.3-2.3-.6-.63-.3-.94-1-.94-2.11v-39.42l.25-.3c3.5,5.02,7.02,9.76,10.59,14.22,3.57,4.47,6.8,8.5,9.67,12.12,2.87,3.61,5.22,6.64,7.04,9.1,1.83,2.45,2.74,4.13,2.74,5.03s-.43,1.46-1.3,1.66c-.87.21-1.64.3-2.31.3v1.81ZM1007.29,60.08c-4.7,5.24-19.03,6.68-22.74-.34-5.04-9.52.09-20,10.79-21.13,1.28-.13,3.74-.18,4.96,0,9.72,1.47,13.25,14.44,6.99,21.47M1014.23,61.23c4.92-7.54,3.97-18.39-3.57-22.61-1.53-.85-6.56-2.92-12.52-2.7-4.88.26-9.76.86-14.11,3.37-6.68,3.87-8.88,12-5.62,20.82,4.24,11.52,29.45,10.9,35.83,1.12M994.12,92.38c-9.37-.87-20.36-6.74-27.39-12.77-31.59-27.04-2.03-75.94,37.06-69.71,62.99,10.04,46.37,87.67-9.67,82.48M1056.54,44.83c-3.39-37.83-51.54-53.6-83.01-40.02-31.74,13.7-43.67,54.68-19.15,80.96,11.2,12.01,28.01,10.63,36.64,24.57-.93,12.7,3.86,32.24-.2,44.11-2.87,8.36-19.75,7.28-23.41,10.92-1.72,1.7-.7,6.43.83,7.87,3.08,2.83,12.31,1.02,15.89,1,11.36-.05,23.54.67,34.78.03,3.46-.21,13.8-1,16.11-2.91,3.3-2.73.47-6.04-2.4-7.47-7.68-3.85-21.67-1.37-23.86-12.56-1.67-8.62-2.06-30.88.25-39.08,4.32-15.37,15.07-12.46,26.6-18.9,17.39-9.72,22.63-29.56,20.94-48.52"/>
  </g>
</svg>