<?xml version="1.0" encoding="UTF-8"?>
<svg id="Layer_1" xmlns="http://www.w3.org/2000/svg" xmlns:xlink="http://www.w3.org/1999/xlink" version="1.1" viewBox="0 0 987.23 332.57">
  <!-- Generator: Adobe Illustrator 29.1.0, SVG Export Plug-In . SVG Version: 2.1.0 Build 142)  -->
  <defs>
    <style>
      .st0 {
        fill: none;
      }

      .st1 {
        fill: #d4d6d6;
      }

      .st2 {
        clip-path: url(#clippath-1);
      }

      .st3 {
        clip-path: url(#clippath-3);
      }

      .st4 {
        clip-path: url(#clippath-2);
      }

      .st5 {
        fill: #949496;
      }

      .st6 {
        fill: #a9abab;
      }

      .st7 {
        clip-path: url(#clippath);
      }
    </style>
    <clipPath id="clippath">
      <rect class="st0" width="987.23" height="332.57"/>
    </clipPath>
    <clipPath id="clippath-1">
      <rect class="st0" width="987.23" height="332.57"/>
    </clipPath>
    <clipPath id="clippath-2">
      <rect class="st0" width="987.23" height="332.57"/>
    </clipPath>
    <clipPath id="clippath-3">
      <rect class="st0" width="987.23" height="332.57"/>
    </clipPath>
  </defs>
  <g class="st7">
    <path class="st1" d="M316.65,287.22c-26.65-25.38-55.27-68.25-77.25-119.39,7.55-43.51,27.96-91.64,63.58-134.65-9.44,41.22-35.55,174.24,13.67,254.04"/>
    <path class="st1" d="M233.92,248.14c-19.34-12.66-37.13-25.72-53.22-38.8-1.38-10.67-2.14-22.04-2.14-33.89-.02-30.21,4.61-59.58,12.92-83.89,8.66,30.01,25.26,67.08,38.52,92.18-2.42,23.77-.97,45.75,3.94,64.4"/>
    <path class="st6" d="M302.48,287.48c-21.01-10.48-40.75-21.66-59.17-33.29-5.58-16.44-8.07-36.15-7.09-57.78,8.86,17.83,32.22,60.58,66.26,91.07"/>
    <path class="st1" d="M176.1,225.56c4.03,19.93,10.55,37.44,19.59,50.29-21.92-5.17-44.57-11.45-67.37-19.36-16.84-24.15-31.14-56.88-31.68-98.88,22.36,27.87,52.91,49.85,79.46,67.95"/>
    <path class="st1" d="M160.39,301.46h-88.24c-24.91-13.54-52.78-48.28-61.81-77.79,50.23,31.28,86.16,40.88,122.43,50.58,9.67,11.53,19.47,20.57,27.62,27.21"/>
    <path class="st6" d="M172.2,301.4c-7.21-5.29-16.91-13.26-26.95-24.06,31.49,8.98,85.21,19.22,128.39,24.16h-101.34s-.06-.06-.1-.1"/>
    <path class="st6" d="M184.61,230.79c46.07,34.54,74.73,49.17,110.41,63.99-1-.16-2.01-.35-3.02-.51-25.73-4.24-54.54-9.03-84.93-15.8-.06-.1-.13-.19-.22-.28-9.77-10.59-17.39-27.09-22.24-47.4"/>
  </g>
  <polygon class="st5" points="400.89 213.96 414.04 213.96 414.04 157.07 432.57 157.07 432.57 144.81 382.36 144.81 382.36 157.07 400.89 157.07 400.89 213.96"/>
  <g class="st2">
    <path class="st5" d="M450.9,183.97c0-5.78,4.08-9.77,9.97-9.77,8.57,0,9.56,6.79,9.56,9.77v29.99h13.15v-29.99c0-13.55-8.37-22.61-20.92-22.61-4.48,0-8.47,1.49-11.76,3.98v-25.51h-13.26v74.13h13.26v-29.99Z"/>
    <path class="st5" d="M524.04,209.28v4.68h12.55v-51.31h-13.15v30c0,5.68-4.09,10.05-9.97,10.05-8.57,0-9.56-7.16-9.56-10.05v-30h-13.15v30c0,13.44,8.07,22.51,20.21,22.51,5.39,0,9.87-2.18,13.06-5.87"/>
    <path class="st5" d="M591.4,213.96v-29.99c0-13.55-7.98-22.61-20.03-22.61-5.48,0-9.95,2.39-13.24,6.28v-4.98h-12.55v51.31h13.15v-29.99c0-5.78,4.08-10.16,9.97-10.16,8.66,0,9.56,7.18,9.56,10.16v29.99h13.15Z"/>
    <path class="st5" d="M623.49,173.71c7.27,0,13.15,6.57,13.15,14.74s-5.87,14.44-13.15,14.44-13.15-6.28-13.15-14.44,5.87-14.74,13.15-14.74M621.5,215.06c6.28,0,11.66-2.39,15.74-6.58v5.48h12.55v-74.13h-13.15v27.71c-3.98-3.79-9.16-5.98-15.15-5.98-13.35,0-24.41,11.56-24.41,26.81s11.05,26.7,24.41,26.7"/>
    <path class="st5" d="M682.29,172.91c6.28,0,11.26,3.79,12.85,9.76h-25.51c1.9-5.97,6.68-9.76,12.66-9.76M707.19,197.62h-14.05c-2.19,4.08-6.48,5.97-10.86,5.97-6.18,0-11.16-3.87-12.85-10.15h38.76c1.89-20.34-10.66-32.08-25.81-32.08s-26.31,12.15-26.31,27,11.86,26.79,26.31,26.79c12.76,0,21.82-7.08,24.81-17.53"/>
    <path class="st5" d="M727.52,188.75c0-4.08.5-8.27,3.29-11.16,2.99-3.19,7.37-3.79,12.65-3.19v-12.75c-6.18-1-12.36.89-16.53,6.07v-5.08h-12.55v51.32h13.15v-25.21Z"/>
    <path class="st5" d="M788.91,201.91v-17.84h18.44c6.68,0,10.36,3.29,10.36,9.07,0,6.77-4.98,8.77-10.06,8.77h-18.73ZM788.91,156.76h18.73c4.98,0,8.08,3,8.08,7.58s-3.59,7.68-8.08,7.68h-18.73v-15.26ZM831.16,193.63c0-7.87-3.58-13.45-9.47-16.53,4.29-3.09,6.77-7.77,6.77-13.56,0-11.55-6.98-18.73-20.82-18.73h-31.89v69.15h33.68c13.35,0,21.73-7.97,21.73-20.32"/>
    <path class="st5" d="M870.52,189.26v4.78c0,6.58-6.38,9.27-14.26,9.27-5.28,0-8.66-2-8.66-4.89,0-3.79,3.98-5.18,10.47-5.89,5.37-.6,9.66-1.49,12.45-3.28M855.38,182.77c-11.36,1-21.03,3.98-21.03,15.55s9.97,16.63,20.84,16.63c7.16,0,12.36-2.19,15.73-5.78.3,1.89.71,3.48,1.3,4.78h12.05c-.69-1.99-1.5-5.87-1.5-8.36v-26.71c0-4.08-1.58-17.53-22.42-17.53-13.44,0-22.81,7.27-24.1,17.03h13.15c1.19-4.37,6.58-6.47,11.26-6.47,5.87,0,9.37,2.19,9.37,4.87,0,4.19-6.08,5.18-14.65,5.98"/>
    <path class="st5" d="M903.22,218.74c-2.19,5.87-5.28,7.47-11.86,7.07v11.97c10.76.69,18.63-1.1,23.61-14.45l22.71-60.68h-14.04l-12.27,37.07-12.55-37.07h-13.95l19.84,52.21-1.5,3.89Z"/>
    <path class="st5" d="M416.13,271.87h-15.84v-20.13h15.84c6.08,0,9.76,3.09,9.76,10.06s-3.68,10.06-9.76,10.06M416.23,239.48h-29.08v69.15h13.15v-24.71h16.24c13.65,0,22.52-9.26,22.52-22.12,0-13.55-8.37-22.32-22.82-22.32"/>
    <path class="st5" d="M475.82,287.31c0,5.68-4.09,10.06-9.97,10.06-8.57,0-9.56-7.18-9.56-10.06v-29.99h-13.15v29.99c0,13.45,8.07,22.52,20.23,22.52,5.37,0,9.86-2.19,13.05-5.89v4.69h12.55v-51.31h-13.15v29.99Z"/>
    <path class="st5" d="M524.35,297.56c-7.27,0-13.15-6.47-13.15-14.44s5.87-14.74,13.15-14.74,13.15,6.37,13.15,14.74-5.89,14.44-13.15,14.44M526.24,256.22c-5.87,0-11.16,2.19-15.04,5.98v-27.71h-13.26v74.13h12.65v-5.48c3.98,4.19,9.47,6.58,15.65,6.58,13.45,0,24.41-11.55,24.41-26.7s-10.95-26.81-24.41-26.81"/>
  </g>
  <rect class="st5" x="556.94" y="234.49" width="13.15" height="74.13"/>
  <rect class="st5" x="579.56" y="239.48" width="13.15" height="12.26"/>
  <rect class="st5" x="579.56" y="257.32" width="13.15" height="51.31"/>
  <g class="st4">
    <path class="st5" d="M625.49,297.87c-7.27,0-13.15-6.68-13.15-14.74s5.87-15.05,13.15-15.05c4.78,0,8.87,2.99,10.66,6.48h14.05c-3-11.56-12.36-18.53-24.71-18.53-15.44,0-26.5,12.15-26.5,27s11.06,26.79,26.5,26.79c12.45,0,21.82-6.87,24.81-18.53h-14.05c-1.69,3.59-5.87,6.58-10.76,6.58"/>
  </g>
  <polygon class="st5" points="697.25 239.48 683.99 239.48 683.99 308.63 731.62 308.63 731.62 296.37 697.25 296.37 697.25 239.48"/>
  <rect class="st5" x="735.61" y="239.48" width="13.15" height="12.26"/>
  <rect class="st5" x="735.61" y="257.32" width="13.15" height="51.31"/>
  <g class="st3">
    <path class="st5" d="M784.44,297.56c-7.27,0-13.15-6.47-13.15-14.44s5.87-14.74,13.15-14.74,13.15,6.37,13.15,14.74-5.89,14.44-13.15,14.44M786.33,256.22c-5.87,0-11.16,2.19-15.04,5.98v-27.71h-13.26v74.13h12.65v-5.48c4,4.19,9.47,6.58,15.65,6.58,13.45,0,24.41-11.55,24.41-26.7s-10.95-26.81-24.41-26.81"/>
    <path class="st5" d="M829.28,262.4v-5.08h-12.55v51.31h13.15v-25.2c0-4.09.5-8.27,3.29-11.16,3-3.19,7.37-3.79,12.66-3.19v-12.76c-6.18-1-12.36.9-16.55,6.08"/>
    <path class="st5" d="M883.28,288.7c0,6.58-6.37,9.26-14.24,9.26-5.28,0-8.66-1.99-8.66-4.87,0-3.79,3.97-5.18,10.45-5.89,5.39-.6,9.66-1.5,12.45-3.29v4.79ZM895.54,273.56c0-4.08-1.6-17.53-22.42-17.53-13.45,0-22.81,7.27-24.1,17.03h13.15c1.19-4.39,6.57-6.48,11.26-6.48,5.87,0,9.36,2.21,9.36,4.89,0,4.19-6.07,5.18-14.63,5.98-11.37,1-21.03,3.98-21.03,15.55s9.97,16.63,20.82,16.63c7.18,0,12.36-2.19,15.74-5.78.3,1.89.71,3.48,1.3,4.78h12.05c-.69-1.99-1.5-5.87-1.5-8.36v-26.71Z"/>
    <path class="st5" d="M917.57,262.4v-5.08h-12.55v51.31h13.15v-25.2c0-4.09.5-8.27,3.29-11.16,2.99-3.19,7.37-3.79,12.65-3.19v-12.76c-6.18-1-12.36.9-16.53,6.08"/>
    <path class="st5" d="M973.18,257.31l-12.26,37.07-12.55-37.07h-13.95l19.82,52.21-1.5,3.89c-2.19,5.87-5.28,7.47-11.86,7.07v11.97c10.77.69,18.63-1.1,23.61-14.45l22.72-60.68h-14.05Z"/>
    <path class="st5" d="M239.39,167.84c8.63-49.8,34.12-105.57,79.88-152.83-.82,3.47-1.69,7.18-2.62,11.11-14.73,61.96-41.42,174.3,4.28,265.08-27.82-24.78-58.39-69.49-81.54-123.36M243.31,254.2c-6.87-20.21-9.04-45.42-5.86-73.01,21.4,46.69,48.04,85.83,73.16,110.25-24.06-11.56-46.52-24.14-67.3-37.24M292,294.3c-25.76-4.28-54.56-9.07-84.93-15.82-.07-.1-.13-.21-.23-.29-11.48-12.4-19.96-32.96-24.5-58.23,33.95,26.86,74.75,53.44,121.58,76.32-3.9-.66-7.88-1.32-11.92-1.99M172.3,301.47s-.05-.05-.09-.07c-9.39-6.88-23-18.33-36.1-34.57,55.71,18.22,109.8,27.2,154.7,34.65.02,0,.06,0,.09.01l-118.59-.02ZM72.17,301.46C41.45,284.75,6.26,235.87,7.29,204.24c37.59,26.06,77.28,44.61,116.44,58.38,12.38,17.25,25.92,30.13,36.66,38.86h-88.23ZM97.49,136.54c18.08,23.25,43.86,49.96,76.51,76.71,3.61,24.95,10.84,47.15,21.69,62.62-21.92-5.19-44.54-11.47-67.34-19.37-19.58-28.06-35.68-67.71-30.85-119.96M201.38,68.18c6.42,35.12,17.25,69.29,30.57,100.56-4.86,29.49-3.97,56.9,1.96,79.41-19.34-12.66-37.11-25.73-53.22-38.82-1.39-10.67-2.13-22.03-2.14-33.87-.05-40.71,8.4-79.91,22.83-107.27M336.49,304.69c0-.06-.01-.12-.02-.19-.01-.07-.04-.13-.05-.21-.02-.1-.05-.19-.07-.28-.02-.06-.05-.12-.07-.18-.01-.06-.05-.12-.07-.18-.05-.1-.1-.19-.15-.29-.02-.04-.04-.09-.07-.13-56.17-90.58-27.6-210.82-12.25-275.41,2.13-8.96,3.97-16.69,5.37-23.41.33-1.56-.4-3.16-1.79-3.94-1.4-.77-3.13-.55-4.29.55-49.01,46.83-77.38,103.28-88.59,154.87-12.34-30.92-22.13-64.49-27.55-98.79-.23-1.5-1.36-2.69-2.85-3-1.49-.32-3,.33-3.81,1.61-23.54,36.9-32.64,96.28-27.5,147.04-32.72-27.5-57.97-54.72-74.87-77.81-.88-1.21-2.39-1.75-3.84-1.38-1.44.37-2.51,1.57-2.71,3.05-7.27,53.89,6.7,95.52,25.6,125.81-37.35-13.84-74.94-32.28-110.41-57.63-1.01-.72-2.32-.88-3.46-.43-1.16.46-2,1.46-2.23,2.68-3.24,16.35,3.51,38.97,18.53,62.03,11.16,17.14,25.3,32.3,39.27,42.4H3.69s-.06-.01-.06-.01c-1.99.04-3.58,1.64-3.58,3.64s1.62,3.64,3.64,3.64l327.93.05c.06,0,.13.01.19.01.04,0,.06-.01.1-.01h1.05c.26-.01.52-.05.77-.11.05-.01.09-.01.12-.02.05-.02.11-.05.16-.06.16-.05.32-.11.48-.19.07-.04.15-.06.22-.1.02-.02.04-.04.06-.04.01-.01.02-.02.05-.02h.01c.15-.11.29-.22.43-.34.04-.02.06-.04.1-.06.01-.01.01-.02.02-.04.06-.05.11-.12.17-.18.1-.11.19-.21.28-.32.02-.04.05-.07.07-.11.01-.01.02-.02.02-.04.04-.05.06-.11.1-.17.05-.09.11-.18.16-.28.01-.04.04-.09.06-.13.02-.07.06-.16.09-.24s.06-.17.09-.26c.01-.06.02-.11.04-.17.01-.09.02-.17.05-.26,0-.05.02-.1.02-.15v-.1c0-.07.01-.13.01-.19,0-.09-.01-.17-.01-.24,0-.1-.01-.18-.02-.27"/>
  </g>
</svg>