<?xml version="1.0" encoding="UTF-8"?>
<svg id="Layer_1" xmlns="http://www.w3.org/2000/svg" xmlns:xlink="http://www.w3.org/1999/xlink" version="1.1" viewBox="0 0 344.1 332.57">
  <!-- Generator: Adobe Illustrator 29.1.0, SVG Export Plug-In . SVG Version: 2.1.0 Build 142)  -->
  <defs>
    <style>
      .st0 {
        fill: none;
      }

      .st1 {
        clip-path: url(#clippath-1);
      }

      .st2 {
        fill: #8c8e90;
      }

      .st3 {
        clip-path: url(#clippath);
      }
    </style>
    <clipPath id="clippath">
      <rect class="st0" width="344.1" height="332.57"/>
    </clipPath>
    <clipPath id="clippath-1">
      <rect class="st0" width="344.1" height="332.57"/>
    </clipPath>
  </defs>
  <g class="st3">
    <path class="st2" d="M193.03,302.39h6.49v29.67l-7.31-.58-8.25-14.23-1.6-.95v15.76h-6.49c-.19-7.56.17-15.33.02-22.97-.04-2.11-1.41-4.52.44-6.48.86-.5,5.44-.4,6.3.21.56.41,4.48,6.99,5.22,8.23,1.06,1.8,2.28,5.21,3.57,6.64.72.8.92.55,1.61-.22v-15.07Z"/>
    <path class="st2" d="M134.91,309.97c-3.25-3.25-9.46-2.1-11.32,2.05-3.54,7.93,2.51,18.84,10.52,12.84,3.65-2.74,3.85-11.84.8-14.89M127.08,302.05c12.94-1.75,17.89,6.95,16.79,18.65-1.37,14.61-23.58,15.9-27.48,2.93-2.7-8.94.22-20.16,10.69-21.58"/>
    <path class="st2" d="M171.24,302.39c-.27,5.86.37,12.04.02,17.87-.44,7.46-1.89,11.47-10.04,12.21-4.85.45-11.21-.7-13.07-5.83-.7-1.93-.94-6.82-1.04-9.16-.22-4.75.14-9.57.09-14.32l.37-.56,6.77.23c.95,1.37-.44,16.89.4,20.46.99,4.16,8.47,3.8,9.05.17.9-5.76-.7-13.56,0-19.47.08-.67.06-1.19.72-1.6h6.72Z"/>
    <path class="st2" d="M212.18,309.96c-4.28,3.85-2.19,20.69,7.45,15.57,3.49-1.86,1.39-5.59,5.97-4.94,4.1.58,4.35,2.23,2.75,5.77-4.46,9.81-22.53,7.47-24.91-3.99-2.65-12.78,5.55-24.25,19.14-19.61,4.33,1.49,10.96,9.81,2.18,9.87-3.16.02-3.17-4.22-7.03-4.56-1.18-.1-4.68,1.12-5.55,1.9"/>
    <path class="st2" d="M98.33,302.05c4.74-.7,10.73.64,13.28,5.02,1.71,2.93,2.04,4.77-1.92,5.41-4.37.71-3.36-2.29-6.18-3.8-3.42-1.81-7.84.48-8.88,4.04-1.38,4.71-.39,14.4,6.3,13.76,4.25-.4,4.31-3.52,6.65-5.92,8.96-.78,4.83,8.05-.22,10.45-7.19,3.43-16.48,1.02-19.34-6.83-3.16-8.67.05-20.62,10.31-22.13"/>
    <path class="st2" d="M43.18,48.88c-6.47.3-12.17,7.23-7.52,13.3,4.09,5.35,10.87,4.7,14.56-.65,3.11-4.51-1.85-12.9-7.04-12.65M31.84,49.87c5.01-5.15,13.89-9,20.25-4.11,17.36,13.33-10.59,36-22.26,20.4-4.12-5.52-2.53-11.63,2.01-16.29"/>
    <path class="st2" d="M188.85,15.39V4.5c0-.21.58-3.42.73-3.53l6.22.05-2.76,24.38c-3.3.1-5.11,0-7.18-2.63-3.03-3.86-5.21-9.04-8.84-12.48-1.49,4.1.52,9.14-.29,13.62l-.71.68c-1.55.14-4.83,1.09-5.26-1.07l-.25-22.99c.64-.93,5.88-.56,6.99.48,3.25,3.83,5.92,8.96,9.03,12.76.53.65,1.37,1.69,2.32,1.62"/>
    <path class="st2" d="M150.26,5.78c-11.24,1.55-7.8,17.85,3.01,16,9.56-1.64,8.34-17.56-3.01-16M149.8,1.15c9.69-1.12,17.27,3.53,16.32,14-1.23,13.61-24.84,15.58-28.97,2.55-2.98-9.42,3.83-15.53,12.65-16.55"/>
    <path class="st2" d="M105.86,11.22c.46,2.23-1.36,3.02-2.24,4.47-.65,1.07-4.4,7.17-4.22,7.74l14.48,8.62c2.64,2.16-4.56,3.71-6.06,3.42-2.69-.52-9.68-7.01-11.36-6.58-1.31.33-2.71,3.49-2.63,4.77.11,1.69,2.87,5.08,2.7,6-.69,1.25-4.75,3.26-5.89,2.53l-9.59-19.39c-1.23-2.5,2.17-4.55,4.24-4.65,4.14-.17,3.11,12.33,7.06,6.65,3.81-5.5,4.13-14.14,13.52-13.6"/>
    <path class="st2" d="M250.98,302.39v23.65h13.91l.46,6.03h-21.33c-.21-.85-.41-1.63-.49-2.52-.48-6.16-.7-19.6,0-25.55.08-.67.06-1.19.72-1.6h6.72Z"/>
    <path class="st2" d="M30.18,83.64c1,1.71-2.28,5.09-3.8,5.01-2.1-.1-5.57-5.38-8.02-5.93-2.69-.61-10.65-.23-13.83-.12-2.22.09-6.32,2-3.67-2.28.34-.55,3.31-3.49,3.79-3.64,1.4-.41,5.99-.15,7.8-.11,1.48.03,3.29,1.18,4.44-.19.76-.9-1.91-8.53-1.35-11.05.39-1.73,3.73-4.37,5.24-5.42.66.43.64.88.71,1.59.43,4.12.46,14.61,2.97,17.43,1.28,1.43,4.15,3.38,5.72,4.71"/>
    <path class="st2" d="M334.34,93.38c.61,1-3.96,2.86-3.96,2.86-3.44-4.12-7.17-8.02-10.75-12.01-1.14-1.28-3.03-1.18-1.42-3.68,2.79-1.58,15.56-15.56,17.39-15.42,1.45,1.62,4.88,3.37,3.7,5.91l-14.03,12.29c2.52,3.18,5.22,6.15,7.78,9.3.35.43,1.18.58,1.29.76"/>
    <path class="st2" d="M133.16,4.32c2.92,7.15-5.02,3.61-8.23,6.71l4.6,18.04-.48.93-5.5.63-4.71-18.47c-.9-.86-7.75,2.23-8.57,2.17-1.25-.09-1.96-2.58-1.55-3.74.33-.97,9.22-3.08,10.87-3.5,1.72-.44,12.98-3.14,13.58-2.76"/>
    <path class="st2" d="M216.78,28.73c-.41-.39-.55-1.29-.48-1.86l4.01-17.22c-.39-1.72-7.11-1.16-8.67-2.2-.24-1.76-.41-4.08,1.87-4.01,2.02.06,6.07,1.06,8.28,1.51,1.94.39,14.59,3.22,15.09,3.93,1.03,7.41-7.93.54-10.03,2.07l-4.4,17.87c-.48,1.67-4.95.6-5.67-.09"/>
  </g>
  <rect class="st2" x="232.4" y="302.39" width="7.95" height="29.67"/>
  <g class="st1">
    <path class="st2" d="M266.16,44.48c-1.31,1.31-6.09-1.05-5.85-2.78,2.39-5.26,5.25-10.28,7.75-15.48.62-1.28,1.46-4.85,2.71-5.2,1.06-.3,6.68,1.75,5.62,3.76l-10.24,19.71Z"/>
    <path class="st2" d="M110.03,249.54l13.63-19.21s-9.75-8.72-13.63-11.86v31.06ZM239.86,175.82c.09,1.5-1.4,8.95.24,9.27,3.65.71,1.31-6.16.73-7.7-.21-.59-.1-1.43-.97-1.57M138.32,191.57l-10.45-19.9s-3.41,6.81-4.92,9.87c-2.89,5.89-12.53,22.14-12.93,27.41-.1,1.4-.13,5.76-.13,5.76l15.42,12.39,13.48-19.49c-3.66-6.51-7.32-13.05-11.22-19.42-.59-.96-3.16-5.88-3.16-5.88l13.91,9.26ZM305.69,167.47l-5.19.92-.47,3.96,5.19,2.54.46-7.42ZM318.96,164.3l-10.84,2.35-.7,8.83,2,1,9.54-12.18ZM281.58,243.5l-28.19-41.59c3-12.05,12.48-42.88,12.48-42.88l-22.85,29.7-4.09-1.32c.24,18.07-.06,41.02,15.8,53.05,7.17,5.44,18.65,6.41,26.85,3.05M151.29,201.78l-14.6-47.29-6.52,13.45,13.33,27.03,7.79,6.81ZM58.09,153.56l-1.32,19.35,5.11,2.25,1.91-10.02-5.7-11.58ZM244.32,181.58c3.55-4.82,8.64-11.91,8.64-11.91,0,0,.51-13.45.7-18.33.11-3.07-2.61.09-3.57,1.2-7.33,8.38-9.5,18.22-5.76,29.04M297.81,171.18s-.34-9.1-.58-10.32c-1.18-6.22-8.07-13.03-13.81-15.4-1.77-.73-10.27-3.08-11.36-1.64l-15.1,57.28,13.26,19.69,25.73-36.43c-3.92-12.53-10.15-24.5-13.45-37.28.93-1,2.96,3.56,3.18,4.01,1.99,4.12,8.25,18.64,8.25,18.64l3.87,1.46ZM269.53,143.36c-.51-.46-11.81,2.2-12.72,4.2l-1.67,20.19,12.36-15.91s1.37-5.45,2.03-8.48M164.28,58.51c-48.45,2.36-98.96,22.97-127.59,63.35l-28.27-.46s6.83-11.36,7.77-12.77C59.05,44.65,150.94,25.29,222.72,41.11c45.13,9.94,93.32,36.91,115.22,79.05,2.07,4.07,3.46,8.36,3.46,8.36l-27.02.69s-4.89-8.19-6.18-9.91c-27.3-36.59-74.07-56.45-118.88-60.33v68.16l2.76,1.19c.07,1.14-2.76,5.67-2.76,5.99v32.92l.94.49,1.13-.74,9.28-31.98c.8-1.07,3.39-.46,3.46,1.15l-14.75,53.86c.32,15.98-1.52,32.01.17,47.93l21.02-27.7-.88-18.92c.06-4.1,1.25-10.01,1-13.9-.09-1.43-.76-1.94-1-3.19.71-.61,1.3-.49,1.78-1.54.34-.75,2.02-8.42,1.99-9.19-.06-1.83-2.58-2.81-2.34-4.84l3.44.92.5-.46c1.4-3.26,2.56-6.66,4-9.91.83-1.9,2.64-3.12,2.17-5.5-.21-1.12-4.27-7.28-1.99-7.77,2.01-.43,2.9,6.44,4.62,6.03,4.72-7.8,11.63-14.02,19.58-18.45,21.84-12.18,53.77-9.44,71.09,9.39,1.25,1.36,5.79,8.13,5.79,8.13,0,0,1.66-5.47,3.2-9.56l1.65.3c-.33,4.18-2.7,9.05-2.31,13.2,1.12,3.13,4.41,10.9,4.41,10.9l3.7-4.17s4.15-13.56,6.69-19.63l2.32-.27-.18,2.3-18.81,56.33,23.12,46.5h-3.56l-23.25-46.07c2.95-9.81,11.22-30.47,11.22-30.47l-19.4,20.44-13.14-7.34,3.94,10.17-27.61,39.71c1.01,2.38,11.64,18.31,12.76,18.29,2.82-.04,8.23-7.94,9.59-10.36,3.13-5.56,4.87-11.77,6.42-17.93l27.14,9.72c.64.92-.2,3.08-.5,4.18-9.02,33.55-36.21,52.15-71.09,43.75-26.23-6.33-41.51-30.93-45.52-56.26l-20.27,27.12,34.19,43.82-6.16-.09-30.01-38.84v21.79h-24.57v-68.62l-9.88,9.21-16.55-11.07,7.49,11.26-34.84,45.54v15.12l-11.72.09-13.19,18.5-3.77.05,13.5-18.78-10.81-.2.04-59.31c-.52-6.93-16.14-36.49-16.14-36.49l-4.77,6.87-27.12-12.91,17.31,26.25-31.5,61.43-4.1.08,32.29-61.43-39.46-60.06c-1.04-2.18.69-3.86,2.56-2.1l21.15,31.71,10.35,4.24-6.42-17.03c-.23-.94.8-2.3,1.79-1.77,1.66.87,6.54,17.63,8.31,20.32l5.13,2.19.11-24.84-13.29-27.55h29.64l10.21,20.4c.91.21.64-.36.92-.9,1.75-3.43,2.92-7.23,4.65-10.67l1.61-.48c.03.82.06,1.63-.11,2.44-.8,3.86-4.03,9.57-4.52,13.6-.22,1.88.87,4.31,2.08,5.74l19.62-42.5c.64-1.48,1.7-1.98,2.91-.75.59.88-.32,2.52-.63,3.5-4.31,13.87-10.65,28.86-15.8,42.61-2.11,5.62-3.01,4.22-.39,10.43,2,4.76,4.64,9.38,6.81,14.06l26.4-57.05,30.02-.23-14.95,29.42.51,1.62,15.84,50.9,8.71-15.16V58.51Z"/>
    <path class="st2" d="M289.79,50.5c.5-.61.75-1.55.53-2.31-.42-1.57-7.84-6.69-9.34-6.31-1.32,1.25-3.61,3.83-1.97,5.53.42.44,6.9,3.94,7.56,4.07,1.06.21,2.53-.15,3.22-.98M286.1,34.01c-1.78.33-3.01,2.94-1.73,4.34.87.95,7.51,4.13,8.93,3.85,5.97-1.19-4.54-8.69-7.2-8.19M300,45.4c-1.08.9-3.58,1.14-4.97,1.06,1.1,4.17,2.92,7.3-2.06,9.75-4.29,2.11-7.62-.17-11.39-2.1-1.83-.94-9.34-4.86-10.36-5.86-.33-.33-.81-.48-.79-1.12l11.87-20.65c.58-.11,1.06.09,1.58.28,1.94.74,7.43,4.12,9.44,5.4,2.34,1.49,7.34,4.62,8,7.3.45,1.84.21,4.65-1.32,5.92"/>
    <path class="st2" d="M69.54,31.29c-1.39.08-7.88,3.55-8.69,4.71-1.06,1.55,1.53,4.83,3.39,4.35.45-.12,7.54-4.38,7.8-4.75,1.47-2.01-.14-4.44-2.51-4.31M66.07,44.22c-1.22,2.09,4.76,6.53,4.59,8.47-.11,1.22-4.16,3.76-5.12,3.29-2.67-1.3-9.81-15.46-13.03-18.07-1.1-1.64,0-2.51,1.27-3.43,2.62-1.87,13.81-8.08,16.61-8.43,4.04-.51,6.83.21,8.35,4.2,1.64,4.3-1.55,4.67-3.02,7.62-.22.45-.76.35,0,.94,1.85-.43,11.81,3.55,12.06,4.64.21.84-3.44,2.6-4.16,2.79-4.62,1.2-9.99-4.41-14.89-3.3-.4.09-2.57,1.12-2.66,1.28"/>
    <path class="st2" d="M246.21,16.38c-1.44.39-2.39,4.34-1.26,5.28,1.13.94,10.19,3.34,11.39,1.15,1.85-3.74-7.52-6.58-10.12-6.43M253.77,28.38c1.43,4.23,3.97,8.34,3.7,12.97-1.85-.51-5.62-1.67-6.71-3.25-2.35-3.42-1.28-13.67-8.53-12.45l-2.82,8.55c-.82.57-5.35-.68-5.85-1.66.85-2.72,6.22-21.85,7.2-22.51.58-.39,1.35-.24,2-.11,2.9.59,15.5,5.25,17.73,6.86,6.94,5.04,1.06,13.63-6.72,11.59"/>
    <path class="st2" d="M315.43,56.66c-.37-.37-6.34,2.03-6.83,2.42-1.66,1.29,4.08,5.18,4.71,4.98.8-.25,2.53-6.99,2.12-7.4M316.25,49.33c2.31-.39,6.61,2.86,6.62,5.24-2.43,8.31-4.36,17.05-8.12,24.8l-4.34-4.04,1.33-5.44c-.09-.89-2.28-2.81-3.03-3.48-.58-.52-5-3.91-5.31-4-2.28-.64-4.16,2.16-5.73,2.03-.88-.08-5.63-2.82-5.41-3.83,4.12-2.02,8.18-4.28,12.36-6.2,2.46-1.13,9.55-4.71,11.64-5.07"/>
  </g>
</svg>