<?xml version="1.0" encoding="UTF-8"?>
<svg id="Layer_1" xmlns="http://www.w3.org/2000/svg" xmlns:xlink="http://www.w3.org/1999/xlink" version="1.1" viewBox="0 0 58.7 14.39">
  <!-- Generator: Adobe Illustrator 29.1.0, SVG Export Plug-In . SVG Version: 2.1.0 Build 142)  -->
  <defs>
    <style>
      .st0 {
        fill: none;
      }

      .st1 {
        fill: #414042;
      }

      .st2 {
        clip-path: url(#clippath);
      }
    </style>
    <clipPath id="clippath">
      <rect class="st0" x="0" y="0" width="58.7" height="14.39"/>
    </clipPath>
  </defs>
  <g class="st2">
    <path class="st1" d="M37.15,7.16c-.33.99-1.21,1.6-2.26,1.6-1.77,0-2.41-1.02-2.58-2.77h8.26c.05.42.15.81.29,1.17h-3.71ZM34.81,2.01c1.52,0,2.3.99,2.47,2.35h-4.96c.19-1.35.94-2.35,2.5-2.35M21.23,7.93c-1.47,0-2.64-.65-2.64-2.5,0-1.52,1.17-2.5,2.64-2.5,1.14,0,2.4.98,2.4,2.5s-1.26,2.5-2.4,2.5M48.32,8.34c-1.16,0-2.57-.47-2.57-3.07,0-1.81,1.13-2.89,2.51-2.89.61,0,1.05.37,1.38.63.3.25.52.61.61,1.19h5.48C55.19,1.45,52.03,0,48.32,0c-3.32,0-5.56,1.14-6.75,2.61C40.51,1.14,38.44,0,35.01,0s-5.86,1.01-7.01,2.98c-.99-1.79-3.12-2.73-5.33-2.73-1.44,0-3.68.45-4.51,1.49h-.05V.42h-4.46v5.69c-1.47-2.79-8.5-1.38-8.5-3.31,0-.77,1.08-.98,1.8-.98.61.02,1.05.15,1.36.4.3.23.44.57.39,1.04h4.92C13.45.68,10.35,0,7.47,0,3.26,0,.22,1.06.22,3.74.22,7.83,8.91,5.85,8.91,7.83c0,.81-.8,1.19-1.99,1.19-.61,0-1.08-.13-1.41-.34-.3-.24-.5-.58-.58-1.24H0C0,10.24,4.07,10.85,6.7,10.85s6-.52,6.95-2.41v5.94h4.82v-4.85c1.16.94,3.13,1.07,4.22,1.07,2.74,0,4.42-1.27,5.25-2.82,1.23,2.02,4.15,3.06,7.01,3.06,2.6,0,5.17-.75,6.57-2.54,1.3,1.65,3.75,2.54,6.69,2.54,1.85,0,3.68-.26,5.06-.89,1.38-.64,2.19-1.88,2.46-3.19h-5.44c-.16.96-.92,1.58-1.98,1.58"/>
  </g>
  <polygon class="st1" points="55.7 6.41 55.7 6.65 56.14 6.65 56.14 7.98 56.45 7.98 56.45 6.65 56.9 6.65 56.9 6.41 55.7 6.41"/>
  <polygon class="st1" points="58.29 6.41 57.89 7.56 57.88 7.56 57.48 6.41 57.07 6.41 57.07 7.98 57.39 7.98 57.39 6.9 57.39 6.9 57.78 7.98 57.99 7.98 58.38 6.91 58.39 6.91 58.39 7.98 58.7 7.98 58.7 6.41 58.29 6.41"/>
</svg>