<?xml version="1.0" encoding="UTF-8"?>
<svg id="Layer_1" data-name="Layer 1" xmlns="http://www.w3.org/2000/svg" xmlns:xlink="http://www.w3.org/1999/xlink" viewBox="0 0 94.67 20.75">
  <defs>
    <style>
      .cls-1 {
        fill: none;
      }

      .cls-2 {
        clip-path: url(#clippath);
      }

      .cls-3 {
        fill: #565759;
      }
    </style>
    <clipPath id="clippath">
      <rect class="cls-1" width="94.67" height="20.75"/>
    </clipPath>
  </defs>
  <g class="cls-2">
    <path class="cls-3" d="M93.89,6.86c-.66-.82-1.8-1.18-2.52-1.18h-9.97v15.08h1.89V7.55h8.92c.48,0,.58.16.58.79v12.41h1.89v-11.46c-.01-.82-.12-1.59-.78-2.44M76.06,18.09c0,.63-.1.79-.6.79h-8.27c-.5,0-.61-.19-.61-.82v-9.71c0-.63.1-.79.61-.79h8.27c.48,0,.6.16.6.82v9.71ZM77.17,6.89c-.66-.82-1.8-1.21-2.52-1.21h-6.69c-.72,0-1.86.38-2.52,1.18-.66.85-.76,1.61-.76,2.44v7.81c0,.82.1,1.59.76,2.41.66.85,1.8,1.24,2.55,1.24h6.66c.72,0,1.86-.38,2.52-1.21.66-.82.76-1.59.76-2.43v-7.78c.01-.82-.1-1.59-.76-2.43M59.35,2.91h1.89V0h-1.89v2.91ZM59.35,20.72h1.89V5.68h-1.89v15.04ZM55.12,6.86c-.66-.82-1.8-1.18-2.52-1.18h-9.97v15.08h1.89V7.55h8.92c.48,0,.58.16.58.79v12.41h1.89v-11.46c0-.82-.12-1.59-.78-2.44M37.57,20.75h2.68l-7.13-8.26,6.82-6.82h-2.69l-5.92,5.91h-2.49V0h-1.89v20.75h1.89v-7.29h2.62l6.12,7.29ZM21.89,11.67c0,.66-.1.79-.6.79h-8.89l.03-4.12c0-.66.07-.79.58-.79h8.27c.51,0,.61.13.61.79v3.33ZM23,6.86c-.66-.82-1.8-1.21-2.52-1.21h-6.69c-.72,0-1.83.39-2.52,1.21-.66.85-.76,1.61-.76,2.44v7.81c0,.85.1,1.59.76,2.43.66.85,1.8,1.21,2.52,1.21h8.99v-1.9h-9.78c-.5,0-.6-.13-.6-.76v-3.72h8.1c.72,0,1.86-.39,2.52-1.21.66-.85.76-1.61.76-2.44v-1.43c-.02-.82-.12-1.59-.78-2.44M4.38,18.88c-.48,0-.58-.16-.58-.69V7.55h3.79v-1.87h-3.81V0h-1.89v5.68H0v1.87h1.9v9.58c0,.82.1,1.59.76,2.42.66.82,1.8,1.18,2.52,1.18h2.39v-1.87h-3.2Z"/>
  </g>
</svg>