<?xml version="1.0" encoding="UTF-8"?>
<svg id="Layer_1" data-name="Layer 1" xmlns="http://www.w3.org/2000/svg" xmlns:xlink="http://www.w3.org/1999/xlink" viewBox="0 0 101.7 20.27">
  <defs>
    <style>
      .cls-1 {
        fill: none;
      }

      .cls-2 {
        fill: #4c5847;
      }

      .cls-3 {
        clip-path: url(#clippath);
      }
    </style>
    <clipPath id="clippath">
      <rect class="cls-1" x="0" y="0" width="101.7" height="20.27"/>
    </clipPath>
  </defs>
  <g class="cls-3">
    <path class="cls-2" d="M9.48,0C4.06,0,0,4.46,0,10.14s4,10.14,9.48,10.14,9.45-4.6,9.45-10.14S14.93,0,9.48,0M9.48,18.68c-4.51,0-7.64-3.92-7.64-8.57S5,1.59,9.48,1.59s7.61,3.86,7.61,8.57-3.07,8.52-7.61,8.52M64.31.2h-8.18v19.87h8.2c4.17,0,6.73-2.04,6.73-5.39,0-3.01-2.36-5.02-7.1-5.02,4.66,0,6.25-2.19,6.25-4.8,0-2.75-2.27-4.66-5.9-4.66M57.92,8.97V1.65h5.99c2.78,0,4.51,1.39,4.51,3.58s-1.79,3.75-4.54,3.75h-5.96ZM57.92,18.6v-8.18h6.27c3.21,0,5.08,1.68,5.08,3.95,0,2.67-1.85,4.23-5.17,4.23h-6.19ZM101.45.2h-2.19l-11.13,11.27V.2h-1.85v19.87h1.85v-6.25l4.49-4.6,6.93,10.84h2.16l-7.14-11.08c-.2-.31-.49-.42-.86-.42h-.43L101.45.2ZM79.13.2h-1.85v19.87h1.85V.2ZM48.98.2h-1.84v19.87h1.84V.2ZM39.98.2h-1.85v19.87h1.85V.2ZM30.98.2h-7.52v1.44h7.04c-.85,0-1.36.59-1.36,1.5v10.09c0,2.95-1.56,5.19-4.54,5.19h-2.47v1.65h3.04c3.63,0,5.82-2.5,5.82-6.27V.2Z"/>
  </g>
</svg>