<?xml version="1.0" encoding="UTF-8"?>
<svg id="Layer_1" data-name="Layer 1" xmlns="http://www.w3.org/2000/svg" xmlns:xlink="http://www.w3.org/1999/xlink" viewBox="0 0 60.29 17.85">
  <defs>
    <style>
      .cls-1 {
        fill: none;
      }

      .cls-2 {
        fill: #414042;
      }

      .cls-3 {
        clip-path: url(#clippath);
      }
    </style>
    <clipPath id="clippath">
      <rect class="cls-1" x="0" y="0" width="60.29" height="17.85"/>
    </clipPath>
  </defs>
  <g class="cls-3">
    <path class="cls-2" d="M30.15,14.25V4.45c0-1.3.64-1.86,1.6-1.86s1.52.52,1.58,1.84l.54,8.1c0,.11.06.13.11.13.03,0,.08-.02.08-.15V3.83c0-.85.41-1.24,1.04-1.24s1.08.38,1.08,1.24v9.81c0,1.3-.62,1.86-1.6,1.86s-1.52-.52-1.58-1.84l-.54-8.1c0-.11-.05-.15-.11-.15-.03,0-.08.03-.08.15v8.69c0,.85-.39,1.25-1.04,1.25s-1.08-.39-1.08-1.25"/>
    <path class="cls-2" d="M39.2,13.87c.21,0,.36-.13.36-.72v-2.09l-.31.16c-.26.13-.36.29-.36.78v1.26c0,.41.11.6.31.6M36.72,13.15v-.99c0-1.42.46-2.04,1.66-2.53l1.17-.46v-1.91c0-.42-.11-.6-.33-.6-.23,0-.34.19-.34.6v.57c0,.8-.39,1.21-1.08,1.21s-.99-.49-.99-1.16v-.38c0-1.52,1.01-2.46,2.4-2.46s2.48.8,2.48,2.61v6.6c0,.85-.34,1.25-.99,1.25s-1.03-.36-1.11-1.06l-.03-.46c-.08.99-.57,1.53-1.34,1.53-1.06-.02-1.5-.85-1.5-2.38"/>
    <path class="cls-2" d="M42.85,12.89v-6.06c-.59-.02-.9-.41-.9-.9s.34-.88.94-.88h.03l.05-.65c.05-.67.42-1.04,1.08-1.04.6,0,.94.41.94,1.11v.59h.24c.63,0,1.03.33,1.03.88s-.39.9-1.03.9h-.24v6c0,.8.2.91.54,1.11.21.11.38.31.38.67,0,.6-.39.9-1.01.9-1.19,0-2.05-.78-2.05-2.61"/>
    <path class="cls-2" d="M46.63,14.25v-7.94c0-.85.39-1.26,1.09-1.26s1.08.41,1.08,1.26v7.94c0,.85-.38,1.25-1.08,1.25s-1.09-.39-1.09-1.25"/>
    <path class="cls-2" d="M52.38,13.24v-5.9c0-.44-.11-.62-.34-.62-.21,0-.33.18-.33.62v5.9c0,.42.11.6.33.6.26-.02.34-.21.34-.6M49.56,12.52v-4.48c0-2.1,1.11-3.02,2.49-3.02s2.49.93,2.49,3.02v4.48c0,2.09-1.09,3-2.49,3s-2.49-.91-2.49-3"/>
    <path class="cls-2" d="M55.3,14.25v-7.94c0-.85.39-1.26,1.04-1.26s1.03.36,1.08,1.06l.03.63c.03-1.11.52-1.71,1.34-1.71,1.08,0,1.5.83,1.5,2.36v6.85c0,.85-.39,1.25-1.09,1.25s-1.08-.41-1.08-1.25v-6.85c0-.42-.11-.6-.33-.6-.2,0-.36.13-.36.72v6.73c0,.85-.38,1.25-1.08,1.25s-1.06-.39-1.06-1.25"/>
    <path class="cls-2" d="M3.49,12.8v-.8c0-.99.39-1.4,1.09-1.4s1.09.41,1.09,1.25v1.37c0,.44.08.62.36.62.24,0,.34-.18.34-.62v-1.42c0-1.22-.23-1.38-.75-1.83l-.77-.65c-.83-.73-1.35-1.45-1.35-3v-.99c-.02-1.82.99-2.75,2.51-2.75s2.49.99,2.49,2.69v.41c0,.99-.39,1.4-1.08,1.4s-1.09-.41-1.09-1.25v-.95c0-.44-.08-.62-.34-.62-.24,0-.36.18-.36.62v.96c0,1.21.24,1.35.75,1.78l.77.64c.9.77,1.34,1.52,1.34,3.14v1.3c0,1.87-.99,2.8-2.49,2.8-1.55.02-2.51-.98-2.51-2.7"/>
    <path class="cls-2" d="M9.28,14.25V3.83c0-.85.39-1.24,1.09-1.24s1.08.38,1.08,1.24v10.41c0,.85-.38,1.25-1.08,1.25s-1.09-.39-1.09-1.25"/>
    <path class="cls-2" d="M14.36,7.35v1.94h.47c.13,0,.18-.05.18-.31v-1.63c0-.44-.11-.62-.34-.62-.2,0-.31.18-.31.62M14.69,13.9c.24,0,.34-.21.34-.62v-.6c0-.85.39-1.26,1.08-1.26s1.04.41,1.04,1.11v.41c0,1.68-1.04,2.59-2.46,2.59s-2.49-.93-2.49-3.01v-4.47c0-2.1,1.11-3.02,2.49-3.02s2.49.93,2.49,3.02v1.5c0,.85-.39,1.27-1.22,1.27h-1.58v2.46c-.02.42.1.62.31.62"/>
    <path class="cls-2" d="M20.05,7.35v1.94h.47c.13,0,.18-.05.18-.31v-1.63c0-.44-.11-.62-.34-.62-.2,0-.31.18-.31.62M20.38,13.9c.25,0,.34-.21.34-.62v-.6c0-.85.39-1.26,1.08-1.26s1.04.41,1.04,1.11v.41c0,1.68-1.04,2.59-2.46,2.59s-2.49-.91-2.49-3v-4.48c0-2.1,1.11-3.02,2.49-3.02s2.49.93,2.49,3.02v1.5c0,.85-.39,1.27-1.22,1.27h-1.58v2.46c-.02.42.1.62.31.62"/>
    <path class="cls-2" d="M26.39,7.4c0-.42-.13-.6-.33-.6-.21,0-.36.13-.36.72v5.62c0,.57.15.68.36.68.19,0,.33-.18.33-.6v-5.82ZM28.54,7.4v5.82c0,1.53-.42,2.36-1.52,2.36-.77,0-1.22-.52-1.32-1.5v2.51c0,.85-.39,1.25-1.07,1.25s-1.09-.41-1.09-1.25V6.31c0-.85.39-1.26,1.03-1.26s1.04.36,1.08,1.06l.02.51c.07-.99.55-1.58,1.35-1.58,1.11,0,1.53.85,1.53,2.36"/>
    <path class="cls-2" d="M47.85,4.75c.16.02.31.05.47.06.08.02.18.03.28.05-.02-.03-.02-.05-.03-.08-.02-.05-.03-.1-.05-.15-.02-.03,0-.05.02-.06.07-.07.15-.13.21-.18.18-.15.38-.28.55-.42.02,0,.02-.02.03-.02-.05-.02-.1-.05-.13-.07q-.1-.05-.07-.15c.03-.11.08-.24.13-.36,0-.02.02-.05.03-.06-.08.03-.18.05-.26.06-.05.02-.11.02-.16.03-.05,0-.06,0-.08-.05-.02-.06-.03-.13-.06-.21,0,.02-.02.03-.02.03-.11.13-.24.24-.36.36-.02.02-.05.03-.07.07h-.02v-.1c.03-.18.06-.36.1-.52.02-.1.05-.2.07-.29v-.03s-.05.03-.08.05c-.05.03-.11.06-.16.1-.05.03-.06.03-.08-.03-.05-.11-.11-.21-.16-.33-.03-.08-.06-.15-.1-.24-.02.02-.02.03-.02.05-.08.15-.15.31-.23.46q-.07.11-.16.05s-.1-.07-.15-.11c-.02,0-.02-.02-.03-.02.02.08.03.15.03.21.03.21.07.42.08.64v.1h-.02s-.03-.03-.05-.05c-.11-.13-.23-.24-.33-.38-.02-.02-.03-.03-.05-.06,0,.02-.02.03-.02.05-.02.05-.03.11-.05.16-.02.03-.05.05-.08.05-.11-.03-.21-.07-.33-.1-.03-.02-.07-.02-.1-.03,0,.02.02.03.02.05.05.15.1.29.13.44,0,.05,0,.07-.05.08-.05.03-.11.05-.18.08.07.05.13.1.18.15.18.15.36.29.52.46.11.1.1.07.05.21-.02.05-.05.1-.07.15.08-.02.15-.02.23-.03.18-.02.34-.03.52-.05"/>
    <path class="cls-2" d="M1.13,1.44c.23-.07.49-.05.67.1.18.16.23.47.05.65.08-.1.24-.02.28.1.03.13-.05.24-.15.33-.1.08-.21.15-.28.23.15.16.13.44-.03.59-.16.15-.44.1-.57-.08-.15.2-.44.23-.62.07-.18-.16-.18-.47,0-.64-.19.05-.44-.08-.47-.29-.03-.21.18-.42.38-.38-.13-.15-.15-.39-.02-.54.11-.15.36-.19.52-.1.1-.18.37-.18.49-.02"/>
    <path class="cls-2" d="M4.14,3.46s1.48-.06,2.02-.93C6.16,2.53,4.93.1,3.59,0,2.25-.1,1,2.5,1.14,2.5c.16,0,2.04-1.48,2.04-1.48,0,0,.39,1.66.96,2.45"/>
  </g>
</svg>