<?xml version="1.0" encoding="UTF-8"?>
<svg id="Layer_1" xmlns="http://www.w3.org/2000/svg" xmlns:xlink="http://www.w3.org/1999/xlink" version="1.1" viewBox="0 0 51.71 23.71">
  <!-- Generator: Adobe Illustrator 29.1.0, SVG Export Plug-In . SVG Version: 2.1.0 Build 142)  -->
  <defs>
    <style>
      .st0 {
        fill: none;
      }

      .st1 {
        fill: #414042;
      }

      .st2 {
        clip-path: url(#clippath);
      }
    </style>
    <clipPath id="clippath">
      <rect class="st0" width="51.71" height="23.63"/>
    </clipPath>
  </defs>
  <g class="st2">
    <path class="st1" d="M43.94,19.54c-.08-.14-.17-.27-.27-.41-.64-.86-1.14-1.52-2.25-3.03-1.11-1.52.17-2.55,1.22-2.54.54,0,1.04,0,1.38,0-.31.89-.48,1.91-.49,3.08,0,1.03.13,2.02.4,2.91M51.35,20.06c-2.34.38-3.28-.54-3.51-1.62h3.67v-3.57h-3.45c.43-2.02,3.45-1.63,3.45-1.63v-2.95c-3.06-1.09-5.68-.21-7.02,2.2v-2.33c-3.03-.7-5.06.05-6.44,1.3-.09.08-.17.17-.25.26v-1.56c-3.03-.7-5.06.05-6.44,1.3-.38.34-.66.82-.86,1.35v-2.88h-5.84l-3.67,10.23c-1.72-.2-2.23-1.08-2.26-2.71,0-.3,0-.42,0-.78.01-3.48,3.07-2.89,3.07-2.89v-3.62c-2.27-.62-5.85.52-6.96,4.85,0,0,0,.05-.02.13v-5.2h-5.84l-3.7,10.27h-1.4v-10.27H0v13.67h8.2l2.75-8.44v8.44h3.88v-4.09c.02.07.04.13.06.2.37,1.01,1.2,3.27,4.12,3.73,1.83.29,3.08.16,3.08.16h1.8l2.75-8.44v8.44h3.88v-6.56c.6.91,1.26,1.66,1.96,2.62,1.54,2.12.42,3.94.42,3.94h4.55s1.25-2.16-.45-4.46c-.64-.86-1.14-1.52-2.24-3.03-1.11-1.52.17-2.55,1.22-2.54.36,0,.71,0,1,0-.31,1.35-.21,2.81.16,3.38.62.95,1.3,1.72,2.02,2.72,1.54,2.12.42,3.94.42,3.94h4.55s.7-1.21.34-2.78c.9,1.7,2.49,2.8,4.89,2.78,1.43-.02,2.36-.4,2.36-.4v-3.24c-.06.01-.3.09-.35.1M51.48,7.92H.06v.87h51.42v-.87ZM8.74,6.45c.47.03,1.34,0,1.34,0V2.45h-1.29v2.77s-.07.02-.26,0c-.43-.04-1.25-.7-1.27-1.95,0,0-.15-2.48,2.52-2.01V.08c-1.17-.29-3.79.1-3.81,3.06-.02,2.85,1.8,3.32,2.76,3.31M16.74,1.28c.76-.02.81.91.81,2.03s-.15,2.04-.81,2.03c-.71-.01-.85-.91-.85-2.03s.13-2.02.85-2.03M16.72,6.51c1.64,0,2.18-1.25,2.18-3.16s-.47-3.18-2.18-3.2c-1.58-.01-2.18,1.28-2.18,3.2s.64,3.16,2.18,3.16M11.78,1.2s.32,0,.56,0c.46.01.83.1.85.72.01.78-.73.86-1.32.92l1.4,3.6h1.39v-.05s-1.09-2.76-1.09-2.76v-.02s.95-.42.93-1.8c-.02-.98-.7-1.7-1.88-1.73-.95-.02-.68,0-2.13,0v6.36h1.3V1.2ZM24.64,1.2s.41-.01.65,0c.46.01.8.1.81.72.01.78-1.11.89-1.33.91l.42,1.15s.94-.26,1.24-.4c.1-.05.96-.38.94-1.77-.01-.98-.65-1.7-1.83-1.73-.95-.02-.68,0-2.2,0v6.36h1.3V1.2ZM21.02,6.55h.02c.9.03,1.91-.52,1.91-1.63v-.03s0-4.8,0-4.8h-1.28v4.77c0,.26-.3.52-.63.53-.32.01-.62-.27-.62-.53V.1h-1.31v4.82c0,1.1,1.01,1.66,1.92,1.64M29.64,6.44c.65,0,.84-.18.84-.18v-1.18s-.15.08-.32.1c-.97.1-1.42-.37-1.42-1.22h1.69v-1.3h-1.69c.01-1.04.92-1.2,1.41-1.21.16-.01.28.08.28.08V.34c-1.95-.44-3.19.55-3.19,2.99,0,1.72.56,3.13,2.4,3.11"/>
  </g>
</svg>