<?xml version="1.0" encoding="UTF-8"?>
<svg id="Layer_1" xmlns="http://www.w3.org/2000/svg" xmlns:xlink="http://www.w3.org/1999/xlink" version="1.1" viewBox="0 0 62.85 12.38">
  <!-- Generator: Adobe Illustrator 29.1.0, SVG Export Plug-In . SVG Version: 2.1.0 Build 142)  -->
  <defs>
    <style>
      .st0 {
        fill: none;
      }

      .st1 {
        fill: #414042;
      }

      .st2 {
        clip-path: url(#clippath);
      }
    </style>
    <clipPath id="clippath">
      <rect class="st0" width="62.85" height="12.38"/>
    </clipPath>
  </defs>
  <g class="st2">
    <path class="st1" d="M1.18,4.21h.59c.27,0,.53.05.77.15.24.11.46.25.63.43.18.18.32.39.42.63.11.24.16.5.16.77s-.05.53-.16.77c-.1.24-.25.45-.42.63-.18.18-.39.32-.63.43-.24.1-.5.16-.77.16h-.59v-3.96ZM.37,9.19h.62s.77,0,.77,0c.41,0,.82-.09,1.19-.24.36-.16.69-.37.95-.64.27-.27.48-.59.64-.95.15-.36.23-.76.23-1.17s-.08-.8-.24-1.17c-.15-.36-.37-.68-.64-.95-.27-.27-.59-.48-.95-.64-.36-.16-.76-.24-1.17-.24H.37c-.11,0-.2.09-.2.2v5.61c0,.11.09.2.2.2M6.63,9.2h2.89c.11,0,.19-.1.19-.2v-.63c0-.11-.09-.2-.19-.2h-2.06v-1.6h1.5c.11,0,.19-.09.19-.2v-.63c0-.11-.09-.19-.19-.19h-1.5v-1.35h2.06c.11,0,.19-.09.19-.2v-.62c0-.11-.09-.2-.19-.2h-2.89c-.11,0-.2.09-.2.2v5.61c0,.11.09.2.2.2M9.53,11.16H.2C.09,11.16,0,11.25,0,11.36v.53c0,.11.09.2.2.2h9.34c.11,0,.19-.09.19-.2v-.53c0-.11-.09-.2-.19-.2M22.49,6.73h-2.85c-.16,0-.29.13-.29.29v1.03c0,.16.13.29.29.29h1.53v1.35c-.3.31-.65.55-1.03.72-.41.17-.85.27-1.33.28-.45,0-.88-.09-1.28-.26-.4-.17-.76-.41-1.06-.71-.3-.3-.54-.65-.72-1.05-.17-.4-.27-.83-.27-1.27s.09-.88.25-1.28c.16-.4.4-.76.71-1.08.31-.32.67-.56,1.06-.72.4-.16.83-.25,1.27-.26h.03c.5,0,.97.1,1.4.31.44.21.82.51,1.14.89.05.06.12.1.2.1h.03c.07,0,.14-.02.19-.07l.79-.67c.06-.05.1-.12.11-.2,0-.08-.02-.15-.07-.21-.47-.56-1.05-1-1.7-1.31-.64-.3-1.32-.45-2.03-.45h-.07c-.66,0-1.29.12-1.89.37-.59.25-1.13.62-1.59,1.09-.47.47-.82,1.01-1.07,1.61-.24.6-.36,1.24-.35,1.88,0,.68.13,1.32.39,1.92.26.58.61,1.11,1.06,1.55.45.44.98.8,1.57,1.05.59.25,1.24.38,1.91.38h.03c.52,0,1.02-.1,1.5-.31.31-.14.62-.29.91-.47l.09.51c.02.14.14.25.28.25h.88c.16,0,.29-.13.29-.29v-4.96c0-.16-.13-.29-.29-.29M43.11,8c-.26-.42-.63-.76-1.09-1l-2.58-1.15c-.19-.11-.34-.25-.45-.42-.1-.16-.16-.33-.16-.51,0-.11.03-.21.09-.32.06-.11.15-.2.26-.28.12-.09.26-.16.42-.21.16-.05.34-.08.52-.08.3,0,.57.08.8.24.23.16.39.36.47.59.05.15.21.23.37.18l.98-.32c.15-.05.24-.21.18-.36-.09-.29-.23-.55-.41-.79-.18-.24-.4-.44-.65-.61-.25-.17-.52-.3-.82-.39-.65-.2-1.4-.17-2.04.06-.35.13-.67.31-.92.53-.26.22-.48.48-.63.78-.16.31-.24.64-.24.99,0,.48.13.94.4,1.37.26.42.63.75,1.11,1l2.57,1.15c.2.11.35.25.46.42.11.16.16.33.16.52,0,.03,0,.05.01.08-.01.16-.05.31-.12.44-.09.17-.21.32-.37.45-.16.13-.36.23-.57.31-.41.15-.95.15-1.37.01-.2-.06-.39-.16-.54-.28-.16-.12-.3-.26-.41-.43-.11-.16-.18-.33-.21-.52-.01-.07-.06-.14-.12-.19-.06-.04-.12-.06-.22-.04l-1.01.2c-.08.01-.14.06-.19.12-.04.06-.06.14-.04.22.08.38.22.74.43,1.06.2.32.46.6.76.83.3.23.64.42,1.02.54.38.13.78.19,1.2.19.46,0,.9-.08,1.31-.23.41-.16.77-.37,1.07-.64.3-.27.55-.59.73-.95.18-.37.27-.76.27-1.18,0-.03,0-.06-.02-.1-.01-.46-.15-.89-.4-1.28M49.01,4.12h1.52c.53,0,.97.18,1.34.56.37.37.56.82.56,1.34,0,.28-.05.69-.15.91-.1.23-.24.43-.41.61-.17.17-.37.31-.61.41-.23.1-.48.14-.74.14h-1.52v-3.97ZM53.01,3.53c-.33-.33-.72-.59-1.14-.77-.43-.18-.88-.27-1.35-.27h-2.85c-.16,0-.29.13-.29.29v9.21c0,.16.13.29.29.29h1.04c.16,0,.29-.13.29-.29v-2.3h1.48c.48,0,.94-.1,1.37-.28.43-.18.81-.43,1.13-.75.32-.31.58-.69.77-1.11.21-.47.28-1.13.28-1.55,0-.46-.09-.91-.27-1.34-.18-.43-.44-.81-.77-1.14M62.56,4.11c.16,0,.29-.13.29-.29v-1.02c0-.16-.13-.29-.29-.29h-4.74c-.16,0-.29.13-.29.29v9.21c0,.16.13.29.29.29h1.03s.06,0,.09-.01h3.62c.16,0,.29-.13.29-.29v-1.03c0-.16-.13-.29-.29-.29h-3.42v-2.35h2.99c.16,0,.29-.13.29-.29v-1.02c0-.16-.13-.29-.29-.29h-2.99v-2.61h3.42ZM59.53,1.98h.68c.08,0,.16-.03.22-.09l1.56-1.4c.09-.08.13-.21.1-.32-.03-.11-.12-.18-.24-.18h-1.28c-.11,0-.21.06-.28.15l-.96,1.4c-.06.09-.07.2-.04.29.04.09.13.14.23.14M30,5.96l1.02,2.44h-2.05l1.02-2.44ZM26.03,12.26h1.08c.24,0,.31-.16.31-.16l.9-2.15h3.35l.88,2.09s.08.22.31.22h1.11c.11,0,.19-.08.21-.14.03-.07.03-.15,0-.22l-3.91-9.32c-.05-.11-.15-.18-.27-.18s-.22.07-.27.18l-3.91,9.32c-.03.08-.03.15,0,.23.02.06.12.13.22.13"/>
  </g>
</svg>