<?xml version="1.0" encoding="UTF-8"?>
<svg id="Layer_1" xmlns="http://www.w3.org/2000/svg" xmlns:xlink="http://www.w3.org/1999/xlink" version="1.1" viewBox="0 0 60.38 13.01">
  <!-- Generator: Adobe Illustrator 29.1.0, SVG Export Plug-In . SVG Version: 2.1.0 Build 142)  -->
  <defs>
    <style>
      .st0 {
        fill: none;
      }

      .st1 {
        fill: #414042;
      }

      .st2 {
        clip-path: url(#clippath);
      }
    </style>
    <clipPath id="clippath">
      <rect class="st0" width="60.38" height="13.01"/>
    </clipPath>
  </defs>
  <g class="st2">
    <path class="st1" d="M59.89,4.3c-.42-.51-1.15-.74-1.61-.74h-6.36v9.45h1.2V4.73h5.69c.3,0,.37.1.37.5v7.78h1.2v-7.18c0-.51-.07-.99-.49-1.52M48.51,11.34c0,.4-.07.5-.39.5h-5.28c-.32,0-.39-.12-.39-.51v-6.09c0-.4.07-.5.39-.5h5.28c.31,0,.39.1.39.51v6.09ZM49.22,4.32c-.42-.51-1.15-.76-1.61-.76h-4.26c-.46,0-1.18.23-1.61.74-.42.53-.49,1.01-.49,1.52v4.9c0,.51.07.99.49,1.51.42.53,1.15.78,1.62.78h4.25c.46,0,1.18-.23,1.61-.76.42-.51.49-.99.49-1.52v-4.88c0-.51-.07-.99-.49-1.52M37.85,1.82h1.2V0h-1.2v1.82ZM37.85,12.99h1.2V3.56h-1.2v9.43ZM35.16,4.3c-.42-.51-1.15-.74-1.61-.74h-6.36v9.45h1.2V4.73h5.69c.3,0,.37.1.37.5v7.78h1.2v-7.18c0-.51-.07-.99-.49-1.52M23.96,13.01h1.71l-4.55-5.18,4.35-4.27h-1.71l-3.77,3.71h-1.59V0h-1.2v13.01h1.2v-4.57h1.68l3.89,4.57ZM13.96,7.31c0,.41-.07.5-.39.5h-5.67l.02-2.58c0-.41.05-.5.37-.5h5.28c.32,0,.39.08.39.5v2.09ZM14.67,4.3c-.42-.51-1.15-.76-1.61-.76h-4.26c-.46,0-1.17.25-1.61.76-.42.53-.49,1.01-.49,1.52v4.9c0,.53.07.99.49,1.52.42.53,1.15.76,1.61.76h5.74v-1.19h-6.24c-.32,0-.39-.08-.39-.48v-2.33h5.16c.46,0,1.19-.25,1.61-.76.42-.53.49-1.01.49-1.52v-.89c0-.51-.07-.99-.49-1.52M2.79,11.83c-.31,0-.37-.1-.37-.43v-6.67h2.42v-1.17h-2.42V0h-1.2v3.56H0v1.17h1.22v6.01c0,.51.07.99.49,1.52.42.51,1.15.74,1.61.74h1.52v-1.17h-2.05Z"/>
  </g>
</svg>