<svg width="160" height="32" viewBox="0 0 160 32" fill="none" xmlns="http://www.w3.org/2000/svg">
<mask id="mask0_745_41906" style="mask-type:luminance" maskUnits="userSpaceOnUse" x="0" y="0" width="160" height="32">
<path d="M159.75 0H0V31.84H159.75V0Z" fill="white"/>
</mask>
<g mask="url(#mask0_745_41906)">
<path d="M100.71 29.21H90.99V16.37H100.85C105.89 16.37 108.83 19 108.83 22.57C108.83 26.76 105.93 29.21 100.71 29.21ZM90.99 2.59H100.4C104.77 2.59 107.49 4.77 107.49 8.21C107.49 11.65 104.68 14.1 100.36 14.1H90.99V2.59ZM100.49 15.16C107.8 15.16 110.3 11.73 110.3 7.62C110.3 3.3 106.73 0.31 101.02 0.31H88.18V31.53H101.07C107.62 31.53 111.64 28.32 111.64 23.06C111.64 18.33 107.94 15.17 100.49 15.17M148.54 14.13C148.23 13.64 147.77 13.47 147.19 13.47H146.51L159.35 0.31H155.92L138.44 18.01V0.31H135.54V31.53H138.44V21.72L145.49 14.5L156.37 31.53H159.76L148.55 14.13H148.54ZM74.04 31.53H76.94V0.31H74.04V31.53ZM121.39 31.53H124.29V0.31H121.39V31.53ZM59.9 31.53H62.8V0.31H59.9V31.53ZM14.89 29.34C7.8 29.34 2.89 23.19 2.89 15.87C2.89 8.55 7.85 2.5 14.89 2.5C21.93 2.5 26.84 8.56 26.84 15.97C26.84 23.38 22.02 29.35 14.89 29.35M14.89 0C6.38 0 0 7 0 15.92C0 24.84 6.29 31.84 14.89 31.84C23.49 31.84 29.74 24.62 29.74 15.92C29.74 7.22 23.46 0 14.89 0ZM36.85 0.31V2.57H47.9C46.56 2.57 45.77 3.49 45.76 4.92V20.78C45.76 25.42 43.31 28.94 38.62 28.94H34.74V31.53H39.51C45.22 31.53 48.65 27.61 48.65 21.68V0.31H36.84H36.85Z" fill="white"/>
</g>
</svg>
