<?xml version="1.0" encoding="UTF-8"?>
<svg id="Layer_1" xmlns="http://www.w3.org/2000/svg" xmlns:xlink="http://www.w3.org/1999/xlink" version="1.1" viewBox="0 0 108.42 36.32">
  <!-- Generator: Adobe Illustrator 29.1.0, SVG Export Plug-In . SVG Version: 2.1.0 Build 142)  -->
  <defs>
    <style>
      .st0 {
        fill: none;
      }

      .st1 {
        fill: #8c8e90;
      }

      .st2 {
        clip-path: url(#clippath);
      }
    </style>
    <clipPath id="clippath">
      <rect class="st0" x="0" y="0" width="108.42" height="36.32"/>
    </clipPath>
  </defs>
  <g class="st2">
    <path class="st1" d="M40.05,14.6h3.19v-3.2h-3.19v3.19h0ZM32.88,6.87h2.5c1.49,0,2.82-.33,2.82-2.19s-1.32-2.19-2.83-2.19h-2.49v4.38ZM29.69,0h6.58c3.64,0,5.04,2.31,5.04,4.69s-1.41,4.68-5.04,4.68h-3.37v5.23h-3.21V.01h0ZM18.25,11.91h2.85c1.86,0,3.65-1.15,3.65-4.38,0-2.93-1.03-4.82-4.21-4.82h-2.28v9.2h0ZM15.04.01h6.29c3.78,0,6.63,2.37,6.63,7.2,0,4.23-2.17,7.38-6.63,7.38h-6.29V.01ZM4.27,12.09h3.44c1.27,0,2.37-.41,2.37-1.91s-.95-2.1-2.31-2.1h-3.51v4.01h0ZM4.27,5.89h3.25c1.13,0,1.97-.5,1.97-1.73,0-1.39-1.07-1.67-2.22-1.67h-3.01v3.42h0v-.02ZM1.07.02h6.86C10.7.02,12.58.91,12.58,3.63c.02.66-.15,1.27-.51,1.83-.36.56-.85.96-1.46,1.21,1.78.51,2.68,1.88,2.68,3.7,0,2.96-2.52,4.23-5.15,4.23H1.07V.02Z"/>
    <path class="st1" d="M7.18,32.66c1.39,0,2.57-.27,3.54-.83h0s2.07,1.85,2.07,1.85l1.49-1.55-1.82-1.66c.62-.71,1.1-1.51,1.41-2.41.32-.91.49-1.87.49-2.96s-.16-2.1-.49-3.04c-.28-.91-.75-1.72-1.38-2.44-.64-.71-1.4-1.26-2.27-1.64-.97-.41-1.98-.61-3.03-.59-1.12,0-2.12.2-3.01.59-.88.38-1.63.92-2.26,1.64-.63.72-1.1,1.53-1.4,2.43-.68,2-.68,4.01,0,6.01.32.91.79,1.72,1.4,2.4.61.69,1.37,1.21,2.26,1.61.88.39,1.89.58,3.01.58M10.89,27.08c-.16.55-.37,1-.65,1.38l-.02-.02-1.65-1.5-1.5,1.6,1.38,1.24c-.16.09-.33.14-.51.17-.18.03-.43.04-.77.04-.61.03-1.19-.09-1.73-.36-.55-.27-.99-.66-1.33-1.17-.32-.48-.55-1-.68-1.56-.29-1.22-.29-2.43,0-3.65.14-.6.36-1.13.68-1.6.31-.47.73-.85,1.23-1.13.5-.27,1.11-.41,1.83-.41s1.34.14,1.84.41c.51.28.91.67,1.23,1.13.31.47.55,1,.68,1.6.31,1.28.29,2.56-.04,3.84M23.07,30.87v1.47h2.76v-10.59h-2.9v5.56c0,1.08-.18,1.85-.53,2.32-.36.47-.93.7-1.72.7-.69,0-1.17-.21-1.44-.64-.32-.61-.46-1.26-.42-1.95v-5.97h-2.9v6.49c0,.67.06,1.26.17,1.8.12.54.32.99.6,1.37.28.37.67.66,1.18.87,1.25.46,2.48.42,3.7-.1.58-.27,1.06-.73,1.43-1.33h.06ZM27.52,25.03c.05-.68.22-1.25.51-1.69.3-.46.68-.81,1.15-1.09.46-.27.98-.46,1.56-.58.58-.12,1.16-.17,1.75-.17.53,0,1.08.04,1.61.11.55.07,1.05.22,1.49.44.45.22.82.52,1.11.91.28.39.42.91.42,1.55v5.5c0,.47.03.93.09,1.37.05.44.15.77.27.98h-2.94c-.11-.33-.18-.67-.2-1.02-.46.47-1,.8-1.63,1-.62.18-1.28.28-1.92.28-.51,0-.98-.06-1.41-.18-.43-.13-.82-.32-1.15-.57-.33-.26-.59-.59-.77-.98-.19-.45-.29-.92-.27-1.41,0-.59.1-1.09.32-1.48.21-.39.47-.7.82-.93.35-.24.73-.41,1.14-.52.85-.22,1.71-.36,2.59-.44.38-.03.75-.1,1.12-.18.33-.09.58-.2.78-.36.19-.15.27-.38.27-.68,0-.32-.05-.56-.15-.75-.1-.18-.23-.32-.41-.43-.18-.11-.37-.18-.59-.21-.24-.03-.49-.05-.73-.05-.57,0-1.02.12-1.35.36-.33.26-.51.66-.57,1.23h-2.91ZM34.23,27.17c-.13.11-.27.19-.46.26-.41.14-.83.22-1.26.26l-.69.1c-.23.05-.44.09-.65.16-.2.06-.38.15-.55.27-.38.28-.55.65-.53,1.11,0,.27.06.47.15.66.09.18.23.31.39.42.16.1.36.17.58.21.22.05.44.06.66.06.57,0,1.02-.09,1.33-.29.32-.18.55-.42.69-.68.15-.27.25-.54.27-.81.04-.27.05-.48.05-.65v-1.08ZM45.05,32.22c.55-.26,1-.67,1.34-1.23v-.03h.05v1.35h2.76v-14.57h-2.91v5.32h-.04c-.33-.52-.78-.91-1.34-1.18-.57-.27-1.17-.4-1.8-.39-1.45-.03-2.61.53-3.5,1.67-.4.53-.69,1.11-.88,1.75-.4,1.39-.4,2.78,0,4.18.19.69.48,1.3.88,1.82.42.56.94.99,1.57,1.3.63.3,1.3.44,1.99.41.69,0,1.32-.13,1.87-.38h0ZM45.84,24.71c.2.31.34.67.42,1.07v-.02c.18.84.18,1.68,0,2.52-.09.41-.23.77-.42,1.09-.18.32-.45.58-.77.77-.37.21-.77.31-1.19.29-.45,0-.83-.09-1.15-.3-.33-.19-.58-.46-.8-.78-.21-.31-.37-.68-.46-1.09-.2-.82-.21-1.65-.02-2.48.09-.39.24-.76.44-1.07.2-.31.46-.57.78-.76.33-.19.73-.29,1.21-.29.86-.04,1.51.31,1.95,1.04M53.75,21.77v1.96h.05c.29-.67.74-1.21,1.34-1.62.62-.4,1.29-.61,2.02-.63.19,0,.41.04.64.11v2.69c-.34-.06-.69-.09-1.04-.09-.53,0-.98.09-1.35.27-.37.17-.67.41-.89.72-.23.31-.38.67-.48,1.07-.09.42-.15.86-.15,1.33v4.77h-2.9v-10.57h2.76ZM59,23.32c-.32.52-.49,1.09-.51,1.7h0s2.91.01,2.91.01c.05-.57.24-.98.57-1.23.33-.25.78-.36,1.35-.36.26,0,.5,0,.73.05.22.04.41.1.58.21.18.09.31.25.41.43.11.18.15.43.15.75.02.3-.07.53-.27.68-.18.16-.44.27-.77.36-.34.08-.7.14-1.13.18-.88.07-1.74.22-2.59.44-.41.11-.79.28-1.14.52-.35.24-.62.55-.82.93-.21.39-.31.88-.31,1.48,0,.55.09,1.01.27,1.41.18.39.44.72.77.98.33.26.71.46,1.15.57,1.12.27,2.22.23,3.32-.11.63-.19,1.18-.53,1.64-1,.03.35.09.69.2,1.03h2.94c-.14-.22-.23-.55-.28-.98-.06-.44-.09-.89-.09-1.37v-5.51c0-.64-.13-1.16-.42-1.55-.29-.39-.66-.7-1.1-.91-.47-.23-.97-.37-1.49-.44-.55-.07-1.09-.11-1.61-.11-.59,0-1.18.06-1.75.17-.58.12-1.1.31-1.57.58-.46.27-.84.64-1.14,1.09ZM64.73,27.42c.18-.06.34-.15.46-.26v1.08c0,.16,0,.37-.04.65-.04.27-.13.55-.27.81-.15.27-.38.49-.69.68-.32.19-.77.29-1.33.29-.24,0-.46-.02-.67-.06-.2-.03-.39-.11-.57-.21-.17-.1-.3-.24-.39-.42-.09-.18-.15-.38-.15-.66-.03-.46.15-.84.52-1.11.15-.11.34-.2.55-.27.44-.15.88-.24,1.34-.27.43-.05.85-.13,1.26-.25h0ZM72.7,21.77v1.47h.05c.34-.59.82-1.04,1.43-1.34,1.22-.54,2.45-.57,3.7-.1.5.21.89.5,1.18.87.29.38.48.83.6,1.37.12.55.18,1.14.18,1.8v6.5h-2.92v-5.96c0-.88-.13-1.52-.4-1.95-.27-.43-.76-.64-1.46-.64-.78,0-1.35.23-1.71.7-.36.47-.53,1.24-.53,2.31v5.54h-2.91v-10.57h2.76s0,0,0,0ZM90.78,34.64c.38-.47.63-.99.75-1.52v.02c.11-.55.16-1.03.16-1.46v-9.87h-2.75v1.4h-.05c-.31-.57-.74-1-1.31-1.3-.58-.27-1.19-.4-1.83-.39-1.38-.03-2.51.5-3.37,1.58-.39.51-.68,1.06-.87,1.68-.2.64-.3,1.3-.3,1.97,0,.72.09,1.4.25,2.05.17.64.44,1.21.81,1.7.36.48.84.86,1.4,1.14.58.28,1.26.42,2.05.42.64,0,1.25-.13,1.82-.4.58-.26,1.03-.67,1.34-1.23h.05v1.39c0,.75-.16,1.37-.55,1.86-.37.48-.97.73-1.79.73-.51,0-.97-.09-1.37-.31-.44-.26-.7-.64-.79-1.13h-2.88c.04.59.2,1.11.5,1.54.29.43.66.78,1.09,1.05.45.27.94.47,1.48.6.55.14,1.07.19,1.59.19,1.21,0,2.19-.16,2.9-.48.65-.26,1.2-.66,1.66-1.18v-.02ZM88.32,28.95c-.46.63-1.08.93-1.86.91-.82.03-1.43-.32-1.84-1.03-.18-.29-.32-.63-.39-1-.15-.76-.15-1.51.02-2.27.09-.36.24-.67.44-.96.43-.63,1.02-.93,1.79-.91.84-.05,1.49.28,1.94.99.18.29.32.64.4,1.02.09.39.13.8.13,1.24,0,.37-.05.74-.15,1.09-.1.34-.25.65-.46.92h0ZM96.52,17.75v14.59h-2.91v-14.59h2.91ZM103.38,30.44c-.82,0-1.44-.21-1.88-.64h0c-.43-.42-.67-1.09-.71-2.04h7.62c.06-.79-.01-1.57-.21-2.34-.17-.73-.48-1.4-.92-2.01-.47-.63-1.06-1.11-1.76-1.45-.71-.34-1.45-.49-2.23-.47-1.53-.02-2.83.51-3.91,1.59-.49.52-.85,1.11-1.09,1.78-.27.71-.41,1.45-.4,2.21,0,.77.12,1.52.38,2.25.47,1.39,1.39,2.36,2.76,2.89.73.27,1.48.4,2.25.39,1.1.03,2.12-.24,3.06-.82.95-.68,1.58-1.58,1.88-2.71h-2.55c-.09.32-.36.63-.77.92-.46.31-.96.46-1.51.45M103.19,23.67c.7,0,1.23.18,1.58.57.36.37.59.94.73,1.67h-4.72c.02-.2.06-.43.14-.69.19-.6.56-1.04,1.12-1.31.3-.16.68-.24,1.16-.24"/>
  </g>
</svg>