<?xml version="1.0" encoding="UTF-8"?>
<svg id="Layer_1" xmlns="http://www.w3.org/2000/svg" xmlns:xlink="http://www.w3.org/1999/xlink" version="1.1" viewBox="0 0 265.27 20.28">
  <!-- Generator: Adobe Illustrator 29.1.0, SVG Export Plug-In . SVG Version: 2.1.0 Build 142)  -->
  <defs>
    <style>
      .st0, .st1 {
        fill: none;
      }

      .st2, .st3 {
        fill: #4c5847;
      }

      .st4 {
        fill: #6dc069;
      }

      .st5 {
        clip-path: url(#clippath-1);
      }

      .st6 {
        clip-path: url(#clippath-3);
      }

      .st7 {
        clip-path: url(#clippath-4);
      }

      .st8 {
        clip-path: url(#clippath-2);
      }

      .st3 {
        font-family: HelveticaNeue, 'Helvetica Neue';
        font-size: 7.97px;
      }

      .st9 {
        letter-spacing: 0em;
      }

      .st1 {
        stroke: #4c5847;
        stroke-width: .35px;
      }

      .st10 {
        opacity: .75;
      }

      .st11 {
        opacity: .5;
      }

      .st12 {
        fill: #7fbce0;
      }

      .st13 {
        letter-spacing: -.09em;
      }

      .st14 {
        letter-spacing: -.03em;
      }

      .st15 {
        letter-spacing: -.02em;
      }

      .st16 {
        letter-spacing: -.01em;
      }

      .st17 {
        fill: #f58025;
      }

      .st18 {
        letter-spacing: 0em;
      }

      .st19 {
        letter-spacing: 0em;
      }

      .st20 {
        letter-spacing: 0em;
      }

      .st21 {
        letter-spacing: 0em;
      }

      .st22 {
        letter-spacing: 0em;
      }

      .st23 {
        letter-spacing: 0em;
      }

      .st24 {
        letter-spacing: 0em;
      }

      .st25 {
        letter-spacing: 0em;
      }

      .st26 {
        letter-spacing: 0em;
      }

      .st27 {
        fill: #eaeb83;
      }

      .st28 {
        clip-path: url(#clippath);
      }

      .st29 {
        fill: #231f20;
        font-family: Diagramm-Bold, Diagramm;
        font-size: 9.96px;
        font-weight: 700;
      }

      .st30 {
        letter-spacing: .01em;
      }

      .st31 {
        letter-spacing: .01em;
      }

      .st32 {
        letter-spacing: .01em;
      }

      .st33 {
        letter-spacing: .01em;
      }

      .st34 {
        letter-spacing: 0em;
      }
    </style>
    <clipPath id="clippath">
      <rect class="st0" y="0" width="264.11" height="20.19"/>
    </clipPath>
    <clipPath id="clippath-1">
      <rect class="st0" x="48.54" y="-6.11" width="29.08" height="20.11"/>
    </clipPath>
    <clipPath id="clippath-2">
      <rect class="st0" x="97.24" y="-6.11" width="29.08" height="20.11"/>
    </clipPath>
    <clipPath id="clippath-3">
      <rect class="st0" x="145.94" y="-6.11" width="29.08" height="20.11"/>
    </clipPath>
    <clipPath id="clippath-4">
      <rect class="st0" x="194.64" y="-6.11" width="29.07" height="20.11"/>
    </clipPath>
  </defs>
  <text class="st3" transform="translate(73.34 11.28)"><tspan class="st13" x="0" y="0">T</tspan><tspan class="st18" x="3.88" y="0">e</tspan><tspan class="st19" x="8.11" y="0">k</tspan><tspan class="st16" x="12.21" y="0">n</tspan><tspan class="st20" x="16.54" y="0">i</tspan><tspan class="st21" x="18.23" y="0">o</tspan><tspan x="22.74" y="0">n </tspan></text>
  <text class="st3" transform="translate(122.04 11.28)"><tspan class="st21" x="0" y="0">S</tspan><tspan class="st22" x="5.1" y="0">p</tspan><tspan class="st26" x="9.77" y="0">e</tspan><tspan x="14.03" y="0">c</tspan></text>
  <g>
    <path class="st2" d="M174.21,6.32c-.25-.18-.58-.27-.97-.27-.16,0-.32.02-.47.05-.15.03-.29.09-.41.16s-.21.17-.29.3c-.07.12-.11.28-.11.47,0,.18.05.32.15.43.1.11.24.2.41.27.17.07.37.13.59.17.22.04.44.09.67.15.23.05.45.12.67.19.22.07.41.17.59.29.17.12.31.28.41.46.1.19.15.42.15.7,0,.3-.07.56-.2.78-.14.21-.31.39-.52.53-.21.14-.45.23-.71.29-.26.06-.53.09-.78.09-.32,0-.62-.04-.9-.12s-.53-.2-.75-.36c-.21-.16-.39-.37-.51-.62-.13-.25-.19-.55-.19-.9h.72c0,.24.05.44.14.62.09.17.21.31.37.43.15.11.33.19.53.25.2.05.41.08.62.08.17,0,.34-.02.51-.05.17-.03.33-.09.47-.16s.25-.18.33-.32c.08-.13.13-.3.13-.51,0-.2-.05-.36-.16-.48-.1-.12-.24-.22-.41-.3-.17-.08-.37-.14-.59-.19-.22-.05-.44-.1-.67-.15-.23-.05-.45-.11-.67-.18s-.41-.15-.59-.26-.31-.25-.41-.42c-.1-.17-.16-.39-.16-.65,0-.29.06-.54.18-.74.12-.21.27-.38.47-.52.19-.14.41-.24.66-.3.25-.07.5-.1.76-.1.29,0,.56.03.81.1.25.07.47.18.66.33.19.15.34.34.45.56s.17.5.18.81h-.72c-.04-.41-.19-.7-.44-.89Z"/>
    <path class="st2" d="M177.06,5.54v5.69h-.68v-5.69h.68Z"/>
    <path class="st2" d="M180.96,10.97c-.31.23-.7.35-1.16.35-.33,0-.62-.05-.86-.16-.24-.11-.45-.25-.61-.44-.16-.19-.29-.42-.37-.69-.08-.27-.13-.55-.14-.87,0-.31.05-.6.14-.86.1-.26.23-.49.4-.68s.38-.34.61-.45c.24-.11.49-.16.78-.16.37,0,.67.08.91.23.24.15.43.34.58.58.15.23.25.49.3.76s.08.54.07.79h-3.08c0,.18.02.35.06.51.05.16.12.31.23.43s.24.22.41.3c.16.07.36.11.58.11.29,0,.52-.07.7-.2.18-.13.3-.33.36-.61h.67c-.09.46-.29.81-.6,1.04ZM180.79,8.32c-.06-.14-.14-.27-.25-.37-.1-.1-.23-.19-.37-.25-.14-.06-.3-.09-.47-.09s-.33.03-.47.09c-.14.06-.26.14-.36.25-.1.11-.18.23-.24.37-.06.14-.09.29-.1.45h2.37c-.01-.16-.05-.31-.11-.45Z"/>
    <path class="st2" d="M185.22,10.97c-.31.23-.7.35-1.16.35-.33,0-.62-.05-.86-.16-.24-.11-.45-.25-.61-.44-.16-.19-.29-.42-.37-.69-.08-.27-.13-.55-.14-.87,0-.31.05-.6.14-.86.1-.26.23-.49.4-.68s.38-.34.61-.45c.24-.11.49-.16.78-.16.37,0,.67.08.91.23.24.15.43.34.58.58.15.23.25.49.3.76s.08.54.07.79h-3.08c0,.18.02.35.06.51.05.16.12.31.23.43s.24.22.41.3c.16.07.36.11.58.11.29,0,.52-.07.7-.2.18-.13.3-.33.36-.61h.67c-.09.46-.29.81-.6,1.04ZM185.05,8.32c-.06-.14-.14-.27-.25-.37-.1-.1-.23-.19-.37-.25-.14-.06-.3-.09-.47-.09s-.33.03-.47.09c-.14.06-.26.14-.36.25-.1.11-.18.23-.24.37-.06.14-.09.29-.1.45h2.37c-.01-.16-.05-.31-.11-.45Z"/>
    <path class="st2" d="M187.24,7.11v.56h.02c.11-.23.29-.39.53-.5s.5-.16.79-.16c.32,0,.6.06.83.18.24.12.43.28.59.47.16.2.27.43.35.69.08.26.12.54.12.83s-.04.57-.12.83-.19.49-.35.68-.35.35-.59.46c-.24.11-.51.17-.82.17-.1,0-.21-.01-.34-.03-.12-.02-.25-.06-.37-.1-.12-.05-.24-.11-.35-.2-.11-.08-.2-.18-.27-.31h-.02v2.12h-.68v-5.69h.68ZM189.67,8.57c-.05-.18-.13-.35-.23-.49-.1-.14-.24-.26-.4-.34-.16-.09-.35-.13-.57-.13-.23,0-.42.05-.58.14-.16.09-.29.21-.39.35-.1.15-.17.31-.22.5-.04.19-.07.37-.07.57,0,.2.02.4.07.59s.12.35.23.5c.1.14.24.26.4.35.16.09.36.13.6.13s.43-.04.59-.14.28-.21.38-.36.16-.32.21-.51c.04-.19.06-.39.06-.59,0-.19-.03-.38-.08-.56Z"/>
  </g>
  <text class="st3" transform="translate(192.55 11.23)"><tspan x="0" y="0"> </tspan></text>
  <g>
    <path class="st2" d="M172.16,14.5l2.99,4.61h.02v-4.61h.72v5.69h-.83l-2.97-4.56h-.02v4.56h-.72v-5.69h.8Z"/>
    <path class="st2" d="M180.58,20.17c-.12.07-.28.1-.49.1-.18,0-.32-.05-.42-.15-.1-.1-.15-.26-.15-.48-.19.22-.4.38-.65.48s-.51.15-.8.15c-.19,0-.36-.02-.53-.06-.17-.04-.31-.11-.43-.2-.12-.09-.22-.21-.29-.35-.07-.15-.11-.32-.11-.53,0-.23.04-.42.12-.57s.18-.27.31-.36.28-.16.45-.21.34-.09.51-.12c.19-.04.36-.07.53-.08s.32-.04.44-.08c.13-.03.23-.08.3-.15.07-.07.11-.16.11-.29,0-.15-.03-.27-.08-.36s-.13-.16-.21-.21-.19-.08-.29-.1c-.11-.02-.22-.02-.32-.02-.29,0-.53.05-.72.16-.19.11-.3.31-.31.62h-.68c.01-.25.06-.47.16-.65.1-.18.22-.32.38-.43s.34-.19.55-.24.42-.07.66-.07c.19,0,.37.01.55.04.18.03.35.08.5.16.15.08.27.2.36.35.09.15.14.34.14.58v2.11c0,.16,0,.28.03.35.02.07.08.11.19.11.06,0,.13-.01.21-.03v.53ZM179.49,18.06c-.09.06-.2.11-.33.14-.14.03-.28.05-.43.07-.15.02-.3.04-.46.06-.15.02-.29.06-.41.11s-.22.13-.3.23c-.08.1-.12.23-.12.4,0,.11.02.21.07.28.04.08.1.14.18.19s.16.08.25.1.2.03.3.03c.22,0,.41-.03.57-.09s.29-.14.39-.23c.1-.09.18-.19.22-.3.05-.11.07-.21.07-.31v-.69Z"/>
    <path class="st2" d="M182.87,16.07v.6h-.82v2.56c0,.08,0,.14.02.19.01.05.04.09.08.11s.09.04.16.05c.07,0,.15.01.26.01h.31v.6h-.52c-.18,0-.32-.01-.45-.04-.12-.02-.23-.07-.3-.13s-.13-.15-.17-.27c-.04-.12-.06-.27-.06-.46v-2.62h-.7v-.6h.7v-1.23h.68v1.23h.82Z"/>
    <path class="st2" d="M183.54,15.33v-.83h.68v.83h-.68ZM184.22,16.07v4.12h-.68v-4.12h.68Z"/>
    <path class="st2" d="M185.1,17.28c.08-.26.21-.49.38-.68.17-.19.38-.35.63-.46.25-.11.54-.17.86-.17s.62.06.86.17c.25.11.46.26.63.46.17.19.3.42.38.68.09.26.13.55.13.85s-.04.58-.13.84c-.08.26-.21.49-.38.68-.17.19-.38.35-.63.45s-.53.16-.86.16-.61-.05-.86-.16c-.25-.11-.46-.26-.63-.45-.17-.19-.3-.42-.38-.68-.08-.26-.13-.54-.13-.84s.04-.59.13-.85ZM185.79,18.8c.07.19.16.36.27.49s.25.23.41.3.32.1.5.1.34-.04.5-.1.29-.17.41-.3.21-.29.28-.49c.07-.19.1-.42.1-.67s-.03-.47-.1-.67c-.07-.19-.16-.36-.28-.49-.12-.13-.25-.23-.41-.3s-.32-.1-.5-.1-.34.03-.5.1-.29.17-.41.3c-.12.13-.21.3-.27.49-.07.19-.1.42-.1.67s.03.47.1.67Z"/>
    <path class="st2" d="M190.34,16.07v.65h.02c.28-.5.73-.75,1.34-.75.27,0,.5.04.68.11.18.07.33.18.44.31.11.13.19.29.24.47.04.18.07.39.07.61v2.71h-.68v-2.79c0-.25-.07-.46-.22-.61s-.35-.22-.61-.22c-.21,0-.39.03-.54.1-.15.06-.28.15-.38.27s-.18.25-.23.41-.07.33-.07.51v2.33h-.68v-4.12h.64Z"/>
  </g>
  <rect class="st0" y="0" width="264.11" height="20.19"/>
  <text class="st3" transform="translate(219.44 11.23)"><tspan class="st25" x="0" y="0">D</tspan><tspan class="st15" x="5.58" y="0">e</tspan><tspan class="st14" x="9.67" y="0"> </tspan><tspan class="st24" x="11.68" y="0">G</tspan><tspan class="st18" x="17.71" y="0">a</tspan><tspan class="st21" x="21.94" y="0">sp</tspan><tspan x="30.51" y="0">é</tspan></text>
  <g class="st28">
    <path class="st1" d="M63.08,14.7c4,0,7.26-3.26,7.26-7.26S67.08.17,63.08.17s-7.26,3.26-7.26,7.26,3.26,7.26,7.26,7.26Z"/>
    <g class="st11">
      <g class="st5">
        <path class="st12" d="M63.08,13.01c3.08,0,5.58-2.5,5.58-5.58s-2.5-5.58-5.58-5.58-5.58,2.5-5.58,5.58,2.5,5.58,5.58,5.58"/>
      </g>
    </g>
    <path class="st1" d="M111.78,14.7c4,0,7.26-3.26,7.26-7.26S115.78.17,111.78.17s-7.26,3.26-7.26,7.26,3.26,7.26,7.26,7.26Z"/>
    <g class="st11">
      <g class="st8">
        <path class="st17" d="M111.78,13.01c3.08,0,5.58-2.5,5.58-5.58s-2.5-5.58-5.58-5.58-5.58,2.5-5.58,5.58,2.5,5.58,5.58,5.58"/>
      </g>
    </g>
    <path class="st1" d="M160.48,14.7c4,0,7.26-3.26,7.26-7.26s-3.26-7.26-7.26-7.26-7.26,3.26-7.26,7.26,3.26,7.26,7.26,7.26Z"/>
    <g class="st11">
      <g class="st6">
        <path class="st4" d="M160.48,13.01c3.08,0,5.58-2.5,5.58-5.58s-2.5-5.58-5.58-5.58-5.58,2.5-5.58,5.58,2.5,5.58,5.58,5.58"/>
      </g>
    </g>
    <path class="st1" d="M209.18,14.7c4,0,7.26-3.26,7.26-7.26s-3.26-7.26-7.26-7.26-7.26,3.26-7.26,7.26,3.26,7.26,7.26,7.26Z"/>
    <g class="st10">
      <g class="st7">
        <path class="st27" d="M209.18,13.01c3.08,0,5.58-2.5,5.58-5.58s-2.5-5.58-5.58-5.58-5.58,2.5-5.58,5.58,2.5,5.58,5.58,5.58"/>
      </g>
    </g>
    <text class="st29" transform="translate(0 11.17)"><tspan class="st9" x="0" y="0">P</tspan><tspan class="st23" x="6.8" y="0">r</tspan><tspan class="st32" x="11.08" y="0">o</tspan><tspan class="st30" x="17.2" y="0">d</tspan><tspan class="st33" x="23.69" y="0">u</tspan><tspan class="st34" x="29.68" y="0">c</tspan><tspan class="st31" x="35.56" y="0">t</tspan><tspan x="39.58" y="0">s</tspan></text>
  </g>
  <rect class="st0" width="264.11" height="20.19"/>
</svg>