<?xml version="1.0" encoding="UTF-8"?>
<svg id="Layer_1" xmlns="http://www.w3.org/2000/svg" xmlns:xlink="http://www.w3.org/1999/xlink" version="1.1" viewBox="0 0 1056.85 332.57">
  <!-- Generator: Adobe Illustrator 29.1.0, SVG Export Plug-In . SVG Version: 2.1.0 Build 142)  -->
  <defs>
    <style>
      .st0 {
        fill: none;
      }

      .st1 {
        fill: #8c8e90;
      }

      .st2 {
        clip-path: url(#clippath);
      }
    </style>
    <clipPath id="clippath">
      <rect class="st0" width="1056.85" height="332.57"/>
    </clipPath>
  </defs>
  <g class="st2">
    <path class="st1" d="M397.27,207.86c-15.99,10.5-41.12,10.04-63.95,14.17-22.39,3.64-42.5,11.87-42.5,39.28,0,23.31,29.69,30.15,47.96,30.15,22.85,0,58.49-11.88,58.49-44.78v-38.82ZM449.41,325.91l-48.24.04v-21.97c-20.7,20-53.7,28.59-81.57,28.59-42.48,0-80.86-22.85-80.86-68.99,0-58.93,47.06-68.51,90.92-73.55,37.46-6.84,70.81-2.74,70.81-33.34,0-26.95-27.87-31.97-48.88-31.97-29.23,0-49.8,11.87-52.08,37.46h-52.08c3.66-60.77,55.28-78.59,107.37-78.59,46.12,0,94.56,18.75,94.56,68.53l.06,173.8Z"/>
    <path class="st1" d="M168.52,161.99c-4.12-28.79-30.45-37.51-51.57-37.27-26.95.28-64.87,14.15-64.87,85.86,0,39.3,17.35,80.87,62.59,80.87,30.15,0,52.17-21.08,56.19-53.9h52.08c-9.6,61.21-47.5,95.02-108.27,95.02C40.65,332.57,0,280.03,0,210.58s38.84-127,116.49-127c54.82,0,97.75,26.88,105.55,78.41h-53.52Z"/>
    <path class="st1" d="M477.78,89.99h49.32v32.89h1.4c15.51-23.29,35.16-39.3,72.63-39.3,28.77,0,55.73,12.34,66.23,39.3,17.37-24.21,39.74-39.3,73.99-39.3,49.8,0,79.05,21.95,79.05,79.49v163.09h-52.08v-137.96c0-37.46-2.28-63.49-42.96-63.49-35.18,0-50.24,23.27-50.24,63.03v138.42h-52.08v-151.67c0-32.43-10.04-49.78-41.58-49.78-26.93,0-51.6,21.91-51.6,61.21v140.24h-52.08V89.99Z"/>
    <path class="st1" d="M849.45,0h52.08v121.07h.92c12.79-21.49,39.74-37.48,70.79-37.48,51.16,0,83.62,27.41,83.62,80.4v162.19h-52.08v-148.47c-.92-37.02-15.55-53-46.14-53-34.72,0-57.11,27.41-57.11,62.13v139.34h-52.08V0Z"/>
  </g>
</svg>