<?xml version="1.0" encoding="UTF-8" standalone="no"?>
<svg
   width="183.84895"
   zoomAndPan="magnify"
   viewBox="0 0 137.88671 62.355467"
   height="83.140625"
   preserveAspectRatio="xMidYMid"
   version="1.0"
   id="svg28"
   sodipodi:docname="bar_design.svg"
   inkscape:version="1.4.2 (f4327f4, 2025-05-13)"
   xmlns:inkscape="http://www.inkscape.org/namespaces/inkscape"
   xmlns:sodipodi="http://sodipodi.sourceforge.net/DTD/sodipodi-0.dtd"
   xmlns="http://www.w3.org/2000/svg"
   xmlns:svg="http://www.w3.org/2000/svg">
  <sodipodi:namedview
     id="namedview28"
     pagecolor="#ffffff"
     bordercolor="#000000"
     borderopacity="0.25"
     inkscape:showpageshadow="2"
     inkscape:pageopacity="0.0"
     inkscape:pagecheckerboard="true"
     inkscape:deskcolor="#d1d1d1"
     inkscape:zoom="2.502"
     inkscape:cx="96.922462"
     inkscape:cy="54.556355"
     inkscape:window-width="2560"
     inkscape:window-height="1511"
     inkscape:window-x="-9"
     inkscape:window-y="1341"
     inkscape:window-maximized="1"
     inkscape:current-layer="svg28" />
  <defs
     id="defs14">
    <clipPath
       id="cc97583e74">
      <path
         d="M 114.71484,185.32031 H 252.62109 V 196 H 114.71484 Z m 0,0"
         clip-rule="nonzero"
         id="path1" />
    </clipPath>
    <clipPath
       id="a06cec0204">
      <path
         d="m 114.53906,185.46094 v 10.40234 h 132.86328 c 2.8711,0 5.19922,-2.32812 5.19922,-5.20312 0,-2.8711 -2.32812,-5.19922 -5.19922,-5.19922 z m 0,0"
         clip-rule="nonzero"
         id="path2" />
    </clipPath>
    <clipPath
       id="529e276e7d">
      <path
         d="m 114.71484,185.46094 h 111.89453 v 10.40234 H 114.71484 Z m 0,0"
         clip-rule="nonzero"
         id="path3" />
    </clipPath>
    <clipPath
       id="a57b0d0b53">
      <path
         d="M 114.71484,198.39844 H 252.62109 V 208.875 H 114.71484 Z m 0,0"
         clip-rule="nonzero"
         id="path4" />
    </clipPath>
    <clipPath
       id="aaee8010e2">
      <path
         d="m 114.53906,198.44922 v 10.40234 h 132.86328 c 2.8711,0 5.19922,-2.32812 5.19922,-5.20312 0,-2.8711 -2.32812,-5.19922 -5.19922,-5.19922 z m 0,0"
         clip-rule="nonzero"
         id="path5" />
    </clipPath>
    <clipPath
       id="0280d7e087">
      <path
         d="m 114.71484,172.47266 h 137.90625 v 10.44921 H 114.71484 Z m 0,0"
         clip-rule="nonzero"
         id="path6" />
    </clipPath>
    <clipPath
       id="9f5fd597fa">
      <path
         d="M 114.53906,172.47266 V 182.875 h 132.86328 c 2.8711,0 5.19922,-2.32422 5.19922,-5.20313 0,-2.87109 -2.32812,-5.19921 -5.19922,-5.19921 z m 0,0"
         clip-rule="nonzero"
         id="path7" />
    </clipPath>
    <clipPath
       id="a1ae27af56">
      <path
         d="m 114.71484,172.47266 h 86.06641 V 182.875 h -86.06641 z m 0,0"
         clip-rule="nonzero"
         id="path8" />
    </clipPath>
    <clipPath
       id="c5f47e9784">
      <path
         d="M 114.71484,159.3125 H 252.62109 V 170 H 114.71484 Z m 0,0"
         clip-rule="nonzero"
         id="path9" />
    </clipPath>
    <clipPath
       id="9d0eb1dab6">
      <path
         d="m 114.53906,159.48437 v 10.40235 h 132.86328 c 2.8711,0 5.19922,-2.32422 5.19922,-5.19922 0,-2.875 -2.32812,-5.20313 -5.19922,-5.20313 z m 0,0"
         clip-rule="nonzero"
         id="path10" />
    </clipPath>
    <clipPath
       id="62a62c87b3">
      <path
         d="m 114.71484,159.48437 h 77.46094 v 10.40235 h -77.46094 z m 0,0"
         clip-rule="nonzero"
         id="path11" />
    </clipPath>
    <clipPath
       id="3e69f56d69">
      <path
         d="m 114.71484,146.46094 h 137.90625 v 10.48437 H 114.71484 Z m 0,0"
         clip-rule="nonzero"
         id="path12" />
    </clipPath>
    <clipPath
       id="460d8717f8">
      <path
         d="m 114.53906,146.49609 v 10.40235 h 132.86328 c 2.8711,0 5.19922,-2.32422 5.19922,-5.19922 0,-2.875 -2.32812,-5.20313 -5.19922,-5.20313 z m 0,0"
         clip-rule="nonzero"
         id="path13" />
    </clipPath>
    <clipPath
       id="9e5a1d81b7">
      <path
         d="m 114.71484,146.49609 h 8.45313 v 10.40235 h -8.45313 z m 0,0"
         clip-rule="nonzero"
         id="path14" />
    </clipPath>
  </defs>
  <g
     clip-path="url(#cc97583e74)"
     id="g16"
     transform="translate(-114.71484,-146.49609)">
    <g
       clip-path="url(#a06cec0204)"
       id="g15">
      <path
         fill="#6c9260"
         d="M 112.14453,144.09766 H 254.98047 V 211.25 H 112.14453 Z m 0,0"
         fill-opacity="1"
         fill-rule="nonzero"
         id="path15" />
    </g>
  </g>
  <g
     clip-path="url(#529e276e7d)"
     id="g17"
     transform="translate(-114.71484,-146.49609)">
    <path
       fill="#4b5846"
       d="M 112.14453,144.09766 H 254.98047 V 211.25 H 112.14453 Z m 0,0"
       fill-opacity="1"
       fill-rule="nonzero"
       id="path16" />
  </g>
  <g
     clip-path="url(#a57b0d0b53)"
     id="g19"
     transform="translate(-114.71484,-146.49609)">
    <g
       clip-path="url(#aaee8010e2)"
       id="g18">
      <path
         fill="#4b5846"
         d="M 112.14453,144.09766 H 254.98047 V 211.25 H 112.14453 Z m 0,0"
         fill-opacity="1"
         fill-rule="nonzero"
         id="path17" />
    </g>
  </g>
  <g
     clip-path="url(#0280d7e087)"
     id="g21"
     transform="translate(-114.71484,-146.49609)">
    <g
       clip-path="url(#9f5fd597fa)"
       id="g20">
      <path
         fill="#87a278"
         d="M 112.14453,144.09766 H 254.98047 V 211.25 H 112.14453 Z m 0,0"
         fill-opacity="1"
         fill-rule="nonzero"
         id="path19" />
    </g>
  </g>
  <g
     clip-path="url(#a1ae27af56)"
     id="g22"
     transform="translate(-114.71484,-146.49609)">
    <path
       fill="#4b5846"
       d="M 112.14453,144.09766 H 254.98047 V 211.25 H 112.14453 Z m 0,0"
       fill-opacity="1"
       fill-rule="nonzero"
       id="path21" />
  </g>
  <g
     clip-path="url(#c5f47e9784)"
     id="g24"
     transform="translate(-114.71484,-146.49609)">
    <g
       clip-path="url(#9d0eb1dab6)"
       id="g23">
      <path
         fill="#a9ba9a"
         d="M 112.14453,144.09766 H 254.98047 V 211.25 H 112.14453 Z m 0,0"
         fill-opacity="1"
         fill-rule="nonzero"
         id="path22" />
    </g>
  </g>
  <g
     clip-path="url(#62a62c87b3)"
     id="g25"
     transform="translate(-114.71484,-146.49609)">
    <path
       fill="#4b5846"
       d="M 112.14453,144.09766 H 254.98047 V 211.25 H 112.14453 Z m 0,0"
       fill-opacity="1"
       fill-rule="nonzero"
       id="path24" />
  </g>
  <g
     clip-path="url(#3e69f56d69)"
     id="g27"
     transform="translate(-114.71484,-146.49609)">
    <g
       clip-path="url(#460d8717f8)"
       id="g26">
      <path
         fill="#c9d2be"
         d="M 112.14453,144.09766 H 254.98047 V 211.25 H 112.14453 Z m 0,0"
         fill-opacity="1"
         fill-rule="nonzero"
         id="path25" />
    </g>
  </g>
  <g
     clip-path="url(#9e5a1d81b7)"
     id="g28"
     transform="translate(-114.71484,-146.49609)">
    <path
       fill="#4b5846"
       d="M 112.14453,144.09766 H 254.98047 V 211.25 H 112.14453 Z m 0,0"
       fill-opacity="1"
       fill-rule="nonzero"
       id="path27" />
  </g>
</svg>
