<svg xmlns="http://www.w3.org/2000/svg" xmlns:xlink="http://www.w3.org/1999/xlink" width="384" zoomAndPan="magnify" viewBox="0 0 288 647.999998" height="864" preserveAspectRatio="xMidYMid meet" version="1.2"><defs><clipPath id="fcb8704230"><path d="M 8.21875 77 L 266.453125 77 L 266.453125 97 L 8.21875 97 Z M 8.21875 77 "/></clipPath><clipPath id="b4edb38250"><path d="M 8.292969 77.265625 L 8.292969 96.695312 L 256.695312 96.695312 C 262.0625 96.695312 266.410156 92.347656 266.410156 86.980469 C 266.410156 81.613281 262.0625 77.265625 256.695312 77.265625 Z M 8.292969 77.265625 "/></clipPath><clipPath id="21d77e4f94"><path d="M 8.292969 77.265625 L 217.816406 77.265625 L 217.816406 96.695312 L 8.292969 96.695312 Z M 8.292969 77.265625 "/></clipPath><clipPath id="5985cb6aea"><path d="M 8.21875 101.429688 L 266.453125 101.429688 L 266.453125 121 L 8.21875 121 Z M 8.21875 101.429688 "/></clipPath><clipPath id="908c0590ad"><path d="M 8.292969 101.527344 L 8.292969 120.957031 L 256.695312 120.957031 C 262.0625 120.957031 266.410156 116.609375 266.410156 111.242188 C 266.410156 105.875 262.0625 101.527344 256.695312 101.527344 Z M 8.292969 101.527344 "/></clipPath><clipPath id="c0640e8071"><path d="M 8.21875 53 L 266.453125 53 L 266.453125 72.519531 L 8.21875 72.519531 Z M 8.21875 53 "/></clipPath><clipPath id="6a57b623c2"><path d="M 8.292969 53.003906 L 8.292969 72.433594 L 256.695312 72.433594 C 262.0625 72.433594 266.410156 68.089844 266.410156 62.71875 C 266.410156 57.351562 262.0625 53.003906 256.695312 53.003906 Z M 8.292969 53.003906 "/></clipPath><clipPath id="1fe19717aa"><path d="M 8.292969 53.003906 L 169.527344 53.003906 L 169.527344 72.433594 L 8.292969 72.433594 Z M 8.292969 53.003906 "/></clipPath><clipPath id="3b73bc41cc"><path d="M 8.21875 28.421875 L 266.453125 28.421875 L 266.453125 48.511719 L 8.21875 48.511719 Z M 8.21875 28.421875 "/></clipPath><clipPath id="7cacf7163e"><path d="M 8.292969 28.742188 L 8.292969 48.171875 L 256.695312 48.171875 C 262.0625 48.171875 266.410156 43.828125 266.410156 38.457031 C 266.410156 33.089844 262.0625 28.742188 256.695312 28.742188 Z M 8.292969 28.742188 "/></clipPath><clipPath id="aab4485455"><path d="M 8.292969 28.742188 L 153.4375 28.742188 L 153.4375 48.171875 L 8.292969 48.171875 Z M 8.292969 28.742188 "/></clipPath><clipPath id="abb3485c1a"><path d="M 8.21875 4.410156 L 266.453125 4.410156 L 266.453125 24 L 8.21875 24 Z M 8.21875 4.410156 "/></clipPath><clipPath id="eaf2531e8e"><path d="M 8.292969 4.480469 L 8.292969 23.910156 L 256.695312 23.910156 C 262.0625 23.910156 266.410156 19.566406 266.410156 14.195312 C 266.410156 8.828125 262.0625 4.480469 256.695312 4.480469 Z M 8.292969 4.480469 "/></clipPath><clipPath id="1b9f9a3389"><path d="M 8.292969 4.480469 L 24.425781 4.480469 L 24.425781 23.910156 L 8.292969 23.910156 Z M 8.292969 4.480469 "/></clipPath><clipPath id="8b17d2e002"><path d="M 7.097656 143.769531 L 281.617188 143.769531 L 281.617188 145.609375 L 7.097656 145.609375 Z M 7.097656 143.769531 "/></clipPath><clipPath id="b7b3f4b2e0"><path d="M 8.066406 143.792969 L 280.695312 143.792969 C 281.1875 143.792969 281.59375 144.195312 281.59375 144.691406 C 281.59375 145.183594 281.1875 145.585938 280.695312 145.585938 L 8.066406 145.585938 C 7.574219 145.585938 7.171875 145.183594 7.171875 144.691406 C 7.171875 144.195312 7.574219 143.792969 8.066406 143.792969 Z M 8.066406 143.792969 "/></clipPath><clipPath id="deea87f1a5"><path d="M 4.46875 141.007812 L 11.695312 141.007812 L 11.695312 148.367188 L 4.46875 148.367188 Z M 4.46875 141.007812 "/></clipPath><clipPath id="cb2e4613f0"><path d="M 8.066406 148.273438 C 10.046875 148.273438 11.652344 146.671875 11.652344 144.691406 C 11.652344 142.710938 10.046875 141.105469 8.066406 141.105469 C 6.085938 141.105469 4.480469 142.710938 4.480469 144.691406 C 4.480469 146.671875 6.085938 148.273438 8.066406 148.273438 "/></clipPath><clipPath id="a61524929c"><path d="M 268.210938 132.335938 L 283.585938 132.335938 L 283.585938 157.039062 L 268.210938 157.039062 Z M 268.210938 132.335938 "/></clipPath><clipPath id="cedcc40a2b"><path d="M 274.019531 157.03125 C 274.976562 151.734375 278.230469 147.65625 283.519531 144.726562 C 278.222656 141.859375 274.96875 137.644531 274.019531 132.359375 L 268.28125 132.359375 C 270.199219 137.90625 273.320312 142.054688 280.015625 144.726562 C 273.320312 147.40625 270.191406 151.484375 268.28125 157.03125 Z M 274.019531 157.03125 "/></clipPath></defs><g id="9b58d3c2ac"><g clip-rule="nonzero" clip-path="url(#fcb8704230)"><g clip-rule="nonzero" clip-path="url(#b4edb38250)"><path style=" stroke:none;fill-rule:nonzero;fill:#6c9260;fill-opacity:1;" d="M 3.8125 0 L 270.863281 0 L 270.863281 125.441406 L 3.8125 125.441406 Z M 3.8125 0 "/></g></g><g clip-rule="nonzero" clip-path="url(#21d77e4f94)"><path style=" stroke:none;fill-rule:nonzero;fill:#4b5846;fill-opacity:1;" d="M 3.8125 0 L 270.863281 0 L 270.863281 125.441406 L 3.8125 125.441406 Z M 3.8125 0 "/></g><g clip-rule="nonzero" clip-path="url(#5985cb6aea)"><g clip-rule="nonzero" clip-path="url(#908c0590ad)"><path style=" stroke:none;fill-rule:nonzero;fill:#4b5846;fill-opacity:1;" d="M 3.8125 0 L 270.863281 0 L 270.863281 125.441406 L 3.8125 125.441406 Z M 3.8125 0 "/></g></g><g clip-rule="nonzero" clip-path="url(#c0640e8071)"><g clip-rule="nonzero" clip-path="url(#6a57b623c2)"><path style=" stroke:none;fill-rule:nonzero;fill:#87a278;fill-opacity:1;" d="M 3.8125 0 L 270.863281 0 L 270.863281 125.441406 L 3.8125 125.441406 Z M 3.8125 0 "/></g></g><g clip-rule="nonzero" clip-path="url(#1fe19717aa)"><path style=" stroke:none;fill-rule:nonzero;fill:#4b5846;fill-opacity:1;" d="M 3.8125 0 L 270.863281 0 L 270.863281 125.441406 L 3.8125 125.441406 Z M 3.8125 0 "/></g><g clip-rule="nonzero" clip-path="url(#3b73bc41cc)"><g clip-rule="nonzero" clip-path="url(#7cacf7163e)"><path style=" stroke:none;fill-rule:nonzero;fill:#a9ba9a;fill-opacity:1;" d="M 3.8125 0 L 270.863281 0 L 270.863281 125.441406 L 3.8125 125.441406 Z M 3.8125 0 "/></g></g><g clip-rule="nonzero" clip-path="url(#aab4485455)"><path style=" stroke:none;fill-rule:nonzero;fill:#4b5846;fill-opacity:1;" d="M 3.8125 0 L 270.863281 0 L 270.863281 125.441406 L 3.8125 125.441406 Z M 3.8125 0 "/></g><g clip-rule="nonzero" clip-path="url(#abb3485c1a)"><g clip-rule="nonzero" clip-path="url(#eaf2531e8e)"><path style=" stroke:none;fill-rule:nonzero;fill:#c9d2be;fill-opacity:1;" d="M 3.8125 0 L 270.863281 0 L 270.863281 125.441406 L 3.8125 125.441406 Z M 3.8125 0 "/></g></g><g clip-rule="nonzero" clip-path="url(#1b9f9a3389)"><path style=" stroke:none;fill-rule:nonzero;fill:#4b5846;fill-opacity:1;" d="M 3.8125 0 L 270.863281 0 L 270.863281 125.441406 L 3.8125 125.441406 Z M 3.8125 0 "/></g><g clip-rule="nonzero" clip-path="url(#8b17d2e002)"><g clip-rule="nonzero" clip-path="url(#b7b3f4b2e0)"><path style=" stroke:none;fill-rule:nonzero;fill:#4b5846;fill-opacity:1;" d="M 0 127.867188 L 288.054688 127.867188 L 288.054688 161.507812 L 0 161.507812 Z M 0 127.867188 "/></g></g><g clip-rule="nonzero" clip-path="url(#deea87f1a5)"><g clip-rule="nonzero" clip-path="url(#cb2e4613f0)"><path style=" stroke:none;fill-rule:nonzero;fill:#4b5846;fill-opacity:1;" d="M 0 127.867188 L 288.054688 127.867188 L 288.054688 161.507812 L 0 161.507812 Z M 0 127.867188 "/></g></g><g clip-rule="nonzero" clip-path="url(#a61524929c)"><g clip-rule="nonzero" clip-path="url(#cedcc40a2b)"><path style=" stroke:none;fill-rule:nonzero;fill:#4b5846;fill-opacity:1;" d="M 0 127.867188 L 288.054688 127.867188 L 288.054688 161.507812 L 0 161.507812 Z M 0 127.867188 "/></g></g></g></svg>